<svg width="250" height="450" viewBox="0 0 250 450" fill="none" xmlns="http://www.w3.org/2000/svg">
<path d="M147.791 362.635C148.864 355.645 150.727 352.426 155.124 348.221M139.93 357.239C140.726 352.029 142.076 348.821 145.614 345.822M143.921 359.857C144.475 354.391 146.129 350.85 150.159 346.895M132.656 351.602C133.208 348.294 134.022 346.031 136.375 343.797M136.183 354.3C136.709 349.953 137.867 347.429 141.032 344.896M130.52 346.489C140.411 349.855 152.535 356.348 154.329 357.364" stroke="#70574E" stroke-opacity="0.1" stroke-width="1.5" stroke-linecap="round"/>
<path fill-rule="evenodd" clip-rule="evenodd" d="M160.369 349.54C160.022 349.224 159.496 349.214 159.133 349.511C153.907 353.781 152.001 358.576 151.198 364.507C151.136 364.965 151.405 365.405 151.845 365.547C156.296 366.974 160.607 366.462 164.106 364.591C165.488 363.853 166.221 362.317 166.04 360.761C165.553 356.576 163.863 352.715 160.369 349.54ZM162.439 358.053C162.172 359.016 160.942 359.713 159.978 359.447C159.014 359.18 158.317 357.949 158.584 356.985C158.851 356.022 160.081 355.325 161.045 355.592C162.009 355.858 162.706 357.089 162.439 358.053Z" fill="#70574E" fill-opacity="0.1"/>
<path d="M132.06 347.309C132.195 347.178 132.292 347.008 132.334 346.824C133.208 343.018 133.162 340.178 132.043 338.753C131.375 337.903 130.024 337.966 129.331 338.797C128.361 339.959 128.197 341.845 128.195 344.276C128.194 344.679 127.952 345.04 127.597 345.231C125.95 346.117 124.909 347.486 124.407 348.738C123.963 349.846 124.454 351.269 125.638 351.418C127.297 351.626 129.301 349.993 132.06 347.309Z" fill="#70574E" fill-opacity="0.1"/>
<path fill-rule="evenodd" clip-rule="evenodd" d="M160.369 349.54C160.022 349.224 159.496 349.214 159.133 349.511C153.907 353.781 152.001 358.576 151.198 364.507C151.136 364.965 151.405 365.405 151.845 365.547C156.296 366.974 160.607 366.462 164.106 364.591C165.488 363.853 166.221 362.317 166.04 360.761C165.553 356.576 163.863 352.715 160.369 349.54ZM162.439 358.053C162.172 359.016 160.942 359.713 159.978 359.447C159.014 359.18 158.317 357.949 158.584 356.985C158.851 356.022 160.081 355.325 161.045 355.592C162.009 355.858 162.706 357.089 162.439 358.053Z" stroke="#70574E" stroke-opacity="0.1" stroke-width="0.5"/>
<path d="M132.06 347.309C132.195 347.178 132.292 347.008 132.334 346.824C133.208 343.018 133.162 340.178 132.043 338.753C131.375 337.903 130.024 337.966 129.331 338.797C128.361 339.959 128.197 341.845 128.195 344.276C128.194 344.679 127.952 345.04 127.597 345.231C125.95 346.117 124.909 347.486 124.407 348.738C123.963 349.846 124.454 351.269 125.638 351.418C127.297 351.626 129.301 349.993 132.06 347.309Z" stroke="#70574E" stroke-opacity="0.1" stroke-width="0.5"/>
<path d="M217.793 301.996C214.389 295.797 211.536 293.411 205.964 290.968M223.328 294.232C220.795 289.611 218.428 287.06 214.076 285.455M220.476 298.06C218.082 293.114 215.316 290.355 210.173 288.02M228.23 286.444C226.577 283.526 225.038 281.678 222.062 280.386M225.841 290.187C223.857 286.284 221.905 284.309 218.063 283.015M228.484 280.908C220.346 287.46 211.182 297.715 209.844 299.284" stroke="#70574E" stroke-opacity="0.1" stroke-width="1.5" stroke-linecap="round"/>
<path fill-rule="evenodd" clip-rule="evenodd" d="M201.488 294.004C201.706 293.589 202.197 293.399 202.64 293.553C209.012 295.774 212.446 299.625 215.234 304.922C215.449 305.331 215.347 305.837 214.982 306.12C211.29 308.987 207.064 309.983 203.136 309.425C201.585 309.204 200.37 308.013 200.007 306.489C199.03 302.39 199.295 298.184 201.488 294.004ZM202.461 302.711C203.042 303.525 204.437 303.758 205.251 303.177C206.065 302.596 206.298 301.201 205.717 300.387C205.136 299.573 203.741 299.34 202.927 299.921C202.114 300.502 201.88 301.897 202.461 302.711Z" fill="#70574E" fill-opacity="0.1"/>
<path d="M227.319 282.207C227.147 282.129 226.998 282.003 226.895 281.845C224.769 278.569 223.839 275.885 224.402 274.163C224.739 273.135 226.029 272.732 226.965 273.274C228.275 274.034 229.076 275.75 229.91 278.032C230.049 278.411 230.4 278.667 230.799 278.725C232.65 278.993 234.097 279.922 234.998 280.926C235.795 281.814 235.821 283.32 234.76 283.866C233.272 284.63 230.83 283.783 227.319 282.207Z" fill="#70574E" fill-opacity="0.1"/>
<path fill-rule="evenodd" clip-rule="evenodd" d="M201.488 294.004C201.706 293.589 202.197 293.399 202.64 293.553C209.012 295.774 212.446 299.625 215.234 304.922C215.449 305.331 215.347 305.837 214.982 306.12C211.29 308.987 207.064 309.983 203.136 309.425C201.585 309.204 200.37 308.013 200.007 306.489C199.03 302.39 199.295 298.184 201.488 294.004ZM202.461 302.711C203.042 303.525 204.437 303.758 205.251 303.177C206.065 302.596 206.298 301.201 205.717 300.387C205.136 299.573 203.741 299.34 202.927 299.921C202.114 300.502 201.88 301.897 202.461 302.711Z" stroke="#70574E" stroke-opacity="0.1" stroke-width="0.5"/>
<path d="M227.319 282.207C227.147 282.129 226.998 282.003 226.895 281.845C224.769 278.569 223.839 275.885 224.402 274.163C224.739 273.135 226.029 272.732 226.965 273.274C228.275 274.034 229.076 275.75 229.91 278.032C230.049 278.411 230.4 278.667 230.799 278.725C232.65 278.993 234.097 279.922 234.998 280.926C235.795 281.814 235.821 283.32 234.76 283.866C233.272 284.63 230.83 283.783 227.319 282.207Z" stroke="#70574E" stroke-opacity="0.1" stroke-width="0.5"/>
<path d="M222.958 157.144C224.117 150.168 223.351 146.528 220.485 141.162M232.109 154.468C232.977 149.269 232.695 145.801 230.269 141.848M227.501 155.711C228.679 150.345 228.212 146.465 225.615 141.45M240.778 151.38C241.285 148.065 241.217 145.66 239.678 142.805M236.586 152.843C237.441 148.549 237.128 145.79 234.911 142.397M244.402 147.187C233.955 147.302 220.411 149.692 218.39 150.097" stroke="#70574E" stroke-opacity="0.1" stroke-width="1.5" stroke-linecap="round"/>
<path fill-rule="evenodd" clip-rule="evenodd" d="M215.089 140.78C215.518 140.588 216.02 140.742 216.273 141.138C219.907 146.824 220.223 151.974 219.137 157.86C219.053 158.315 218.661 158.649 218.198 158.646C213.524 158.615 209.587 156.784 206.846 153.916C205.764 152.783 205.546 151.095 206.203 149.673C207.971 145.849 210.78 142.708 215.089 140.78ZM210.469 148.223C210.422 149.222 211.374 150.268 212.373 150.315C213.372 150.362 214.417 149.41 214.464 148.411C214.511 147.412 213.559 146.366 212.561 146.319C211.562 146.272 210.516 147.224 210.469 148.223Z" fill="#70574E" fill-opacity="0.1"/>
<path d="M242.683 147.486C242.596 147.319 242.557 147.128 242.574 146.94C242.93 143.051 243.859 140.367 245.367 139.362C246.267 138.762 247.53 139.244 247.93 140.249C248.489 141.656 248.057 143.499 247.301 145.81C247.176 146.193 247.293 146.611 247.571 146.903C248.86 148.259 249.422 149.884 249.509 151.23C249.586 152.421 248.676 153.62 247.504 153.392C245.862 153.073 244.468 150.897 242.683 147.486Z" fill="#70574E" fill-opacity="0.1"/>
<path fill-rule="evenodd" clip-rule="evenodd" d="M215.089 140.78C215.518 140.588 216.02 140.742 216.273 141.138C219.907 146.824 220.223 151.974 219.137 157.86C219.053 158.315 218.661 158.649 218.198 158.646C213.524 158.615 209.587 156.784 206.846 153.916C205.764 152.783 205.546 151.095 206.203 149.673C207.971 145.849 210.78 142.708 215.089 140.78ZM210.469 148.223C210.422 149.222 211.374 150.268 212.373 150.315C213.372 150.362 214.417 149.41 214.464 148.411C214.511 147.412 213.559 146.366 212.561 146.319C211.562 146.272 210.516 147.224 210.469 148.223Z" stroke="#70574E" stroke-opacity="0.1" stroke-width="0.5"/>
<path d="M242.683 147.486C242.596 147.319 242.557 147.128 242.574 146.94C242.93 143.051 243.859 140.367 245.367 139.362C246.267 138.762 247.53 139.244 247.93 140.249C248.489 141.656 248.057 143.499 247.301 145.81C247.176 146.193 247.293 146.611 247.571 146.903C248.86 148.259 249.422 149.884 249.509 151.23C249.586 152.421 248.676 153.62 247.504 153.392C245.862 153.073 244.468 150.897 242.683 147.486Z" stroke="#70574E" stroke-opacity="0.1" stroke-width="0.5"/>
<path d="M218.898 33.9847C223.457 28.5782 224.656 25.0579 224.932 18.9805M228.132 36.3562C231.533 32.33 233.062 29.2037 232.994 24.566M223.535 35.0718C227.288 31.0595 228.868 27.4854 229.197 21.8473M237.162 38.1281C239.291 35.5367 240.461 33.4352 240.596 30.1937M232.811 37.2461C235.739 33.9905 236.879 31.4584 236.705 27.4084M242.419 36.374C233.378 31.138 220.513 26.2763 218.568 25.5927" stroke="#70574E" stroke-opacity="0.1" stroke-width="1.5" stroke-linecap="round"/>
<path fill-rule="evenodd" clip-rule="evenodd" d="M220.489 15.8964C220.955 15.9504 221.308 16.3398 221.324 16.8088C221.544 23.5537 219.186 28.1427 215.247 32.6491C214.943 32.9971 214.434 33.0844 214.038 32.8457C210.035 30.4319 207.585 26.8471 206.693 22.9813C206.341 21.455 207.016 19.8924 208.307 19.0054C211.78 16.6198 215.799 15.3535 220.489 15.8964ZM212.715 19.9366C212.165 20.7715 212.449 22.1568 213.284 22.7073C214.119 23.2578 215.504 22.9734 216.055 22.1386C216.605 21.3037 216.321 19.9184 215.486 19.3679C214.651 18.8174 213.266 19.1018 212.715 19.9366Z" fill="#70574E" fill-opacity="0.1"/>
<path d="M240.789 35.7538C240.799 35.5655 240.863 35.381 240.974 35.2282C243.266 32.066 245.435 30.2331 247.245 30.1391C248.325 30.0829 249.166 31.142 248.996 32.2104C248.758 33.7061 247.445 35.0701 245.616 36.6703C245.312 36.9359 245.2 37.3553 245.289 37.7486C245.705 39.5718 245.358 41.2563 244.746 42.4579C244.204 43.5214 242.809 44.0876 241.917 43.2932C240.669 42.1805 240.581 39.5973 240.789 35.7538Z" fill="#70574E" fill-opacity="0.1"/>
<path fill-rule="evenodd" clip-rule="evenodd" d="M220.489 15.8964C220.955 15.9504 221.308 16.3398 221.324 16.8088C221.544 23.5537 219.186 28.1427 215.247 32.6491C214.943 32.9971 214.434 33.0844 214.038 32.8457C210.035 30.4319 207.585 26.8471 206.693 22.9813C206.341 21.455 207.016 19.8924 208.307 19.0054C211.78 16.6198 215.799 15.3535 220.489 15.8964ZM212.715 19.9366C212.165 20.7715 212.449 22.1568 213.284 22.7073C214.119 23.2578 215.504 22.9734 216.055 22.1386C216.605 21.3037 216.321 19.9184 215.486 19.3679C214.651 18.8174 213.266 19.1018 212.715 19.9366Z" stroke="#70574E" stroke-opacity="0.1" stroke-width="0.5"/>
<path d="M240.789 35.7538C240.799 35.5655 240.863 35.381 240.974 35.2282C243.266 32.066 245.435 30.2331 247.245 30.1391C248.325 30.0829 249.166 31.142 248.996 32.2104C248.758 33.7061 247.445 35.0701 245.616 36.6703C245.312 36.9359 245.2 37.3553 245.289 37.7486C245.705 39.5718 245.358 41.2563 244.746 42.4579C244.204 43.5214 242.809 44.0876 241.917 43.2932C240.669 42.1805 240.581 39.5973 240.789 35.7538Z" stroke="#70574E" stroke-opacity="0.1" stroke-width="0.5"/>
<path d="M97.4913 39.3307C92.2227 34.6127 90.5441 31.2939 89.4238 25.3143M88.6774 42.9665C84.7485 39.4537 82.7986 36.5711 82.2191 31.9692M93.0503 41.0538C88.7747 37.6039 86.7123 34.2848 85.6007 28.7477M79.9825 45.98C77.5132 43.7106 76.0619 41.7928 75.4763 38.6018M84.1683 44.5C80.8153 41.6843 79.3331 39.336 78.9409 35.3012M74.5324 44.9759C82.7549 38.5306 94.8168 31.9228 96.6475 30.9748" stroke="#70574E" stroke-opacity="0.1" stroke-width="1.5" stroke-linecap="round"/>
<path fill-rule="evenodd" clip-rule="evenodd" d="M93.3941 21.6409C92.94 21.7593 92.6443 22.1942 92.6945 22.6608C93.4162 29.3705 96.3911 33.586 100.92 37.4992C101.27 37.8014 101.786 37.8169 102.144 37.5253C105.772 34.577 107.698 30.6857 108.042 26.7334C108.178 25.1728 107.292 23.7195 105.89 23.0212C102.119 21.1431 97.9619 20.4495 93.3941 21.6409ZM101.655 24.5579C102.316 25.3079 102.228 26.7193 101.478 27.3808C100.728 28.0423 99.3165 27.9539 98.655 27.2039C97.9935 26.454 98.082 25.0425 98.8319 24.381C99.5819 23.7195 100.993 23.808 101.655 24.5579Z" fill="#70574E" fill-opacity="0.1"/>
<path d="M76.0605 44.1344C76.0242 43.9494 75.9347 43.7756 75.8038 43.6398C73.0933 40.8281 70.6896 39.3155 68.8848 39.4746C67.8072 39.5696 67.1226 40.7355 67.4397 41.7698C67.8835 43.2177 69.3735 44.3854 71.4084 45.7149C71.7462 45.9356 71.9161 46.3352 71.8821 46.7372C71.7246 48.6005 72.3026 50.2202 73.0766 51.3247C73.7617 52.3023 75.2222 52.6684 75.9939 51.7576C77.0749 50.4817 76.8018 47.9115 76.0605 44.1344Z" fill="#70574E" fill-opacity="0.1"/>
<path fill-rule="evenodd" clip-rule="evenodd" d="M93.3941 21.6409C92.94 21.7593 92.6443 22.1942 92.6945 22.6608C93.4162 29.3705 96.3911 33.586 100.92 37.4992C101.27 37.8014 101.786 37.8169 102.144 37.5253C105.772 34.577 107.698 30.6857 108.042 26.7334C108.178 25.1728 107.292 23.7195 105.89 23.0212C102.119 21.1431 97.9619 20.4495 93.3941 21.6409ZM101.655 24.5579C102.316 25.3079 102.228 26.7193 101.478 27.3808C100.728 28.0423 99.3165 27.9539 98.655 27.2039C97.9935 26.454 98.082 25.0425 98.8319 24.381C99.5819 23.7195 100.993 23.808 101.655 24.5579Z" stroke="#70574E" stroke-opacity="0.1" stroke-width="0.5"/>
<path d="M76.0605 44.1344C76.0242 43.9494 75.9347 43.7756 75.8038 43.6398C73.0933 40.8281 70.6896 39.3155 68.8848 39.4746C67.8072 39.5696 67.1226 40.7355 67.4397 41.7698C67.8835 43.2177 69.3735 44.3854 71.4084 45.7149C71.7462 45.9356 71.9161 46.3352 71.8821 46.7372C71.7246 48.6005 72.3026 50.2202 73.0766 51.3247C73.7617 52.3023 75.2222 52.6684 75.9939 51.7576C77.0749 50.4817 76.8018 47.9115 76.0605 44.1344Z" stroke="#70574E" stroke-opacity="0.1" stroke-width="0.5"/>
<path d="M40.9296 68.0095C37.2591 61.9643 36.6172 58.301 37.2825 52.2538M31.4396 68.9276C28.7008 64.4249 27.6726 61.1001 28.4551 56.5284M36.1796 68.368C33.0907 63.8247 32.0817 60.0495 32.6268 54.4283M22.2443 69.2849C20.5409 66.3961 19.7093 64.1392 20.0761 60.9158M26.6795 69.0849C24.2892 65.4166 23.5532 62.7389 24.3502 58.7641M17.321 66.7407C27.0614 62.9624 40.5229 60.1441 42.55 59.7689" stroke="#70574E" stroke-opacity="0.1" stroke-width="1.5" stroke-linecap="round"/>
<path fill-rule="evenodd" clip-rule="evenodd" d="M42.1488 49.8924C41.6799 49.8738 41.2706 50.2039 41.1831 50.665C39.9242 57.295 41.5461 62.1929 44.7427 67.2532C44.9897 67.6441 45.4786 67.8087 45.9066 67.6339C50.2341 65.8668 53.2078 62.7029 54.6857 59.0211C55.2692 57.5674 54.8438 55.9194 53.7049 54.8439C50.6418 51.9509 46.8658 50.0796 42.1488 49.8924ZM49.2057 55.0837C49.6208 55.9935 49.1261 57.3183 48.2163 57.7334C47.3065 58.1485 45.9816 57.6537 45.5666 56.7439C45.1515 55.8342 45.6462 54.5093 46.556 54.0942C47.4658 53.6792 48.7906 54.1739 49.2057 55.0837Z" fill="#70574E" fill-opacity="0.1"/>
<path d="M19.0277 66.3795C19.0467 66.1918 19.0115 65.9996 18.9257 65.8316C17.1491 62.3536 15.2885 60.2079 13.5154 59.8358C12.4567 59.6137 11.4629 60.5303 11.4657 61.6121C11.4698 63.1266 12.5563 64.6768 14.1171 66.5402C14.3761 66.8494 14.4226 67.2812 14.2733 67.6559C13.5813 69.3932 13.6637 71.1109 14.0834 72.3926C14.4549 73.5271 15.7461 74.3018 16.7491 73.6544C18.1542 72.7476 18.6396 70.2089 19.0277 66.3795Z" fill="#70574E" fill-opacity="0.1"/>
<path fill-rule="evenodd" clip-rule="evenodd" d="M42.1488 49.8924C41.6799 49.8738 41.2706 50.2039 41.1831 50.665C39.9242 57.295 41.5461 62.1929 44.7427 67.2532C44.9897 67.6441 45.4786 67.8087 45.9066 67.6339C50.2341 65.8668 53.2078 62.7029 54.6857 59.0211C55.2692 57.5674 54.8438 55.9194 53.7049 54.8439C50.6418 51.9509 46.8658 50.0796 42.1488 49.8924ZM49.2057 55.0837C49.6208 55.9935 49.1261 57.3183 48.2163 57.7334C47.3065 58.1485 45.9816 57.6537 45.5666 56.7439C45.1515 55.8342 45.6462 54.5093 46.556 54.0942C47.4658 53.6792 48.7906 54.1739 49.2057 55.0837Z" stroke="#70574E" stroke-opacity="0.1" stroke-width="0.5"/>
<path d="M19.0277 66.3795C19.0467 66.1918 19.0115 65.9996 18.9257 65.8316C17.1491 62.3536 15.2885 60.2079 13.5154 59.8358C12.4567 59.6137 11.4629 60.5303 11.4657 61.6121C11.4698 63.1266 12.5563 64.6768 14.1171 66.5402C14.3761 66.8494 14.4226 67.2812 14.2733 67.6559C13.5813 69.3932 13.6637 71.1109 14.0834 72.3926C14.4549 73.5271 15.7461 74.3018 16.7491 73.6544C18.1542 72.7476 18.6396 70.2089 19.0277 66.3795Z" stroke="#70574E" stroke-opacity="0.1" stroke-width="0.5"/>
<path d="M11.9859 308.928C10.4964 302.014 11.089 298.342 13.6972 292.846M2.71815 306.689C1.60415 301.538 1.72093 298.059 3.95686 293.996M7.38021 307.712C5.94874 302.407 6.23101 298.51 8.58619 293.377M-6.08752 304.016C-6.75145 300.729 -6.7984 298.324 -5.39663 295.399M-1.83118 305.279C-2.88899 301.031 -2.7079 298.259 -0.653733 294.765M-9.90673 300.001C0.533831 299.619 14.1762 301.363 16.2145 301.672" stroke="#70574E" stroke-opacity="0.1" stroke-width="1.5" stroke-linecap="round"/>
<path fill-rule="evenodd" clip-rule="evenodd" d="M19.0684 292.208C18.6314 292.037 18.1366 292.215 17.903 292.622C14.5432 298.474 14.4724 303.633 15.8366 309.461C15.9419 309.911 16.3501 310.227 16.8117 310.202C21.4793 309.949 25.3247 307.933 27.9264 304.937C28.9537 303.755 29.0911 302.058 28.3671 300.669C26.4197 296.933 23.4642 293.929 19.0684 292.208ZM24.0372 299.423C24.1316 300.419 23.2305 301.509 22.2349 301.603C21.2394 301.697 20.1495 300.796 20.0551 299.801C19.9607 298.805 20.8618 297.715 21.8574 297.621C22.8529 297.526 23.9428 298.428 24.0372 299.423Z" fill="#70574E" fill-opacity="0.1"/>
<path d="M-8.17573 300.218C-8.09634 300.047 -8.0667 299.854 -8.09279 299.667C-8.633 295.799 -9.6887 293.163 -11.2423 292.231C-12.17 291.674 -13.4092 292.215 -13.7605 293.238C-14.2524 294.67 -13.7333 296.491 -12.8684 298.763C-12.7249 299.14 -12.8223 299.563 -13.086 299.868C-14.3086 301.283 -14.793 302.933 -14.816 304.282C-14.8363 305.475 -13.8699 306.63 -12.7102 306.346C-11.0857 305.949 -9.79603 303.71 -8.17573 300.218Z" fill="#70574E" fill-opacity="0.1"/>
<path fill-rule="evenodd" clip-rule="evenodd" d="M19.0684 292.208C18.6314 292.037 18.1366 292.215 17.903 292.622C14.5432 298.474 14.4724 303.633 15.8366 309.461C15.9419 309.911 16.3501 310.227 16.8117 310.202C21.4793 309.949 25.3247 307.933 27.9264 304.937C28.9537 303.755 29.0911 302.058 28.3671 300.669C26.4197 296.933 23.4642 293.929 19.0684 292.208ZM24.0372 299.423C24.1316 300.419 23.2305 301.509 22.2349 301.603C21.2394 301.697 20.1495 300.796 20.0551 299.801C19.9607 298.805 20.8618 297.715 21.8574 297.621C22.8529 297.526 23.9428 298.428 24.0372 299.423Z" stroke="#70574E" stroke-opacity="0.1" stroke-width="0.5"/>
<path d="M-8.17573 300.218C-8.09634 300.047 -8.0667 299.854 -8.09279 299.667C-8.633 295.799 -9.6887 293.163 -11.2423 292.231C-12.17 291.674 -13.4092 292.215 -13.7605 293.238C-14.2524 294.67 -13.7333 296.491 -12.8684 298.763C-12.7249 299.14 -12.8223 299.563 -13.086 299.868C-14.3086 301.283 -14.793 302.933 -14.816 304.282C-14.8363 305.475 -13.8699 306.63 -12.7102 306.346C-11.0857 305.949 -9.79603 303.71 -8.17573 300.218Z" stroke="#70574E" stroke-opacity="0.1" stroke-width="0.5"/>
<path d="M203.685 456.178C203.412 449.11 201.927 445.701 198.037 441.023M212.107 451.709C211.908 446.443 210.932 443.102 207.758 439.72M207.845 453.857C207.915 448.363 206.675 444.658 203.12 440.269M219.974 446.936C219.802 443.586 219.251 441.245 217.167 438.759M216.164 449.215C216.135 444.837 215.272 442.197 212.415 439.321M222.678 442.098C212.469 444.319 199.686 449.392 197.788 450.197" stroke="#70574E" stroke-opacity="0.1" stroke-width="1.5" stroke-linecap="round"/>
<path fill-rule="evenodd" clip-rule="evenodd" d="M192.675 441.738C193.056 441.463 193.58 441.513 193.907 441.849C198.614 446.686 199.962 451.666 200.087 457.65C200.096 458.112 199.779 458.519 199.326 458.609C194.741 459.522 190.516 458.523 187.253 456.267C185.964 455.376 185.41 453.767 185.767 452.242C186.726 448.139 188.844 444.495 192.675 441.738ZM189.652 449.96C189.808 450.948 190.951 451.78 191.939 451.625C192.927 451.469 193.759 450.326 193.603 449.338C193.448 448.35 192.304 447.518 191.316 447.673C190.329 447.829 189.496 448.972 189.652 449.96Z" fill="#70574E" fill-opacity="0.1"/>
<path d="M221.055 442.738C220.936 442.592 220.859 442.412 220.838 442.225C220.402 438.344 220.77 435.528 222.044 434.239C222.804 433.47 224.139 433.687 224.733 434.59C225.565 435.856 225.514 437.748 225.24 440.164C225.194 440.564 225.394 440.95 225.725 441.18C227.26 442.248 228.139 443.726 228.496 445.027C228.812 446.178 228.162 447.536 226.968 447.55C225.296 447.568 223.491 445.718 221.055 442.738Z" fill="#70574E" fill-opacity="0.1"/>
<path fill-rule="evenodd" clip-rule="evenodd" d="M192.675 441.738C193.056 441.463 193.58 441.513 193.907 441.849C198.614 446.686 199.962 451.666 200.087 457.65C200.096 458.112 199.779 458.519 199.326 458.609C194.741 459.522 190.516 458.523 187.253 456.267C185.964 455.376 185.41 453.767 185.767 452.242C186.726 448.139 188.844 444.495 192.675 441.738ZM189.652 449.96C189.808 450.948 190.951 451.78 191.939 451.625C192.927 451.469 193.759 450.326 193.603 449.338C193.448 448.35 192.304 447.518 191.316 447.673C190.329 447.829 189.496 448.972 189.652 449.96Z" stroke="#70574E" stroke-opacity="0.1" stroke-width="0.5"/>
<path d="M221.055 442.738C220.936 442.592 220.859 442.412 220.838 442.225C220.402 438.344 220.77 435.528 222.044 434.239C222.804 433.47 224.139 433.687 224.733 434.59C225.565 435.856 225.514 437.748 225.24 440.164C225.194 440.564 225.394 440.95 225.725 441.18C227.26 442.248 228.139 443.726 228.496 445.027C228.812 446.178 228.162 447.536 226.968 447.55C225.296 447.568 223.491 445.718 221.055 442.738Z" stroke="#70574E" stroke-opacity="0.1" stroke-width="0.5"/>
<path d="M66.5336 417.317C61.3416 412.515 59.7166 409.17 58.6927 403.173M57.6623 420.811C53.7904 417.235 51.8872 414.321 51.3819 409.711M62.0654 418.968C57.8459 415.45 55.8372 412.098 54.8149 406.544M48.9201 423.684C46.4876 421.375 45.0674 419.434 44.5332 416.234M53.1291 422.271C49.8219 419.402 48.3777 417.03 48.0504 412.99M43.4868 422.592C51.812 416.28 63.9787 409.867 65.8244 408.949" stroke="#70574E" stroke-opacity="0.1" stroke-width="1.5" stroke-linecap="round"/>
<path fill-rule="evenodd" clip-rule="evenodd" d="M62.7216 399.564C62.2657 399.675 61.963 400.105 62.0057 400.572C62.6193 407.293 65.5261 411.555 69.9915 415.541C70.3364 415.849 70.8518 415.873 71.2152 415.587C74.8896 412.697 76.8781 408.838 77.2861 404.891C77.4472 403.333 76.5848 401.866 75.194 401.145C71.4532 399.206 67.3081 398.446 62.7216 399.564ZM70.9344 402.613C71.5837 403.374 71.4725 404.784 70.7121 405.433C69.9516 406.082 68.5417 405.971 67.8924 405.211C67.243 404.45 67.3542 403.04 68.1147 402.391C68.8752 401.742 70.285 401.853 70.9344 402.613Z" fill="#70574E" fill-opacity="0.1"/>
<path d="M45.0283 421.775C44.995 421.59 44.9082 421.414 44.7795 421.277C42.1147 418.422 39.7356 416.87 37.9285 417.001C36.8495 417.078 36.1462 418.233 36.4466 419.272C36.8671 420.727 38.3382 421.919 40.3514 423.281C40.6855 423.507 40.849 423.909 40.8086 424.31C40.6211 426.171 41.1729 427.8 41.929 428.917C42.5983 429.905 44.0528 430.295 44.839 429.396C45.9404 428.138 45.7087 425.564 45.0283 421.775Z" fill="#70574E" fill-opacity="0.1"/>
<path fill-rule="evenodd" clip-rule="evenodd" d="M62.7216 399.564C62.2657 399.675 61.963 400.105 62.0057 400.572C62.6193 407.293 65.5261 411.555 69.9915 415.541C70.3364 415.849 70.8518 415.873 71.2152 415.587C74.8896 412.697 76.8781 408.838 77.2861 404.891C77.4472 403.333 76.5848 401.866 75.194 401.145C71.4532 399.206 67.3081 398.446 62.7216 399.564ZM70.9344 402.613C71.5837 403.374 71.4725 404.784 70.7121 405.433C69.9516 406.082 68.5417 405.971 67.8924 405.211C67.243 404.45 67.3542 403.04 68.1147 402.391C68.8752 401.742 70.285 401.853 70.9344 402.613Z" stroke="#70574E" stroke-opacity="0.1" stroke-width="0.5"/>
<path d="M45.0283 421.775C44.995 421.59 44.9082 421.414 44.7795 421.277C42.1147 418.422 39.7356 416.87 37.9285 417.001C36.8495 417.078 36.1462 418.233 36.4466 419.272C36.8671 420.727 38.3382 421.919 40.3514 423.281C40.6855 423.507 40.849 423.909 40.8086 424.31C40.6211 426.171 41.1729 427.8 41.929 428.917C42.5983 429.905 44.0528 430.295 44.839 429.396C45.9404 428.138 45.7087 425.564 45.0283 421.775Z" stroke="#70574E" stroke-opacity="0.1" stroke-width="0.5"/>
<path d="M101.157 263.37C104.48 257.126 104.913 253.432 103.906 247.433M110.684 263.749C113.163 259.098 114.002 255.72 112.962 251.2M105.92 263.458C108.747 258.748 109.54 254.921 108.678 249.34M119.885 263.585C121.422 260.604 122.124 258.304 121.576 255.106M115.445 263.636C117.624 259.838 118.207 257.123 117.186 253.2M124.656 260.766C114.717 257.545 101.118 255.494 99.0728 255.234" stroke="#70574E" stroke-opacity="0.1" stroke-width="1.5" stroke-linecap="round"/>
<path fill-rule="evenodd" clip-rule="evenodd" d="M98.914 245.351C99.3811 245.305 99.8084 245.612 99.9219 246.067C101.554 252.615 100.212 257.597 97.3075 262.83C97.0831 263.235 96.6043 263.427 96.167 263.277C91.7464 261.757 88.5983 258.767 86.9143 255.175C86.2493 253.756 86.5808 252.087 87.6568 250.949C90.5512 247.887 94.2152 245.805 98.914 245.351ZM92.1624 250.933C91.7996 251.865 92.3685 253.16 93.3004 253.523C94.2322 253.886 95.5269 253.317 95.8898 252.385C96.2527 251.453 95.6837 250.158 94.7519 249.795C93.82 249.432 92.5253 250.001 92.1624 250.933Z" fill="#70574E" fill-opacity="0.1"/>
<path d="M122.932 260.502C122.902 260.315 122.926 260.122 123.003 259.949C124.579 256.376 126.315 254.128 128.065 253.656C129.109 253.375 130.153 254.233 130.212 255.314C130.293 256.826 129.296 258.435 127.844 260.384C127.602 260.707 127.581 261.141 127.751 261.507C128.54 263.202 128.555 264.922 128.209 266.225C127.902 267.379 126.657 268.225 125.619 267.636C124.165 266.81 123.536 264.303 122.932 260.502Z" fill="#70574E" fill-opacity="0.1"/>
<path fill-rule="evenodd" clip-rule="evenodd" d="M98.914 245.351C99.3811 245.305 99.8084 245.612 99.9219 246.067C101.554 252.615 100.212 257.597 97.3075 262.83C97.0831 263.235 96.6043 263.427 96.167 263.277C91.7464 261.757 88.5983 258.767 86.9143 255.175C86.2493 253.756 86.5808 252.087 87.6568 250.949C90.5512 247.887 94.2152 245.805 98.914 245.351ZM92.1624 250.933C91.7996 251.865 92.3685 253.16 93.3004 253.523C94.2322 253.886 95.5269 253.317 95.8898 252.385C96.2527 251.453 95.6837 250.158 94.7519 249.795C93.82 249.432 92.5253 250.001 92.1624 250.933Z" stroke="#70574E" stroke-opacity="0.1" stroke-width="0.5"/>
<path d="M122.932 260.502C122.902 260.315 122.926 260.122 123.003 259.949C124.579 256.376 126.315 254.128 128.065 253.656C129.109 253.375 130.153 254.233 130.212 255.314C130.293 256.826 129.296 258.435 127.844 260.384C127.602 260.707 127.581 261.141 127.751 261.507C128.54 263.202 128.555 264.922 128.209 266.225C127.902 267.379 126.657 268.225 125.619 267.636C124.165 266.81 123.536 264.303 122.932 260.502Z" stroke="#70574E" stroke-opacity="0.1" stroke-width="0.5"/>
<path d="M16.3072 190.502C19.6295 184.258 20.0629 180.564 19.0561 174.565M25.834 190.881C28.3134 186.23 29.1516 182.852 28.1114 178.332M21.0699 190.59C23.8965 185.879 24.6901 182.053 23.8274 176.472M35.0348 190.717C36.5719 187.736 37.2742 185.436 36.7254 182.238M30.5954 190.768C32.7741 186.97 33.3572 184.255 32.3364 180.332M39.8061 187.898C29.8673 184.677 16.2678 182.626 14.2227 182.366" stroke="#70574E" stroke-opacity="0.1" stroke-width="1.5" stroke-linecap="round"/>
<path fill-rule="evenodd" clip-rule="evenodd" d="M14.0639 172.483C14.531 172.437 14.9583 172.744 15.0718 173.199C16.7042 179.747 15.3623 184.729 12.4574 189.962C12.233 190.367 11.7542 190.559 11.317 190.408C6.8963 188.889 3.74824 185.899 2.06416 182.307C1.39922 180.888 1.73066 179.219 2.80675 178.081C5.70111 175.019 9.36509 172.937 14.0639 172.483ZM7.31233 178.065C6.94946 178.997 7.51842 180.292 8.45026 180.655C9.3821 181.018 10.6768 180.449 11.0397 179.517C11.4026 178.585 10.8336 177.29 9.90176 176.927C8.96992 176.564 7.67521 177.133 7.31233 178.065Z" fill="#70574E" fill-opacity="0.1"/>
<path d="M38.0817 187.634C38.052 187.447 38.0763 187.253 38.1525 187.081C39.7292 183.508 41.4653 181.26 43.2145 180.788C44.259 180.507 45.3031 181.365 45.3615 182.446C45.4432 183.958 44.4463 185.567 42.9935 187.516C42.7524 187.839 42.7304 188.273 42.9007 188.639C43.6901 190.334 43.7051 192.054 43.3586 193.357C43.052 194.511 41.8067 195.357 40.7687 194.768C39.3145 193.942 38.6861 191.435 38.0817 187.634Z" fill="#70574E" fill-opacity="0.1"/>
<path fill-rule="evenodd" clip-rule="evenodd" d="M14.0639 172.483C14.531 172.437 14.9583 172.744 15.0718 173.199C16.7042 179.747 15.3623 184.729 12.4574 189.962C12.233 190.367 11.7542 190.559 11.317 190.408C6.8963 188.889 3.74824 185.899 2.06416 182.307C1.39922 180.888 1.73066 179.219 2.80675 178.081C5.70111 175.019 9.36509 172.937 14.0639 172.483ZM7.31233 178.065C6.94946 178.997 7.51842 180.292 8.45026 180.655C9.3821 181.018 10.6768 180.449 11.0397 179.517C11.4026 178.585 10.8336 177.29 9.90176 176.927C8.96992 176.564 7.67521 177.133 7.31233 178.065Z" stroke="#70574E" stroke-opacity="0.1" stroke-width="0.5"/>
<path d="M38.0817 187.634C38.052 187.447 38.0763 187.253 38.1525 187.081C39.7292 183.508 41.4653 181.26 43.2145 180.788C44.259 180.507 45.3031 181.365 45.3615 182.446C45.4432 183.958 44.4463 185.567 42.9935 187.516C42.7524 187.839 42.7304 188.273 42.9007 188.639C43.6901 190.334 43.7051 192.054 43.3586 193.357C43.052 194.511 41.8067 195.357 40.7687 194.768C39.3145 193.942 38.6861 191.435 38.0817 187.634Z" stroke="#70574E" stroke-opacity="0.1" stroke-width="0.5"/>
<circle cx="215.5" cy="374.5" r="4.5" fill="#70574E" fill-opacity="0.1"/>
<circle cx="137.5" cy="419.5" r="4.5" fill="#70574E" fill-opacity="0.1"/>
<circle cx="85.5" cy="358.5" r="4.5" fill="#70574E" fill-opacity="0.1"/>
<circle cx="83.5" cy="299.5" r="4.5" fill="#70574E" fill-opacity="0.1"/>
<circle cx="250.5" cy="216.5" r="4.5" fill="#70574E" fill-opacity="0.1"/>
<circle cx="27.5" cy="132.5" r="4.5" fill="#70574E" fill-opacity="0.1"/>
<circle cx="250.5" cy="420.5" r="4.5" fill="#70574E" fill-opacity="0.1"/>
<circle cx="150.5" cy="313.5" r="4.5" fill="#70574E" fill-opacity="0.1"/>
<circle cx="182.5" cy="251.5" r="4.5" fill="#70574E" fill-opacity="0.1"/>
<circle cx="16.5" cy="378.5" r="4.5" fill="#70574E" fill-opacity="0.1"/>
<circle cx="32.5" cy="257.5" r="4.5" fill="#70574E" fill-opacity="0.1"/>
<circle cx="28.5" cy="17.5" r="4.5" fill="#70574E" fill-opacity="0.1"/>
<circle cx="234.5" cy="93.5" r="4.5" fill="#70574E" fill-opacity="0.1"/>
<circle cx="187.5" cy="4.5" r="4.5" fill="#70574E" fill-opacity="0.1"/>
</svg>
