<svg width="256" height="456" viewBox="0 0 256 456" fill="none" xmlns="http://www.w3.org/2000/svg">
<g clip-path="url(#clip0_7_439)">
<rect x="3" y="3" width="250" height="450" fill="#E4DCDA"/>
<path d="M150.791 365.635C151.864 358.645 153.727 355.426 158.124 351.221M142.93 360.239C143.726 355.029 145.076 351.821 148.614 348.822M146.921 362.857C147.475 357.391 149.129 353.851 153.159 349.895M135.656 354.603C136.208 351.295 137.022 349.031 139.375 346.798M139.183 357.3C139.709 352.953 140.867 350.429 144.032 347.896M133.52 349.489C143.411 352.855 155.535 359.349 157.329 360.364" stroke="#FFFBFA" stroke-width="1.5" stroke-linecap="round"/>
<path fill-rule="evenodd" clip-rule="evenodd" d="M163.369 352.54C163.022 352.224 162.496 352.214 162.133 352.511C156.907 356.781 155.001 361.576 154.198 367.507C154.136 367.965 154.405 368.406 154.845 368.547C159.296 369.974 163.607 369.462 167.106 367.591C168.488 366.853 169.221 365.317 169.04 363.761C168.553 359.576 166.863 355.715 163.369 352.54ZM165.439 361.053C165.172 362.017 163.942 362.713 162.978 362.447C162.014 362.18 161.317 360.949 161.584 359.986C161.851 359.022 163.081 358.325 164.045 358.592C165.009 358.858 165.706 360.089 165.439 361.053Z" fill="#FFFBFA"/>
<path d="M135.06 350.309C135.195 350.178 135.292 350.008 135.334 349.824C136.208 346.018 136.162 343.178 135.043 341.753C134.375 340.903 133.024 340.966 132.331 341.797C131.361 342.959 131.197 344.845 131.195 347.276C131.194 347.68 130.952 348.04 130.597 348.231C128.95 349.117 127.909 350.486 127.407 351.738C126.963 352.846 127.454 354.269 128.638 354.418C130.297 354.626 132.301 352.994 135.06 350.309Z" fill="#FFFBFA"/>
<path fill-rule="evenodd" clip-rule="evenodd" d="M163.369 352.54C163.022 352.224 162.496 352.214 162.133 352.511C156.907 356.781 155.001 361.576 154.198 367.507C154.136 367.965 154.405 368.406 154.845 368.547C159.296 369.974 163.607 369.462 167.106 367.591C168.488 366.853 169.221 365.317 169.04 363.761C168.553 359.576 166.863 355.715 163.369 352.54ZM165.439 361.053C165.172 362.017 163.942 362.713 162.978 362.447C162.014 362.18 161.317 360.949 161.584 359.986C161.851 359.022 163.081 358.325 164.045 358.592C165.009 358.858 165.706 360.089 165.439 361.053Z" stroke="#FFFBFA" stroke-width="0.5"/>
<path d="M135.06 350.309C135.195 350.178 135.292 350.008 135.334 349.824C136.208 346.018 136.162 343.178 135.043 341.753C134.375 340.903 133.024 340.966 132.331 341.797C131.361 342.959 131.197 344.845 131.195 347.276C131.194 347.68 130.952 348.04 130.597 348.231C128.95 349.117 127.909 350.486 127.407 351.738C126.963 352.846 127.454 354.269 128.638 354.418C130.297 354.626 132.301 352.994 135.06 350.309Z" stroke="#FFFBFA" stroke-width="0.5"/>
<path d="M220.793 304.996C217.389 298.797 214.536 296.411 208.964 293.968M226.328 297.233C223.795 292.611 221.428 290.06 217.076 288.455M223.476 301.06C221.082 296.115 218.316 293.355 213.173 291.02M231.23 289.444C229.577 286.526 228.038 284.678 225.062 283.386M228.841 293.187C226.857 289.284 224.905 287.309 221.063 286.015M231.484 283.908C223.346 290.46 214.182 300.715 212.844 302.284" stroke="#FFFBFA" stroke-width="1.5" stroke-linecap="round"/>
<path fill-rule="evenodd" clip-rule="evenodd" d="M204.488 297.004C204.706 296.589 205.197 296.399 205.64 296.554C212.012 298.774 215.446 302.625 218.234 307.922C218.449 308.331 218.347 308.837 217.982 309.12C214.29 311.987 210.064 312.983 206.136 312.425C204.585 312.204 203.37 311.013 203.007 309.489C202.03 305.39 202.295 301.184 204.488 297.004ZM205.461 305.711C206.042 306.525 207.437 306.758 208.251 306.177C209.065 305.596 209.298 304.201 208.717 303.387C208.136 302.573 206.741 302.34 205.927 302.921C205.114 303.502 204.88 304.897 205.461 305.711Z" fill="#FFFBFA"/>
<path d="M230.319 285.207C230.147 285.129 229.998 285.003 229.895 284.845C227.769 281.569 226.839 278.885 227.402 277.163C227.739 276.135 229.029 275.732 229.965 276.274C231.275 277.034 232.076 278.75 232.91 281.033C233.049 281.411 233.4 281.667 233.799 281.725C235.65 281.993 237.097 282.922 237.998 283.926C238.795 284.815 238.821 286.32 237.76 286.866C236.272 287.63 233.83 286.783 230.319 285.207Z" fill="#FFFBFA"/>
<path fill-rule="evenodd" clip-rule="evenodd" d="M204.488 297.004C204.706 296.589 205.197 296.399 205.64 296.554C212.012 298.774 215.446 302.625 218.234 307.922C218.449 308.331 218.347 308.837 217.982 309.12C214.29 311.987 210.064 312.983 206.136 312.425C204.585 312.204 203.37 311.013 203.007 309.489C202.03 305.39 202.295 301.184 204.488 297.004ZM205.461 305.711C206.042 306.525 207.437 306.758 208.251 306.177C209.065 305.596 209.298 304.201 208.717 303.387C208.136 302.573 206.741 302.34 205.927 302.921C205.114 303.502 204.88 304.897 205.461 305.711Z" stroke="#FFFBFA" stroke-width="0.5"/>
<path d="M230.319 285.207C230.147 285.129 229.998 285.003 229.895 284.845C227.769 281.569 226.839 278.885 227.402 277.163C227.739 276.135 229.029 275.732 229.965 276.274C231.275 277.034 232.076 278.75 232.91 281.033C233.049 281.411 233.4 281.667 233.799 281.725C235.65 281.993 237.097 282.922 237.998 283.926C238.795 284.815 238.821 286.32 237.76 286.866C236.272 287.63 233.83 286.783 230.319 285.207Z" stroke="#FFFBFA" stroke-width="0.5"/>
<path d="M230.348 177.419C233.617 171.148 234.019 167.45 232.962 161.459M239.878 177.717C242.317 173.046 243.127 169.661 242.049 165.15M235.111 177.467C237.898 172.733 238.659 168.9 237.749 163.326M249.077 177.475C250.588 174.482 251.271 172.175 250.695 168.983M244.638 177.564C246.784 173.748 247.344 171.028 246.29 167.114M253.824 174.616C243.858 171.48 230.242 169.544 228.195 169.301" stroke="#FFFBFA" stroke-width="1.5" stroke-linecap="round"/>
<path fill-rule="evenodd" clip-rule="evenodd" d="M227.952 159.419C228.419 159.37 228.849 159.673 228.966 160.128C230.654 166.662 229.354 171.655 226.494 176.912C226.273 177.318 225.795 177.515 225.357 177.368C220.924 175.886 217.75 172.923 216.036 169.345C215.359 167.932 215.676 166.26 216.743 165.113C219.611 162.027 223.257 159.913 227.952 159.419ZM221.248 165.059C220.893 165.994 221.473 167.284 222.408 167.639C223.343 167.994 224.633 167.414 224.987 166.479C225.342 165.544 224.763 164.254 223.828 163.899C222.893 163.544 221.603 164.124 221.248 165.059Z" fill="#FFFBFA"/>
<path d="M252.097 174.367C252.066 174.181 252.089 173.986 252.163 173.813C253.71 170.227 255.427 167.965 257.172 167.478C258.214 167.187 259.265 168.037 259.333 169.117C259.427 170.628 258.444 172.246 257.008 174.207C256.77 174.533 256.751 174.967 256.925 175.331C257.728 177.019 257.758 178.739 257.423 180.045C257.126 181.201 255.888 182.058 254.845 181.478C253.383 180.664 252.734 178.163 252.097 174.367Z" fill="#FFFBFA"/>
<path fill-rule="evenodd" clip-rule="evenodd" d="M227.952 159.419C228.419 159.37 228.849 159.673 228.966 160.128C230.654 166.662 229.354 171.655 226.494 176.912C226.273 177.318 225.795 177.515 225.357 177.368C220.924 175.886 217.75 172.923 216.036 169.345C215.359 167.932 215.676 166.26 216.743 165.113C219.611 162.027 223.257 159.913 227.952 159.419ZM221.248 165.059C220.893 165.994 221.473 167.284 222.408 167.639C223.343 167.994 224.633 167.414 224.987 166.479C225.342 165.544 224.763 164.254 223.828 163.899C222.893 163.544 221.603 164.124 221.248 165.059Z" stroke="#FFFBFA" stroke-width="0.5"/>
<path d="M252.097 174.367C252.066 174.181 252.089 173.986 252.163 173.813C253.71 170.227 255.427 167.965 257.172 167.478C258.214 167.187 259.265 168.037 259.333 169.117C259.427 170.628 258.444 172.246 257.008 174.207C256.77 174.533 256.751 174.967 256.925 175.331C257.728 177.019 257.758 178.739 257.423 180.045C257.126 181.201 255.888 182.058 254.845 181.478C253.383 180.664 252.734 178.163 252.097 174.367Z" stroke="#FFFBFA" stroke-width="0.5"/>
<path d="M221.898 36.9847C226.457 31.5782 227.656 28.0579 227.932 21.9805M231.132 39.3562C234.533 35.33 236.062 32.2037 235.994 27.566M226.535 38.0718C230.288 34.0595 231.868 30.4854 232.197 24.8473M240.162 41.1281C242.291 38.5367 243.461 36.4352 243.596 33.1937M235.811 40.2461C238.739 36.9905 239.879 34.4584 239.705 30.4084M245.419 39.374C236.378 34.138 223.513 29.2763 221.568 28.5927" stroke="#FFFBFA" stroke-width="1.5" stroke-linecap="round"/>
<path fill-rule="evenodd" clip-rule="evenodd" d="M223.489 18.8964C223.955 18.9504 224.308 19.3398 224.324 19.8088C224.544 26.5537 222.186 31.1427 218.247 35.6491C217.943 35.9971 217.434 36.0844 217.038 35.8457C213.035 33.4319 210.585 29.8471 209.693 25.9813C209.341 24.455 210.016 22.8924 211.307 22.0054C214.78 19.6198 218.799 18.3535 223.489 18.8964ZM215.715 22.9366C215.165 23.7715 215.449 25.1568 216.284 25.7073C217.119 26.2578 218.504 25.9734 219.055 25.1386C219.605 24.3037 219.321 22.9184 218.486 22.3679C217.651 21.8174 216.266 22.1018 215.715 22.9366Z" fill="#FFFBFA"/>
<path d="M243.789 38.7538C243.799 38.5655 243.863 38.381 243.974 38.2282C246.266 35.066 248.435 33.2331 250.245 33.1391C251.325 33.0829 252.166 34.142 251.996 35.2104C251.758 36.7061 250.445 38.0701 248.616 39.6703C248.312 39.9359 248.2 40.3553 248.289 40.7486C248.705 42.5718 248.358 44.2563 247.746 45.4579C247.204 46.5214 245.809 47.0876 244.917 46.2932C243.669 45.1805 243.581 42.5973 243.789 38.7538Z" fill="#FFFBFA"/>
<path fill-rule="evenodd" clip-rule="evenodd" d="M223.489 18.8964C223.955 18.9504 224.308 19.3398 224.324 19.8088C224.544 26.5537 222.186 31.1427 218.247 35.6491C217.943 35.9971 217.434 36.0844 217.038 35.8457C213.035 33.4319 210.585 29.8471 209.693 25.9813C209.341 24.455 210.016 22.8924 211.307 22.0054C214.78 19.6198 218.799 18.3535 223.489 18.8964ZM215.715 22.9366C215.165 23.7715 215.449 25.1568 216.284 25.7073C217.119 26.2578 218.504 25.9734 219.055 25.1386C219.605 24.3037 219.321 22.9184 218.486 22.3679C217.651 21.8174 216.266 22.1018 215.715 22.9366Z" stroke="#FFFBFA" stroke-width="0.5"/>
<path d="M243.789 38.7538C243.799 38.5655 243.863 38.381 243.974 38.2282C246.266 35.066 248.435 33.2331 250.245 33.1391C251.325 33.0829 252.166 34.142 251.996 35.2104C251.758 36.7061 250.445 38.0701 248.616 39.6703C248.312 39.9359 248.2 40.3553 248.289 40.7486C248.705 42.5718 248.358 44.2563 247.746 45.4579C247.204 46.5214 245.809 47.0876 244.917 46.2932C243.669 45.1805 243.581 42.5973 243.789 38.7538Z" stroke="#FFFBFA" stroke-width="0.5"/>
<path d="M43.9296 71.0095C40.2591 64.9643 39.6172 61.301 40.2825 55.2538M34.4396 71.9276C31.7008 67.4249 30.6726 64.1001 31.4551 59.5284M39.1796 71.368C36.0907 66.8247 35.0817 63.0495 35.6268 57.4283M25.2443 72.2849C23.5409 69.3961 22.7093 67.1392 23.0761 63.9158M29.6795 72.0849C27.2892 68.4166 26.5532 65.7389 27.3502 61.7641M20.321 69.7407C30.0614 65.9624 43.5229 63.1441 45.55 62.7689" stroke="#FFFBFA" stroke-width="1.5" stroke-linecap="round"/>
<path fill-rule="evenodd" clip-rule="evenodd" d="M45.1488 52.8924C44.6799 52.8738 44.2706 53.2039 44.1831 53.665C42.9242 60.295 44.5461 65.1929 47.7427 70.2532C47.9897 70.6441 48.4786 70.8087 48.9066 70.6339C53.2341 68.8668 56.2078 65.7029 57.6857 62.0211C58.2692 60.5674 57.8438 58.9194 56.7049 57.8439C53.6418 54.9509 49.8658 53.0796 45.1488 52.8924ZM52.2057 58.0837C52.6208 58.9935 52.1261 60.3183 51.2163 60.7334C50.3065 61.1485 48.9816 60.6537 48.5666 59.7439C48.1515 58.8342 48.6462 57.5093 49.556 57.0942C50.4658 56.6792 51.7906 57.1739 52.2057 58.0837Z" fill="#FFFBFA"/>
<path d="M22.0277 69.3795C22.0467 69.1918 22.0115 68.9996 21.9257 68.8316C20.1491 65.3536 18.2885 63.2079 16.5154 62.8358C15.4567 62.6137 14.4629 63.5303 14.4657 64.6121C14.4698 66.1266 15.5563 67.6768 17.1171 69.5402C17.3761 69.8494 17.4226 70.2812 17.2733 70.6559C16.5813 72.3932 16.6637 74.1109 17.0834 75.3926C17.4549 76.5271 18.7461 77.3018 19.7491 76.6544C21.1542 75.7476 21.6396 73.2089 22.0277 69.3795Z" fill="#FFFBFA"/>
<path fill-rule="evenodd" clip-rule="evenodd" d="M45.1488 52.8924C44.6799 52.8738 44.2706 53.2039 44.1831 53.665C42.9242 60.295 44.5461 65.1929 47.7427 70.2532C47.9897 70.6441 48.4786 70.8087 48.9066 70.6339C53.2341 68.8668 56.2078 65.7029 57.6857 62.0211C58.2692 60.5674 57.8438 58.9194 56.7049 57.8439C53.6418 54.9509 49.8658 53.0796 45.1488 52.8924ZM52.2057 58.0837C52.6208 58.9935 52.1261 60.3183 51.2163 60.7334C50.3065 61.1485 48.9816 60.6537 48.5666 59.7439C48.1515 58.8342 48.6462 57.5093 49.556 57.0942C50.4658 56.6792 51.7906 57.1739 52.2057 58.0837Z" stroke="#FFFBFA" stroke-width="0.5"/>
<path d="M22.0277 69.3795C22.0467 69.1918 22.0115 68.9996 21.9257 68.8316C20.1491 65.3536 18.2885 63.2079 16.5154 62.8358C15.4567 62.6137 14.4629 63.5303 14.4657 64.6121C14.4698 66.1266 15.5563 67.6768 17.1171 69.5402C17.3761 69.8494 17.4226 70.2812 17.2733 70.6559C16.5813 72.3932 16.6637 74.1109 17.0834 75.3926C17.4549 76.5271 18.7461 77.3018 19.7491 76.6544C21.1542 75.7476 21.6396 73.2089 22.0277 69.3795Z" stroke="#FFFBFA" stroke-width="0.5"/>
<path d="M14.986 311.928C13.4965 305.014 14.0891 301.343 16.6973 295.846M5.71828 309.689C4.60427 304.538 4.72105 301.06 6.95699 296.996M10.3803 310.712C8.94887 305.408 9.23113 301.51 11.5863 296.377M-3.0874 307.017C-3.75132 303.729 -3.79828 301.325 -2.39651 298.399M1.16894 308.279C0.111131 304.031 0.292221 301.26 2.34639 297.765M-6.90661 303.001C3.53395 302.619 17.1763 304.363 19.2146 304.672" stroke="#FFFBFA" stroke-width="1.5" stroke-linecap="round"/>
<path fill-rule="evenodd" clip-rule="evenodd" d="M22.0684 295.208C21.6314 295.037 21.1366 295.215 20.903 295.622C17.5432 301.474 17.4724 306.634 18.8366 312.461C18.9419 312.912 19.3501 313.227 19.8117 313.202C24.4793 312.949 28.3247 310.933 30.9264 307.938C31.9537 306.755 32.0911 305.058 31.3671 303.669C29.4197 299.933 26.4642 296.929 22.0684 295.208ZM27.0372 302.423C27.1316 303.419 26.2305 304.509 25.2349 304.603C24.2394 304.697 23.1495 303.796 23.0551 302.801C22.9607 301.805 23.8618 300.715 24.8574 300.621C25.8529 300.527 26.9428 301.428 27.0372 302.423Z" fill="#FFFBFA"/>
<path d="M-5.17573 303.218C-5.09634 303.047 -5.0667 302.854 -5.09279 302.667C-5.633 298.799 -6.6887 296.163 -8.24235 295.231C-9.17003 294.674 -10.4092 295.215 -10.7605 296.238C-11.2524 297.671 -10.7333 299.491 -9.8684 301.763C-9.72487 302.14 -9.82228 302.563 -10.086 302.868C-11.3086 304.283 -11.793 305.933 -11.816 307.282C-11.8363 308.475 -10.8699 309.63 -9.7102 309.347C-8.08569 308.95 -6.79603 306.71 -5.17573 303.218Z" fill="#FFFBFA"/>
<path fill-rule="evenodd" clip-rule="evenodd" d="M22.0684 295.208C21.6314 295.037 21.1366 295.215 20.903 295.622C17.5432 301.474 17.4724 306.634 18.8366 312.461C18.9419 312.912 19.3501 313.227 19.8117 313.202C24.4793 312.949 28.3247 310.933 30.9264 307.938C31.9537 306.755 32.0911 305.058 31.3671 303.669C29.4197 299.933 26.4642 296.929 22.0684 295.208ZM27.0372 302.423C27.1316 303.419 26.2305 304.509 25.2349 304.603C24.2394 304.697 23.1495 303.796 23.0551 302.801C22.9607 301.805 23.8618 300.715 24.8574 300.621C25.8529 300.527 26.9428 301.428 27.0372 302.423Z" stroke="#FFFBFA" stroke-width="0.5"/>
<path d="M-5.17573 303.218C-5.09634 303.047 -5.0667 302.854 -5.09279 302.667C-5.633 298.799 -6.6887 296.163 -8.24235 295.231C-9.17003 294.674 -10.4092 295.215 -10.7605 296.238C-11.2524 297.671 -10.7333 299.491 -9.8684 301.763C-9.72487 302.14 -9.82228 302.563 -10.086 302.868C-11.3086 304.283 -11.793 305.933 -11.816 307.282C-11.8363 308.475 -10.8699 309.63 -9.7102 309.347C-8.08569 308.95 -6.79603 306.71 -5.17573 303.218Z" stroke="#FFFBFA" stroke-width="0.5"/>
<path d="M202.684 446.178C202.412 439.111 200.927 435.701 197.037 431.024M211.107 441.709C210.908 436.443 209.932 433.102 206.758 429.721M206.844 443.857C206.915 438.363 205.675 434.658 202.12 430.27M218.974 436.936C218.802 433.586 218.251 431.245 216.167 428.759M215.164 439.215C215.135 434.837 214.272 432.197 211.415 429.321M221.678 432.098C211.469 434.319 198.686 439.392 196.788 440.197" stroke="#FFFBFA" stroke-width="1.5" stroke-linecap="round"/>
<path fill-rule="evenodd" clip-rule="evenodd" d="M191.675 431.738C192.056 431.464 192.579 431.513 192.907 431.85C197.614 436.686 198.962 441.666 199.087 447.65C199.096 448.112 198.779 448.519 198.326 448.609C193.741 449.522 189.516 448.523 186.252 446.267C184.964 445.376 184.41 443.767 184.767 442.242C185.726 438.139 187.844 434.496 191.675 431.738ZM188.652 439.96C188.807 440.948 189.951 441.78 190.939 441.625C191.926 441.469 192.759 440.326 192.603 439.338C192.448 438.35 191.304 437.518 190.316 437.673C189.329 437.829 188.496 438.972 188.652 439.96Z" fill="#FFFBFA"/>
<path d="M220.055 432.738C219.935 432.592 219.859 432.412 219.838 432.225C219.401 428.344 219.77 425.528 221.044 424.239C221.804 423.47 223.139 423.687 223.733 424.591C224.565 425.856 224.514 427.748 224.24 430.164C224.194 430.565 224.393 430.95 224.725 431.181C226.26 432.248 227.139 433.726 227.496 435.027C227.811 436.178 227.162 437.536 225.968 437.55C224.296 437.568 222.491 435.718 220.055 432.738Z" fill="#FFFBFA"/>
<path fill-rule="evenodd" clip-rule="evenodd" d="M191.675 431.738C192.056 431.464 192.579 431.513 192.907 431.85C197.614 436.686 198.962 441.666 199.087 447.65C199.096 448.112 198.779 448.519 198.326 448.609C193.741 449.522 189.516 448.523 186.252 446.267C184.964 445.376 184.41 443.767 184.767 442.242C185.726 438.139 187.844 434.496 191.675 431.738ZM188.652 439.96C188.807 440.948 189.951 441.78 190.939 441.625C191.926 441.469 192.759 440.326 192.603 439.338C192.448 438.35 191.304 437.518 190.316 437.673C189.329 437.829 188.496 438.972 188.652 439.96Z" stroke="#FFFBFA" stroke-width="0.5"/>
<path d="M220.055 432.738C219.935 432.592 219.859 432.412 219.838 432.225C219.401 428.344 219.77 425.528 221.044 424.239C221.804 423.47 223.139 423.687 223.733 424.591C224.565 425.856 224.514 427.748 224.24 430.164C224.194 430.565 224.393 430.95 224.725 431.181C226.26 432.248 227.139 433.726 227.496 435.027C227.811 436.178 227.162 437.536 225.968 437.55C224.296 437.568 222.491 435.718 220.055 432.738Z" stroke="#FFFBFA" stroke-width="0.5"/>
<path d="M69.5336 420.317C64.3416 415.515 62.7166 412.17 61.6927 406.173M60.6623 423.811C56.7904 420.235 54.8872 417.321 54.3819 412.711M65.0654 421.969C60.8459 418.45 58.8372 415.098 57.8149 409.544M51.9201 426.684C49.4876 424.375 48.0674 422.434 47.5332 419.234M56.1291 425.271C52.8219 422.402 51.3777 420.03 51.0504 415.99M46.4868 425.592C54.812 419.28 66.9787 412.867 68.8244 411.949" stroke="#FFFBFA" stroke-width="1.5" stroke-linecap="round"/>
<path fill-rule="evenodd" clip-rule="evenodd" d="M65.7216 402.564C65.2657 402.675 64.963 403.105 65.0057 403.572C65.6193 410.293 68.5261 414.556 72.9915 418.541C73.3364 418.849 73.8518 418.873 74.2152 418.587C77.8896 415.697 79.8781 411.838 80.2861 407.891C80.4472 406.333 79.5848 404.866 78.194 404.145C74.4532 402.206 70.3081 401.446 65.7216 402.564ZM73.9344 405.613C74.5837 406.374 74.4725 407.784 73.7121 408.433C72.9516 409.082 71.5417 408.971 70.8924 408.211C70.243 407.45 70.3542 406.04 71.1147 405.391C71.8752 404.742 73.285 404.853 73.9344 405.613Z" fill="#FFFBFA"/>
<path d="M48.0283 424.775C47.995 424.59 47.9082 424.415 47.7795 424.277C45.1147 421.422 42.7356 419.871 40.9285 420.001C39.8495 420.078 39.1462 421.233 39.4466 422.272C39.8671 423.727 41.3382 424.919 43.3514 426.281C43.6855 426.507 43.849 426.909 43.8086 427.311C43.6211 429.171 44.1729 430.8 44.929 431.917C45.5983 432.905 47.0528 433.295 47.839 432.396C48.9404 431.138 48.7087 428.564 48.0283 424.775Z" fill="#FFFBFA"/>
<path fill-rule="evenodd" clip-rule="evenodd" d="M65.7216 402.564C65.2657 402.675 64.963 403.105 65.0057 403.572C65.6193 410.293 68.5261 414.556 72.9915 418.541C73.3364 418.849 73.8518 418.873 74.2152 418.587C77.8896 415.697 79.8781 411.838 80.2861 407.891C80.4472 406.333 79.5848 404.866 78.194 404.145C74.4532 402.206 70.3081 401.446 65.7216 402.564ZM73.9344 405.613C74.5837 406.374 74.4725 407.784 73.7121 408.433C72.9516 409.082 71.5417 408.971 70.8924 408.211C70.243 407.45 70.3542 406.04 71.1147 405.391C71.8752 404.742 73.285 404.853 73.9344 405.613Z" stroke="#FFFBFA" stroke-width="0.5"/>
<path d="M48.0283 424.775C47.995 424.59 47.9082 424.415 47.7795 424.277C45.1147 421.422 42.7356 419.871 40.9285 420.001C39.8495 420.078 39.1462 421.233 39.4466 422.272C39.8671 423.727 41.3382 424.919 43.3514 426.281C43.6855 426.507 43.849 426.909 43.8086 427.311C43.6211 429.171 44.1729 430.8 44.929 431.917C45.5983 432.905 47.0528 433.295 47.839 432.396C48.9404 431.138 48.7087 428.564 48.0283 424.775Z" stroke="#FFFBFA" stroke-width="0.5"/>
<path d="M121.862 258.926C118.251 252.845 117.646 249.175 118.371 243.135M112.363 259.75C109.669 255.22 108.674 251.885 109.502 247.322M117.108 259.238C114.065 254.664 113.093 250.879 113.694 245.263M103.165 260.016C101.49 257.11 100.681 254.845 101.08 251.626M107.602 259.86C105.248 256.168 104.539 253.483 105.375 249.517M98.2669 257.423C108.044 253.742 121.533 251.057 123.564 250.702" stroke="#FFFBFA" stroke-width="1.5" stroke-linecap="round"/>
<path fill-rule="evenodd" clip-rule="evenodd" d="M123.261 240.822C122.792 240.799 122.38 241.125 122.288 241.585C120.963 248.202 122.536 253.116 125.682 258.208C125.925 258.601 126.412 258.771 126.842 258.6C131.187 256.876 134.192 253.742 135.706 250.075C136.304 248.627 135.895 246.975 134.767 245.888C131.733 242.965 127.976 241.056 123.261 240.822ZM130.266 246.083C130.672 246.997 130.164 248.317 129.25 248.723C128.336 249.129 127.016 248.621 126.61 247.707C126.204 246.794 126.712 245.474 127.626 245.068C128.54 244.662 129.86 245.169 130.266 246.083Z" fill="#FFFBFA"/>
<path d="M99.9771 257.079C99.998 256.891 99.9646 256.699 99.8805 256.53C98.1386 253.034 96.2994 250.87 94.5301 250.48C93.4736 250.248 92.4707 251.154 92.4629 252.236C92.4519 253.751 93.5229 255.312 95.0651 257.19C95.3211 257.502 95.3633 257.934 95.2102 258.308C94.5009 260.038 94.5663 261.756 94.9732 263.042C95.3334 264.18 96.6168 264.968 97.6262 264.331C99.0403 263.438 99.5509 260.904 99.9771 257.079Z" fill="#FFFBFA"/>
<path fill-rule="evenodd" clip-rule="evenodd" d="M123.261 240.822C122.792 240.799 122.38 241.125 122.288 241.585C120.963 248.202 122.536 253.116 125.682 258.208C125.925 258.601 126.412 258.771 126.842 258.6C131.187 256.876 134.192 253.742 135.706 250.075C136.304 248.627 135.895 246.975 134.767 245.888C131.733 242.965 127.976 241.056 123.261 240.822ZM130.266 246.083C130.672 246.997 130.164 248.317 129.25 248.723C128.336 249.129 127.016 248.621 126.61 247.707C126.204 246.794 126.712 245.474 127.626 245.068C128.54 244.662 129.86 245.169 130.266 246.083Z" stroke="#FFFBFA" stroke-width="0.5"/>
<path d="M99.9771 257.079C99.998 256.891 99.9646 256.699 99.8805 256.53C98.1386 253.034 96.2994 250.87 94.5301 250.48C93.4736 250.248 92.4707 251.154 92.4629 252.236C92.4519 253.751 93.5229 255.312 95.0651 257.19C95.3211 257.502 95.3633 257.934 95.2102 258.308C94.5009 260.038 94.5663 261.756 94.9732 263.042C95.3334 264.18 96.6168 264.968 97.6262 264.331C99.0403 263.438 99.5509 260.904 99.9771 257.079Z" stroke="#FFFBFA" stroke-width="0.5"/>
<path d="M158.267 87.0588C160.676 80.4091 163.127 77.6123 168.255 74.3393M151.602 80.2413C153.393 75.2846 155.338 72.399 159.391 70.1423M155.01 83.5831C156.613 78.3282 158.921 75.1752 163.642 72.0756M145.559 73.3018C146.741 70.1635 147.978 68.1007 150.719 66.3655M148.495 76.6316C149.854 72.4695 151.479 70.2173 155.075 68.3462M144.454 67.8711C153.504 73.0905 164.14 81.8106 165.703 83.1545" stroke="#FFFBFA" stroke-width="1.5" stroke-linecap="round"/>
<path fill-rule="evenodd" clip-rule="evenodd" d="M173.146 76.6497C172.866 76.2727 172.353 76.1609 171.938 76.3818C165.984 79.5579 163.185 83.8922 161.247 89.5552C161.098 89.9926 161.276 90.4768 161.68 90.7006C165.77 92.964 170.099 93.297 173.894 92.1399C175.393 91.6831 176.41 90.3184 176.534 88.7569C176.867 84.5568 175.957 80.4418 173.146 76.6497ZM173.526 85.4021C173.078 86.2959 171.735 86.7411 170.841 86.2926C169.948 85.8441 169.502 84.5018 169.951 83.608C170.4 82.7142 171.742 82.269 172.636 82.7175C173.529 83.1661 173.975 84.5084 173.526 85.4021Z" fill="#FFFBFA"/>
<path d="M145.805 68.9743C145.964 68.8714 146.091 68.7234 146.168 68.5513C147.764 64.9867 148.269 62.1919 147.447 60.5773C146.956 59.6132 145.619 59.4136 144.778 60.0941C143.601 61.0468 143.075 62.8652 142.601 65.2494C142.523 65.6451 142.216 65.952 141.83 66.0707C140.043 66.6207 138.756 67.7619 138.021 68.8925C137.37 69.8932 137.576 71.3847 138.709 71.7603C140.297 72.2864 142.579 71.0728 145.805 68.9743Z" fill="#FFFBFA"/>
<path fill-rule="evenodd" clip-rule="evenodd" d="M173.146 76.6497C172.866 76.2727 172.353 76.1609 171.938 76.3818C165.984 79.5579 163.185 83.8922 161.247 89.5552C161.098 89.9926 161.276 90.4768 161.68 90.7006C165.77 92.964 170.099 93.297 173.894 92.1399C175.393 91.6831 176.41 90.3184 176.534 88.7569C176.867 84.5568 175.957 80.4418 173.146 76.6497ZM173.526 85.4021C173.078 86.2959 171.735 86.7411 170.841 86.2926C169.948 85.8441 169.502 84.5018 169.951 83.608C170.4 82.7142 171.742 82.269 172.636 82.7175C173.529 83.1661 173.975 84.5084 173.526 85.4021Z" stroke="#FFFBFA" stroke-width="0.5"/>
<path d="M145.805 68.9743C145.964 68.8714 146.091 68.7234 146.168 68.5513C147.764 64.9867 148.269 62.1919 147.447 60.5773C146.956 59.6132 145.619 59.4136 144.778 60.0941C143.601 61.0468 143.075 62.8652 142.601 65.2494C142.523 65.6451 142.216 65.952 141.83 66.0707C140.043 66.6207 138.756 67.7619 138.021 68.8925C137.37 69.8932 137.576 71.3847 138.709 71.7603C140.297 72.2864 142.579 71.0728 145.805 68.9743Z" stroke="#FFFBFA" stroke-width="0.5"/>
<path d="M19.3072 193.502C22.6295 187.258 23.0629 183.565 22.0561 177.565M28.834 193.881C31.3134 189.23 32.1516 185.853 31.1114 181.333M24.0699 193.591C26.8965 188.88 27.6901 185.053 26.8274 179.472M38.0348 193.717C39.5719 190.736 40.2742 188.436 39.7254 185.238M33.5954 193.768C35.7741 189.97 36.3572 187.255 35.3364 183.332M42.8061 190.898C32.8673 187.677 19.2678 185.626 17.2227 185.366" stroke="#FFFBFA" stroke-width="1.5" stroke-linecap="round"/>
<path fill-rule="evenodd" clip-rule="evenodd" d="M17.0639 175.483C17.531 175.438 17.9583 175.744 18.0718 176.199C19.7042 182.747 18.3623 187.729 15.4574 192.963C15.233 193.367 14.7542 193.559 14.317 193.409C9.8963 191.889 6.74824 188.899 5.06416 185.307C4.39922 183.889 4.73066 182.219 5.80675 181.081C8.70111 178.019 12.3651 175.937 17.0639 175.483ZM10.3123 181.065C9.94946 181.997 10.5184 183.292 11.4503 183.655C12.3821 184.018 13.6768 183.449 14.0397 182.517C14.4026 181.585 13.8336 180.29 12.9018 179.927C11.9699 179.565 10.6752 180.134 10.3123 181.065Z" fill="#FFFBFA"/>
<path d="M41.0817 190.634C41.052 190.448 41.0763 190.254 41.1525 190.081C42.7292 186.508 44.4653 184.26 46.2145 183.788C47.259 183.507 48.3031 184.366 48.3615 185.446C48.4432 186.958 47.4463 188.567 45.9935 190.516C45.7524 190.84 45.7304 191.273 45.9007 191.639C46.6901 193.334 46.7051 195.054 46.3586 196.357C46.052 197.511 44.8067 198.357 43.7687 197.768C42.3145 196.942 41.6861 194.435 41.0817 190.634Z" fill="#FFFBFA"/>
<path fill-rule="evenodd" clip-rule="evenodd" d="M17.0639 175.483C17.531 175.438 17.9583 175.744 18.0718 176.199C19.7042 182.747 18.3623 187.729 15.4574 192.963C15.233 193.367 14.7542 193.559 14.317 193.409C9.8963 191.889 6.74824 188.899 5.06416 185.307C4.39922 183.889 4.73066 182.219 5.80675 181.081C8.70111 178.019 12.3651 175.937 17.0639 175.483ZM10.3123 181.065C9.94946 181.997 10.5184 183.292 11.4503 183.655C12.3821 184.018 13.6768 183.449 14.0397 182.517C14.4026 181.585 13.8336 180.29 12.9018 179.927C11.9699 179.565 10.6752 180.134 10.3123 181.065Z" stroke="#FFFBFA" stroke-width="0.5"/>
<path d="M41.0817 190.634C41.052 190.448 41.0763 190.254 41.1525 190.081C42.7292 186.508 44.4653 184.26 46.2145 183.788C47.259 183.507 48.3031 184.366 48.3615 185.446C48.4432 186.958 47.4463 188.567 45.9935 190.516C45.7524 190.84 45.7304 191.273 45.9007 191.639C46.6901 193.334 46.7051 195.054 46.3586 196.357C46.052 197.511 44.8067 198.357 43.7687 197.768C42.3145 196.942 41.6861 194.435 41.0817 190.634Z" stroke="#FFFBFA" stroke-width="0.5"/>
<path d="M134.723 157.595C132.927 150.754 130.74 147.747 125.93 144.022M141.979 151.41C140.645 146.311 138.969 143.261 135.138 140.646M138.282 154.429C137.162 149.051 135.149 145.701 130.729 142.186M148.627 145.047C147.734 141.815 146.689 139.648 144.116 137.672M145.4 148.097C144.424 143.829 143.01 141.439 139.599 139.249M150.219 139.739C140.733 144.116 129.35 151.836 127.672 153.033" stroke="#FFFBFA" stroke-width="1.5" stroke-linecap="round"/>
<path fill-rule="evenodd" clip-rule="evenodd" d="M120.85 145.879C121.162 145.529 121.684 145.465 122.076 145.722C127.718 149.425 130.112 153.996 131.529 159.811C131.638 160.26 131.417 160.726 130.993 160.912C126.715 162.795 122.374 162.734 118.699 161.238C117.248 160.647 116.359 159.196 116.378 157.629C116.427 153.416 117.706 149.401 120.85 145.879ZM119.677 154.561C120.043 155.492 121.339 156.057 122.27 155.692C123.201 155.326 123.766 154.03 123.4 153.099C123.035 152.168 121.738 151.603 120.807 151.969C119.877 152.334 119.311 153.631 119.677 154.561Z" fill="#FFFBFA"/>
<path d="M148.773 140.715C148.625 140.599 148.512 140.44 148.45 140.261C147.185 136.567 146.935 133.737 147.9 132.204C148.476 131.288 149.826 131.211 150.602 131.965C151.688 133.02 152.047 134.879 152.302 137.296C152.344 137.698 152.622 138.031 152.996 138.184C154.726 138.894 155.903 140.147 156.533 141.34C157.091 142.395 156.75 143.862 155.588 144.133C153.959 144.513 151.796 143.098 148.773 140.715Z" fill="#FFFBFA"/>
<path fill-rule="evenodd" clip-rule="evenodd" d="M120.85 145.879C121.162 145.529 121.684 145.465 122.076 145.722C127.718 149.425 130.112 153.996 131.529 159.811C131.638 160.26 131.417 160.726 130.993 160.912C126.715 162.795 122.374 162.734 118.699 161.238C117.248 160.647 116.359 159.196 116.378 157.629C116.427 153.416 117.706 149.401 120.85 145.879ZM119.677 154.561C120.043 155.492 121.339 156.057 122.27 155.692C123.201 155.326 123.766 154.03 123.4 153.099C123.035 152.168 121.738 151.603 120.807 151.969C119.877 152.334 119.311 153.631 119.677 154.561Z" stroke="#FFFBFA" stroke-width="0.5"/>
<path d="M148.773 140.715C148.625 140.599 148.512 140.44 148.45 140.261C147.185 136.567 146.935 133.737 147.9 132.204C148.476 131.288 149.826 131.211 150.602 131.965C151.688 133.02 152.047 134.879 152.302 137.296C152.344 137.698 152.622 138.031 152.996 138.184C154.726 138.894 155.903 140.147 156.533 141.34C157.091 142.395 156.75 143.862 155.588 144.133C153.959 144.513 151.796 143.098 148.773 140.715Z" stroke="#FFFBFA" stroke-width="0.5"/>
<circle cx="218.5" cy="377.5" r="4.5" fill="#FFFBFA"/>
<circle cx="140.5" cy="422.5" r="4.5" fill="#FFFBFA"/>
<circle cx="88.5" cy="361.5" r="4.5" fill="#FFFBFA"/>
<circle cx="86.5" cy="302.5" r="4.5" fill="#FFFBFA"/>
<circle cx="241.5" cy="223.5" r="4.5" fill="#FFFBFA"/>
<circle cx="30.5" cy="135.5" r="4.5" fill="#FFFBFA"/>
<circle cx="253.5" cy="423.5" r="4.5" fill="#FFFBFA"/>
<circle cx="153.5" cy="316.5" r="4.5" fill="#FFFBFA"/>
<circle cx="185.5" cy="254.5" r="4.5" fill="#FFFBFA"/>
<circle cx="19.5" cy="381.5" r="4.5" fill="#FFFBFA"/>
<circle cx="35.5" cy="260.5" r="4.5" fill="#FFFBFA"/>
<circle cx="31.5" cy="20.5" r="4.5" fill="#FFFBFA"/>
<circle cx="92.5" cy="200.5" r="4.5" fill="#FFFBFA"/>
<circle cx="173.5" cy="196.5" r="4.5" fill="#FFFBFA"/>
<circle cx="92.5" cy="111.5" r="4.5" fill="#FFFBFA"/>
<circle cx="114.5" cy="48.5" r="4.5" fill="#FFFBFA"/>
<circle cx="199.5" cy="135.5" r="4.5" fill="#FFFBFA"/>
<circle cx="238.5" cy="83.5" r="4.5" fill="#FFFBFA"/>
<circle cx="190.5" cy="7.5" r="4.5" fill="#FFFBFA"/>
<path d="M129.142 22.077C127.588 15.1775 128.146 11.5005 130.702 5.98008M119.854 19.9251C118.691 14.7847 118.775 11.3056 120.973 7.22105M124.525 20.9041C123.044 15.6137 123.29 11.7137 125.596 6.55876M111.023 17.3356C110.329 14.0547 110.259 11.6505 111.633 8.7117M115.291 18.5584C114.194 14.3198 114.349 11.5472 116.37 8.03316M107.167 13.3559C117.603 12.8762 131.261 14.4915 133.302 14.7813" stroke="#FFFBFA" stroke-width="1.5" stroke-linecap="round"/>
<path fill-rule="evenodd" clip-rule="evenodd" d="M136.067 5.29122C135.629 5.12425 135.136 5.3069 134.906 5.71607C131.601 11.6 131.579 16.7595 132.998 22.5743C133.107 23.0234 133.518 23.3352 133.98 23.3058C138.645 23.0087 142.471 20.9566 145.044 17.9371C146.06 16.7449 146.182 15.0472 145.445 13.665C143.463 9.94718 140.479 6.9708 136.067 5.29122ZM141.104 12.4595C141.207 13.4541 140.316 14.5525 139.322 14.6562C138.327 14.7599 137.229 13.8691 137.125 12.8745C137.021 11.8799 137.912 10.7815 138.907 10.6778C139.902 10.5741 141 11.4649 141.104 12.4595Z" fill="#FFFBFA"/>
<path d="M108.9 13.5571C108.977 13.3853 109.005 13.1918 108.977 13.0053C108.401 9.14257 107.32 6.51605 105.758 5.59868C104.825 5.05092 103.591 5.60336 103.249 6.62976C102.771 8.06666 103.307 9.88217 104.193 12.1456C104.34 12.5212 104.247 12.9453 103.986 13.253C102.777 14.6794 102.308 16.334 102.298 17.6827C102.289 18.8764 103.266 20.0219 104.423 19.7277C106.044 19.3155 107.312 17.0636 108.9 13.5571Z" fill="#FFFBFA"/>
<path fill-rule="evenodd" clip-rule="evenodd" d="M136.067 5.29122C135.629 5.12425 135.136 5.3069 134.906 5.71607C131.601 11.6 131.579 16.7595 132.998 22.5743C133.107 23.0234 133.518 23.3352 133.98 23.3058C138.645 23.0087 142.471 20.9566 145.044 17.9371C146.06 16.7449 146.182 15.0472 145.445 13.665C143.463 9.94718 140.479 6.9708 136.067 5.29122ZM141.104 12.4595C141.207 13.4541 140.316 14.5525 139.322 14.6562C138.327 14.7599 137.229 13.8691 137.125 12.8745C137.021 11.8799 137.912 10.7815 138.907 10.6778C139.902 10.5741 141 11.4649 141.104 12.4595Z" stroke="#FFFBFA" stroke-width="0.5"/>
<path d="M108.9 13.5571C108.977 13.3853 109.005 13.1918 108.977 13.0053C108.401 9.14257 107.32 6.51605 105.758 5.59868C104.825 5.05092 103.591 5.60336 103.249 6.62976C102.771 8.06666 103.307 9.88217 104.193 12.1456C104.34 12.5212 104.247 12.9453 103.986 13.253C102.777 14.6794 102.308 16.334 102.298 17.6827C102.289 18.8764 103.266 20.0219 104.423 19.7277C106.044 19.3155 107.312 17.0636 108.9 13.5571Z" stroke="#FFFBFA" stroke-width="0.5"/>
<path fill-rule="evenodd" clip-rule="evenodd" d="M16 1H3V453H254V440V1H16ZM16 14V440H241V14H16Z" fill="#FFFBFA"/>
</g>
<rect x="1.5" y="1.5" width="253" height="453" stroke="#70574E" stroke-width="3"/>
<defs>
<clipPath id="clip0_7_439">
<rect x="3" y="3" width="250" height="450" fill="white"/>
</clipPath>
</defs>
</svg>
