<svg width="100" height="109" viewBox="0 0 100 109" fill="none" xmlns="http://www.w3.org/2000/svg">
<path d="M28.1477 29.1397C26.2711 17.8126 26.2203 11.4659 28.1477 0.139771C28.531 10.3294 29.495 16.0277 33.7548 26.1397L28.1477 29.1397Z" fill="white"/>
<path d="M8.50049 58C5.07141 48.2956 3.8042 42.7456 3.64771 32.5C5.49911 40.858 7.61724 45.4442 12.8534 53.5L8.50049 58Z" fill="white"/>
<path d="M91.5005 58C95.0729 47.5613 96.5287 41.8896 96.6477 32.5C94.6051 41.4052 92.3592 45.9328 87.1476 53.5L91.5005 58Z" fill="white"/>
<path d="M72.2548 30.6398C74.4282 18.7394 74.38 12.0576 72.2548 0.139771C71.6225 11.9943 70.4878 18.0817 66.6477 27.6398L72.2548 30.6398Z" fill="white"/>
<path d="M28.1477 29.1397C26.2711 17.8126 26.2203 11.4659 28.1477 0.139771C28.531 10.3294 29.495 16.0277 33.7548 26.1397L28.1477 29.1397Z" stroke="white"/>
<path d="M8.50049 58C5.07141 48.2956 3.8042 42.7456 3.64771 32.5C5.49911 40.858 7.61724 45.4442 12.8534 53.5L8.50049 58Z" stroke="white"/>
<path d="M91.5005 58C95.0729 47.5613 96.5287 41.8896 96.6477 32.5C94.6051 41.4052 92.3592 45.9328 87.1476 53.5L91.5005 58Z" stroke="white"/>
<path d="M72.2548 30.6398C74.4282 18.7394 74.38 12.0576 72.2548 0.139771C71.6225 11.9943 70.4878 18.0817 66.6477 27.6398L72.2548 30.6398Z" stroke="white"/>
<path d="M15.4864 42.3741C12.6421 22.4417 30.6763 9.15339 50.6056 22.4416C67.6937 10.1024 84.7755 19.5941 84.7755 42.3741C95.1443 42.3741 110.188 62.0205 87.1807 85.5235C86.8544 85.8569 86.5718 86.2562 86.3721 86.6779C79.8278 100.502 73.0375 107.867 50.6056 107.867C28.4373 107.867 19.7529 98.8754 15.8013 87.0185C15.5874 86.3766 15.2137 85.7754 14.7327 85.2995C-10.7775 60.0636 5.14903 42.3741 15.4864 42.3741Z" fill="#FFFBFA" stroke="#70574E"/>
<path d="M50.6208 52.815C44.9256 52.815 42.087 58.1286 40.2262 64.0868C39.72 65.7078 38.8553 67.1951 37.679 68.4198C32.1467 74.18 29.5003 78.9343 31.1739 84.2751C32.5419 88.6403 39.5133 89.9043 47.5435 88.0669C49.561 87.6052 51.6654 87.6483 53.6777 88.1323C60.3276 89.7317 66.5353 88.7763 69.3908 85.2661C69.8943 84.6472 70.1898 83.8871 70.3343 83.1026C71.3654 77.504 68.4723 73.6778 63.4236 68.3456C62.3207 67.1808 61.5296 65.7611 61.0557 64.2286C59.1953 58.2131 56.3611 52.815 50.6208 52.815Z" fill="#70574E"/>
<path d="M46.039 34.3373C48.9332 40.3595 47.2334 47.186 42.2422 49.5848C37.251 51.9836 30.8586 49.0463 27.9643 43.0241C25.07 37.0019 26.7699 30.1754 31.7611 27.7766C36.7522 25.3778 43.1447 28.3151 46.039 34.3373Z" fill="#70574E"/>
<path d="M28.3089 56.0838C32.9645 61.1446 33.4747 68.2496 29.4486 71.9533C25.4225 75.657 18.3846 74.5569 13.7291 69.4961C9.07354 64.4354 8.56329 57.3303 12.5894 53.6266C16.6155 49.9229 23.6534 51.023 28.3089 56.0838Z" fill="#70574E"/>
<path d="M73.4075 41.7858C71.2459 48.2537 65.1464 52.044 59.7839 50.2518C54.4215 48.4597 51.8266 41.7636 53.9882 35.2958C56.1499 28.8279 62.2493 25.0375 67.6118 26.8297C72.9743 28.6219 75.5691 35.318 73.4075 41.7858Z" fill="#70574E"/>
<path d="M86.7387 69.7474C81.9623 74.5186 74.9117 75.2044 70.9908 71.2792C67.0699 67.354 67.7634 60.3041 72.5398 55.5329C77.3162 50.7618 84.3668 50.076 88.2877 54.0012C92.2086 57.9264 91.5151 64.9762 86.7387 69.7474Z" fill="#70574E"/>
</svg>
