<svg width="99" height="106" viewBox="0 0 99 106" fill="none" xmlns="http://www.w3.org/2000/svg">
<g clip-path="url(#clip0_85_2)">
<rect x="3" y="14.1154" width="50" height="89" transform="rotate(-12.8446 3 14.1154)" fill="#E4DCDA"/>
<path d="M48.0426 77.6792C47.9411 76.2672 48.1614 75.5561 48.8323 74.5399M46.2685 76.9758C46.1921 75.9237 46.3126 75.2376 46.8696 74.4948M47.1639 77.3091C47.0288 76.2178 47.1939 75.4532 47.8045 74.5019M44.5982 76.1995C44.5587 75.5294 44.6167 75.0515 44.9765 74.5109M45.4064 76.569C45.3158 75.6973 45.4293 75.1532 45.9343 74.5181M43.9537 75.2966C46.0337 75.5134 48.6887 76.2412 49.084 76.3595" stroke="#FFFBFA" stroke-width="0.3" stroke-linecap="round"/>
<path fill-rule="evenodd" clip-rule="evenodd" d="M50.4766 74.9534C50.1248 74.6553 49.5518 74.7345 49.318 75.1319C48.9058 75.8327 48.7596 76.5292 48.7612 77.2849C48.7622 77.7346 49.1893 78.1095 49.6363 78.0602C51.1507 77.8932 51.6389 75.9384 50.4766 74.9534ZM50.6974 76.1331C50.6882 76.3331 50.4791 76.5238 50.2791 76.5147C50.0792 76.5055 49.8884 76.2963 49.8976 76.0964C49.9067 75.8964 50.1159 75.7057 50.3158 75.7148C50.5158 75.724 50.7066 75.9332 50.6974 76.1331Z" fill="#FFFBFA"/>
<path d="M44.1747 75.5649C44.2724 75.4186 44.3252 75.2459 44.3194 75.0701C44.3117 74.8347 44.2901 74.6236 44.2541 74.4398C44.111 73.7078 43.209 73.914 43.3362 74.649C43.3401 74.6715 43.3443 74.6944 43.3486 74.7176C43.3925 74.9494 43.2352 75.2416 43.0987 75.434C42.6948 76.0035 43.3405 76.6141 43.7936 76.083C43.9133 75.9427 44.0388 75.7682 44.1747 75.5649Z" fill="#FFFBFA"/>
<path fill-rule="evenodd" clip-rule="evenodd" d="M50.4766 74.9534C50.1248 74.6553 49.5518 74.7345 49.318 75.1319C48.9058 75.8327 48.7596 76.5292 48.7612 77.2849C48.7622 77.7346 49.1893 78.1095 49.6363 78.0602C51.1507 77.8932 51.6389 75.9384 50.4766 74.9534ZM50.6974 76.1331C50.6882 76.3331 50.4791 76.5238 50.2791 76.5147C50.0792 76.5055 49.8884 76.2963 49.8976 76.0964C49.9067 75.8964 50.1159 75.7057 50.3158 75.7148C50.5158 75.724 50.7066 75.9332 50.6974 76.1331Z" stroke="#FFFBFA" stroke-width="0.3"/>
<path d="M44.1747 75.5649C44.2724 75.4186 44.3252 75.2459 44.3194 75.0701C44.3117 74.8347 44.2901 74.6236 44.2541 74.4398C44.111 73.7078 43.209 73.914 43.3362 74.649C43.3401 74.6715 43.3443 74.6944 43.3486 74.7176C43.3925 74.9494 43.2352 75.2416 43.0987 75.434C42.6948 76.0035 43.3405 76.6141 43.7936 76.083C43.9133 75.9427 44.0388 75.7682 44.1747 75.5649Z" stroke="#FFFBFA" stroke-width="0.3"/>
<path d="M59.0057 62.7303C58.0655 61.672 57.4025 61.3334 56.2065 61.1045M59.7404 60.969C59.0404 60.1798 58.4649 59.7872 57.5443 59.6676M59.3541 61.8427C58.667 60.9842 58.0042 60.5688 56.8968 60.3419M60.3505 59.231C59.8982 58.7349 59.5154 58.4429 58.8772 58.3232M60.0509 60.0676C59.49 59.3943 59.0211 59.0957 58.2138 59.014M60.1538 58.1393C58.8572 59.78 57.525 62.1891 57.3338 62.5548" stroke="#FFFBFA" stroke-width="0.3" stroke-linecap="round"/>
<path fill-rule="evenodd" clip-rule="evenodd" d="M55.3548 62.5706C55.3869 62.1106 55.8436 61.7556 56.2913 61.8656C57.0809 62.0595 57.6817 62.441 58.2217 62.9697C58.543 63.2843 58.5133 63.8518 58.1661 64.1375C56.9894 65.1054 55.2488 64.0905 55.3548 62.5706ZM56.0454 63.5522C56.195 63.6852 56.4776 63.6686 56.6106 63.519C56.7436 63.3694 56.727 63.0868 56.5774 62.9538C56.4278 62.8208 56.1453 62.8374 56.0123 62.987C55.8793 63.1366 55.8959 63.4192 56.0454 63.5522Z" fill="#FFFBFA"/>
<path d="M60.1916 58.4848C60.0186 58.4526 59.8581 58.3699 59.7362 58.243C59.573 58.0733 59.437 57.9104 59.3304 57.7563C58.9062 57.1429 59.6835 56.641 60.121 57.245C60.1344 57.2636 60.1479 57.2825 60.1614 57.3018C60.2968 57.495 60.6158 57.5863 60.8489 57.6229C61.5386 57.7313 61.5252 58.6198 60.8286 58.5736C60.6445 58.5613 60.432 58.5294 60.1916 58.4848Z" fill="#FFFBFA"/>
<path fill-rule="evenodd" clip-rule="evenodd" d="M55.3548 62.5706C55.3869 62.1106 55.8436 61.7556 56.2913 61.8656C57.0809 62.0595 57.6817 62.441 58.2217 62.9697C58.543 63.2843 58.5133 63.8518 58.1661 64.1375C56.9894 65.1054 55.2488 64.0905 55.3548 62.5706ZM56.0454 63.5522C56.195 63.6852 56.4776 63.6686 56.6106 63.519C56.7436 63.3694 56.727 63.0868 56.5774 62.9538C56.4278 62.8208 56.1453 62.8374 56.0123 62.987C55.8793 63.1366 55.8959 63.4192 56.0454 63.5522Z" stroke="#FFFBFA" stroke-width="0.3"/>
<path d="M60.1916 58.4848C60.0186 58.4526 59.8581 58.3699 59.7362 58.243C59.573 58.0733 59.437 57.9104 59.3304 57.7563C58.9062 57.1429 59.6835 56.641 60.121 57.245C60.1344 57.2636 60.1479 57.2825 60.1614 57.3018C60.2968 57.495 60.6158 57.5863 60.8489 57.6229C61.5386 57.7313 61.5252 58.6198 60.8286 58.5736C60.6445 58.5613 60.432 58.5294 60.1916 58.4848Z" stroke="#FFFBFA" stroke-width="0.3"/>
<path d="M55.1935 37.4078C55.5525 36.0385 55.4664 35.299 54.9934 34.1769M57.0666 37.042C57.3349 36.0218 57.3422 35.3252 56.931 34.4929M56.1253 37.2053C56.4584 36.1573 56.4364 35.3755 56.0108 34.3282M58.851 36.5854C59.0129 35.934 59.0435 35.4535 58.789 34.8561M57.9887 36.8004C58.2378 35.9601 58.2261 35.4044 57.8462 34.6874M59.6503 35.8162C57.5658 35.6476 54.8224 35.8757 54.4121 35.9194" stroke="#FFFBFA" stroke-width="0.3" stroke-linecap="round"/>
<path fill-rule="evenodd" clip-rule="evenodd" d="M53.3012 34.2818C53.7017 34.0533 54.2504 34.2363 54.4073 34.6699C54.6839 35.4344 54.6998 36.1459 54.5595 36.8885C54.476 37.3304 53.9873 37.6205 53.557 37.49C52.099 37.048 51.9777 35.0367 53.3012 34.2818ZM52.8676 35.4009C52.8399 35.5992 53.0105 35.8251 53.2087 35.8527C53.407 35.8804 53.6329 35.7098 53.6606 35.5116C53.6882 35.3134 53.5177 35.0875 53.3194 35.0598C53.1212 35.0321 52.8953 35.2027 52.8676 35.4009Z" fill="#FFFBFA"/>
<path d="M59.3838 36.0395C59.3146 35.8778 59.2944 35.6983 59.3323 35.5265C59.3831 35.2966 59.4431 35.093 59.5122 34.9189C59.7872 34.2256 60.636 34.5939 60.3761 35.293C60.3681 35.3145 60.3598 35.3362 60.3513 35.3582C60.2657 35.578 60.3667 35.8941 60.4655 36.1083C60.758 36.7423 60.0113 37.224 59.6633 36.6187C59.5714 36.4588 59.48 36.2643 59.3838 36.0395Z" fill="#FFFBFA"/>
<path fill-rule="evenodd" clip-rule="evenodd" d="M53.3012 34.2818C53.7017 34.0533 54.2504 34.2363 54.4073 34.6699C54.6839 35.4344 54.6998 36.1459 54.5595 36.8885C54.476 37.3304 53.9873 37.6205 53.557 37.49C52.099 37.048 51.9777 35.0367 53.3012 34.2818ZM52.8676 35.4009C52.8399 35.5992 53.0105 35.8251 53.2087 35.8527C53.407 35.8804 53.6329 35.7098 53.6606 35.5116C53.6882 35.3134 53.5177 35.0875 53.3194 35.0598C53.1212 35.0321 52.8953 35.2027 52.8676 35.4009Z" stroke="#FFFBFA" stroke-width="0.3"/>
<path d="M59.3838 36.0395C59.3146 35.8778 59.2944 35.6983 59.3323 35.5265C59.3831 35.2966 59.4431 35.093 59.5122 34.9189C59.7872 34.2256 60.636 34.5939 60.3761 35.293C60.3681 35.3145 60.3598 35.3362 60.3513 35.3582C60.2657 35.578 60.3667 35.8941 60.4655 36.1083C60.758 36.7423 60.0113 37.224 59.6633 36.6187C59.5714 36.4588 59.48 36.2643 59.3838 36.0395Z" stroke="#FFFBFA" stroke-width="0.3"/>
<path d="M47.2954 10.3776C47.9446 9.11959 48.0221 8.3792 47.8055 7.1809M49.2031 10.4295C49.6877 9.4924 49.8469 8.81425 49.6273 7.91219M48.2489 10.3834C48.8028 9.43334 48.952 8.66554 48.7652 7.55062M51.0442 10.3734C51.3444 9.77298 51.4792 9.31081 51.3613 8.67222M50.1558 10.3949C50.5823 9.62931 50.6922 9.08442 50.478 8.30177M51.9921 9.79719C49.9948 9.17764 47.2677 8.80135 46.8577 8.7545" stroke="#FFFBFA" stroke-width="0.3" stroke-linecap="round"/>
<path fill-rule="evenodd" clip-rule="evenodd" d="M46.1311 6.9137C46.5718 6.77817 47.0674 7.07651 47.1258 7.53389C47.2289 8.34037 47.0891 9.03815 46.79 9.73223C46.6121 10.1452 46.0719 10.3217 45.6805 10.1004C44.3541 9.3507 44.6748 7.36153 46.1311 6.9137ZM45.4637 7.91117C45.3934 8.09859 45.5106 8.35629 45.698 8.42657C45.8854 8.49685 46.1431 8.37971 46.2134 8.19229C46.2837 8.00487 46.1665 7.74717 45.9791 7.67689C45.7917 7.60661 45.534 7.72375 45.4637 7.91117Z" fill="#FFFBFA"/>
<path d="M51.6834 9.9568C51.6511 9.78388 51.6706 9.60429 51.7451 9.44494C51.8448 9.23164 51.9479 9.0461 52.0533 8.89124C52.473 8.27474 53.2209 8.81943 52.8147 9.44492C52.8022 9.46416 52.7894 9.48355 52.7763 9.50311C52.6447 9.69895 52.6743 10.0294 52.724 10.2601C52.871 10.9426 52.0371 11.2497 51.8297 10.5831C51.7749 10.407 51.7282 10.1972 51.6834 9.9568Z" fill="#FFFBFA"/>
<path fill-rule="evenodd" clip-rule="evenodd" d="M46.1311 6.9137C46.5718 6.77817 47.0674 7.07651 47.1258 7.53389C47.2289 8.34037 47.0891 9.03815 46.79 9.73223C46.6121 10.1452 46.0719 10.3217 45.6805 10.1004C44.3541 9.3507 44.6748 7.36153 46.1311 6.9137ZM45.4637 7.91117C45.3934 8.09859 45.5106 8.35629 45.698 8.42657C45.8854 8.49685 46.1431 8.37971 46.2134 8.19229C46.2837 8.00487 46.1665 7.74717 45.9791 7.67689C45.7917 7.60661 45.534 7.72375 45.4637 7.91117Z" stroke="#FFFBFA" stroke-width="0.3"/>
<path d="M51.6834 9.9568C51.6511 9.78388 51.6706 9.60429 51.7451 9.44494C51.8448 9.23164 51.9479 9.0461 52.0533 8.89124C52.473 8.27474 53.2209 8.81943 52.8147 9.44492C52.8022 9.46416 52.7894 9.48355 52.7763 9.50311C52.6447 9.69895 52.6743 10.0294 52.724 10.2601C52.871 10.9426 52.0371 11.2497 51.8297 10.5831C51.7749 10.407 51.7282 10.1972 51.6834 9.9568Z" stroke="#FFFBFA" stroke-width="0.3"/>
<path d="M14.0781 24.9368C13.0928 23.9204 12.8045 23.234 12.6653 22.0243M12.2669 25.5383C11.5321 24.7814 11.1835 24.1783 11.1328 23.2513M13.1671 25.2181C12.3621 24.4689 11.9972 23.7771 11.8535 22.6558M10.4883 26.0172C10.0274 25.5292 9.76466 25.1258 9.69281 24.4804M11.345 25.7808C10.7153 25.1712 10.4525 24.6814 10.4312 23.8703M9.41432 25.7397C11.1471 24.5689 13.6487 23.4199 14.0277 23.2565" stroke="#FFFBFA" stroke-width="0.3" stroke-linecap="round"/>
<path fill-rule="evenodd" clip-rule="evenodd" d="M14.1908 21.2842C13.7297 21.282 13.3416 21.7109 13.418 22.1656C13.5526 22.9675 13.8883 23.595 14.3753 24.1729C14.665 24.5167 15.2332 24.5294 15.5439 24.2044C16.5968 23.1031 15.7144 21.2917 14.1908 21.2842ZM15.1182 22.046C15.2397 22.2051 15.2021 22.4857 15.043 22.6072C14.8839 22.7287 14.6033 22.6911 14.4819 22.532C14.3604 22.3729 14.398 22.0923 14.557 21.9709C14.7161 21.8494 14.9967 21.887 15.1182 22.046Z" fill="#FFFBFA"/>
<path d="M9.75605 25.8032C9.73689 25.6284 9.6663 25.4621 9.5489 25.3311C9.39175 25.1558 9.23945 25.0079 9.09374 24.8902C8.51361 24.4215 7.95523 25.1592 8.52501 25.6405C8.54253 25.6553 8.56042 25.6701 8.57865 25.685C8.76124 25.8344 8.8285 26.1594 8.84765 26.3945C8.90433 27.0904 9.79139 27.1432 9.79715 26.445C9.79867 26.2606 9.78269 26.0463 9.75605 25.8032Z" fill="#FFFBFA"/>
<path fill-rule="evenodd" clip-rule="evenodd" d="M14.1908 21.2842C13.7297 21.282 13.3416 21.7109 13.418 22.1656C13.5526 22.9675 13.8883 23.595 14.3753 24.1729C14.665 24.5167 15.2332 24.5294 15.5439 24.2044C16.5968 23.1031 15.7144 21.2917 14.1908 21.2842ZM15.1182 22.046C15.2397 22.2051 15.2021 22.4857 15.043 22.6072C14.8839 22.7287 14.6033 22.6911 14.4819 22.532C14.3604 22.3729 14.398 22.0923 14.557 21.9709C14.7161 21.8494 14.9967 21.887 15.1182 22.046Z" stroke="#FFFBFA" stroke-width="0.3"/>
<path d="M9.75605 25.8032C9.73689 25.6284 9.6663 25.4621 9.5489 25.3311C9.39175 25.1558 9.23945 25.0079 9.09374 24.8902C8.51361 24.4215 7.95523 25.1592 8.52501 25.6405C8.54253 25.6553 8.56042 25.6701 8.57865 25.685C8.76124 25.8344 8.8285 26.1594 8.84765 26.3945C8.90433 27.0904 9.79139 27.1432 9.79715 26.445C9.79867 26.2606 9.78269 26.0463 9.75605 25.8032Z" stroke="#FFFBFA" stroke-width="0.3"/>
<path d="M19.15 73.2411C18.5516 71.9582 18.5039 71.2153 18.7683 70.0266M17.2417 73.2166C16.7951 72.2609 16.6631 71.5769 16.9186 70.6844M18.197 73.2087C17.6816 72.2373 17.5633 71.4641 17.7945 70.3576M15.4043 73.0869C15.1285 72.4749 15.0123 72.0077 15.1557 71.3743M16.2911 73.1439C15.8956 72.3619 15.8077 71.813 16.053 71.0396M14.4803 72.4731C16.5008 71.9341 19.2408 71.6673 19.6523 71.6369" stroke="#FFFBFA" stroke-width="0.3" stroke-linecap="round"/>
<path fill-rule="evenodd" clip-rule="evenodd" d="M20.4519 69.8266C20.017 69.6735 19.5099 69.9518 19.4332 70.4065C19.2979 71.2082 19.4096 71.911 19.6806 72.6165C19.8419 73.0362 20.3746 73.2342 20.7746 73.0288C22.1299 72.3328 21.8891 70.3324 20.4519 69.8266ZM21.0788 70.85C21.1416 71.0401 21.0142 71.2929 20.8241 71.3556C20.634 71.4183 20.3812 71.291 20.3185 71.1009C20.2558 70.9108 20.3831 70.658 20.5732 70.5953C20.7633 70.5326 21.0161 70.6599 21.0788 70.85Z" fill="#FFFBFA"/>
<path d="M14.7822 72.645C14.8214 72.4735 14.8091 72.2932 14.7411 72.131C14.65 71.9139 14.5544 71.7244 14.4553 71.5654C14.0606 70.9326 13.2915 71.4469 13.6723 72.0882C13.684 72.1079 13.6961 72.1278 13.7084 72.1479C13.832 72.3488 13.7892 72.6779 13.7303 72.9063C13.5561 73.5824 14.377 73.9227 14.611 73.2649C14.6728 73.0911 14.7279 72.8833 14.7822 72.645Z" fill="#FFFBFA"/>
<path fill-rule="evenodd" clip-rule="evenodd" d="M20.4519 69.8266C20.017 69.6735 19.5099 69.9518 19.4332 70.4065C19.2979 71.2082 19.4096 71.911 19.6806 72.6165C19.8419 73.0362 20.3746 73.2342 20.7746 73.0288C22.1299 72.3328 21.8891 70.3324 20.4519 69.8266ZM21.0788 70.85C21.1416 71.0401 21.0142 71.2929 20.8241 71.3556C20.634 71.4183 20.3812 71.291 20.3185 71.1009C20.2558 70.9108 20.3831 70.658 20.5732 70.5953C20.7633 70.5326 21.0161 70.6599 21.0788 70.85Z" stroke="#FFFBFA" stroke-width="0.3"/>
<path d="M14.7822 72.645C14.8214 72.4735 14.8091 72.2932 14.7411 72.131C14.65 71.9139 14.5544 71.7244 14.4553 71.5654C14.0606 70.9326 13.2915 71.4469 13.6723 72.0882C13.684 72.1079 13.6961 72.1278 13.7084 72.1479C13.832 72.3488 13.7892 72.6779 13.7303 72.9063C13.5561 73.5824 14.377 73.9227 14.611 73.2649C14.6728 73.0911 14.7279 72.8833 14.7822 72.645Z" stroke="#FFFBFA" stroke-width="0.3"/>
<path d="M61.754 91.0884C61.3864 89.7214 60.9448 89.122 59.9775 88.3824M63.1988 89.8416C62.9257 88.8227 62.5865 88.2142 61.8166 87.6955M62.4625 90.4504C62.2319 89.3752 61.8249 88.7072 60.9359 88.009M64.5218 88.56C64.3391 87.914 64.1273 87.4817 63.61 87.0891M63.8797 89.1743C63.6791 88.3212 63.3932 87.8445 62.7077 87.4104M64.8341 87.4956C62.9406 88.3832 60.6717 89.9422 60.3371 90.1838" stroke="#FFFBFA" stroke-width="0.3" stroke-linecap="round"/>
<path fill-rule="evenodd" clip-rule="evenodd" d="M58.5601 89.3127C58.7945 88.9156 59.3617 88.8023 59.713 89.1009C60.3325 89.6275 60.6992 90.2374 60.9458 90.9518C61.0925 91.3769 60.8121 91.8712 60.3737 91.9714C58.8884 92.3108 57.7855 90.6247 58.5601 89.3127ZM58.7388 90.4994C58.8131 90.6853 59.0733 90.7968 59.2591 90.7225C59.445 90.6482 59.5565 90.388 59.4822 90.2022C59.4079 90.0163 59.1477 89.9048 58.9619 89.9791C58.776 90.0534 58.6645 90.3136 58.7388 90.4994Z" fill="#FFFBFA"/>
<path d="M64.7134 87.8214C64.5731 87.7153 64.4665 87.5694 64.4143 87.4015C64.3443 87.1767 64.2954 86.9701 64.269 86.7847C64.1639 86.0463 65.0836 85.945 65.2047 86.6809C65.2085 86.7036 65.212 86.7265 65.2155 86.7498C65.2502 86.9832 65.4947 87.2075 65.6868 87.3445C66.2552 87.7499 65.8458 88.5386 65.2435 88.1857C65.0843 88.0924 64.9085 87.9688 64.7134 87.8214Z" fill="#FFFBFA"/>
<path fill-rule="evenodd" clip-rule="evenodd" d="M58.5601 89.3127C58.7945 88.9156 59.3617 88.8023 59.713 89.1009C60.3325 89.6275 60.6992 90.2374 60.9458 90.9518C61.0925 91.3769 60.8121 91.8712 60.3737 91.9714C58.8884 92.3108 57.7855 90.6247 58.5601 89.3127ZM58.7388 90.4994C58.8131 90.6853 59.0733 90.7968 59.2591 90.7225C59.445 90.6482 59.5565 90.388 59.4822 90.2022C59.4079 90.0163 59.1477 89.9048 58.9619 89.9791C58.776 90.0534 58.6645 90.3136 58.7388 90.4994Z" stroke="#FFFBFA" stroke-width="0.3"/>
<path d="M64.7134 87.8214C64.5731 87.7153 64.4665 87.5694 64.4143 87.4015C64.3443 87.1767 64.2954 86.9701 64.269 86.7847C64.1639 86.0463 65.0836 85.945 65.2047 86.6809C65.2085 86.7036 65.212 86.7265 65.2155 86.7498C65.2502 86.9832 65.4947 87.2075 65.6868 87.3445C66.2552 87.7499 65.8458 88.5386 65.2435 88.1857C65.0843 88.0924 64.9085 87.9688 64.7134 87.8214Z" stroke="#FFFBFA" stroke-width="0.3"/>
<path d="M34.6183 91.9665C33.3913 91.2603 32.9254 90.6798 32.4587 89.555M33.0424 93.043C32.1277 92.5175 31.6267 92.0336 31.3229 91.1563M33.8198 92.4876C32.8397 91.9887 32.2986 91.424 31.8519 90.3855M31.4642 93.9927C30.8868 93.6504 30.5232 93.3348 30.2766 92.7341M32.2228 93.5298C31.4497 93.117 31.0623 92.7184 30.8186 91.9444M30.3553 94.0214C31.6991 92.4191 33.7882 90.6263 34.1075 90.3649" stroke="#FFFBFA" stroke-width="0.3" stroke-linecap="round"/>
<path fill-rule="evenodd" clip-rule="evenodd" d="M33.7216 88.4238C33.2777 88.5485 33.0226 89.0676 33.2211 89.4838C33.5711 90.2177 34.0664 90.7286 34.6936 91.1503C35.0668 91.4011 35.6165 91.257 35.8259 90.8591C36.5351 89.5106 35.1884 88.0119 33.7216 88.4238ZM34.8228 88.9011C34.9833 89.0206 35.0244 89.3007 34.9049 89.4613C34.7853 89.6218 34.5053 89.6629 34.3447 89.5434C34.1841 89.4238 34.1431 89.1438 34.2626 88.9832C34.3821 88.8226 34.6622 88.7816 34.8228 88.9011Z" fill="#FFFBFA"/>
<path d="M30.7012 93.9885C30.6346 93.8256 30.521 93.6852 30.3721 93.5915C30.1728 93.4662 29.9857 93.366 29.8132 93.2929C29.1265 93.0018 28.7927 93.8647 29.4728 94.1706C29.4938 94.18 29.515 94.1894 29.5367 94.1987C29.7533 94.2922 29.9074 94.5861 29.9905 94.8069C30.2364 95.4603 31.1038 95.267 30.9172 94.5942C30.868 94.4165 30.7936 94.2148 30.7012 93.9885Z" fill="#FFFBFA"/>
<path fill-rule="evenodd" clip-rule="evenodd" d="M33.7216 88.4238C33.2777 88.5485 33.0226 89.0676 33.2211 89.4838C33.5711 90.2177 34.0664 90.7286 34.6936 91.1503C35.0668 91.4011 35.6165 91.257 35.8259 90.8591C36.5351 89.5106 35.1884 88.0119 33.7216 88.4238ZM34.8228 88.9011C34.9833 89.0206 35.0244 89.3007 34.9049 89.4613C34.7853 89.6218 34.5053 89.6629 34.3447 89.5434C34.1841 89.4238 34.1431 89.1438 34.2626 88.9832C34.3821 88.8226 34.6622 88.7816 34.8228 88.9011Z" stroke="#FFFBFA" stroke-width="0.3"/>
<path d="M30.7012 93.9885C30.6346 93.8256 30.521 93.6852 30.3721 93.5915C30.1728 93.4662 29.9857 93.366 29.8132 93.2929C29.1265 93.0018 28.7927 93.8647 29.4728 94.1706C29.4938 94.18 29.515 94.1894 29.5367 94.1987C29.7533 94.2922 29.9074 94.5861 29.9905 94.8069C30.2364 95.4603 31.1038 95.267 30.9172 94.5942C30.868 94.4165 30.7936 94.2148 30.7012 93.9885Z" stroke="#FFFBFA" stroke-width="0.3"/>
<path d="M37.6488 58.1418C36.6736 57.1156 36.3922 56.4265 36.265 55.2154M35.8318 58.7252C35.1045 57.9611 34.7619 57.3546 34.7204 56.4271M36.735 58.4141C35.9375 57.6569 35.5795 56.9615 35.4469 55.8388M34.0485 59.1864C33.5924 58.6939 33.3337 58.2879 33.2683 57.6418M34.9074 58.9586C34.2838 58.3428 34.0259 57.8504 34.0127 57.0391M32.9773 58.8983C34.7216 57.7448 37.2345 56.6208 37.6151 56.4611" stroke="#FFFBFA" stroke-width="0.3" stroke-linecap="round"/>
<path fill-rule="evenodd" clip-rule="evenodd" d="M37.7977 54.4905C37.3366 54.4836 36.9443 54.9087 37.0161 55.3641C37.1427 56.1673 37.4722 56.7981 37.9534 57.3808C38.2397 57.7275 38.8077 57.7458 39.1217 57.4239C40.1854 56.3331 39.3211 54.5131 37.7977 54.4905ZM38.7174 55.2614C38.8373 55.4217 38.7969 55.7019 38.6367 55.8218C38.4764 55.9417 38.1962 55.9013 38.0763 55.741C37.9564 55.5808 37.9968 55.3006 38.1571 55.1807C38.3173 55.0608 38.5975 55.1012 38.7174 55.2614Z" fill="#FFFBFA"/>
<path d="M33.3182 58.9651C33.3008 58.7901 33.2318 58.6231 33.1158 58.491C32.9604 58.3141 32.8095 58.1648 32.665 58.0456C32.0896 57.5711 31.5239 58.3032 32.0888 58.7901C32.1062 58.8051 32.124 58.8201 32.142 58.8352C32.3231 58.9865 32.3872 59.312 32.404 59.5474C32.4537 60.2438 33.3402 60.3054 33.3529 59.6073C33.3563 59.4229 33.3424 59.2084 33.3182 58.9651Z" fill="#FFFBFA"/>
<path fill-rule="evenodd" clip-rule="evenodd" d="M37.7977 54.4905C37.3366 54.4836 36.9443 54.9087 37.0161 55.3641C37.1427 56.1673 37.4722 56.7981 37.9534 57.3808C38.2397 57.7275 38.8077 57.7458 39.1217 57.4239C40.1854 56.3331 39.3211 54.5131 37.7977 54.4905ZM38.7174 55.2614C38.8373 55.4217 38.7969 55.7019 38.6367 55.8218C38.4764 55.9417 38.1962 55.9013 38.0763 55.741C37.9564 55.5808 37.9968 55.3006 38.1571 55.1807C38.3173 55.0608 38.5975 55.1012 38.7174 55.2614Z" stroke="#FFFBFA" stroke-width="0.3"/>
<path d="M33.3182 58.9651C33.3008 58.7901 33.2318 58.6231 33.1158 58.491C32.9604 58.3141 32.8095 58.1648 32.665 58.0456C32.0896 57.5711 31.5239 58.3032 32.0888 58.7901C32.1062 58.8051 32.124 58.8201 32.142 58.8352C32.3231 58.9865 32.3872 59.312 32.404 59.5474C32.4537 60.2438 33.3402 60.3054 33.3529 59.6073C33.3563 59.4229 33.3424 59.2084 33.3182 58.9651Z" stroke="#FFFBFA" stroke-width="0.3"/>
<path d="M37.1057 22.9811C37.2798 21.5762 37.6338 20.9213 38.4889 20.0544M35.5016 21.9472C35.6305 20.9002 35.8818 20.2505 36.5722 19.6298M36.3154 22.4477C36.3944 21.3509 36.7045 20.6328 37.4879 19.8179M34.0134 20.8618C34.1045 20.1968 34.2541 19.7392 34.7119 19.2785M34.7347 21.381C34.8147 20.5083 35.0315 19.9964 35.6501 19.4713M33.5562 19.8512C35.5547 20.467 38.0182 21.6955 38.3831 21.8883" stroke="#FFFBFA" stroke-width="0.3" stroke-linecap="round"/>
<path fill-rule="evenodd" clip-rule="evenodd" d="M40.022 20.779C39.7346 20.4184 39.1572 20.385 38.8508 20.7295C38.3105 21.3371 38.0321 21.9921 37.8872 22.7338C37.801 23.1751 38.1474 23.6257 38.5954 23.664C40.1135 23.7937 40.9714 21.9706 40.022 20.779ZM40.0099 21.9791C39.9622 22.1735 39.72 22.3201 39.5256 22.2723C39.3313 22.2246 39.1846 21.9824 39.2324 21.788C39.2802 21.5937 39.5223 21.447 39.7167 21.4948C39.9111 21.5426 40.0577 21.7847 40.0099 21.9791Z" fill="#FFFBFA"/>
<path d="M33.721 20.1574C33.8452 20.0328 33.9305 19.8736 33.959 19.7C33.997 19.4676 34.0167 19.2563 34.0171 19.069C34.0185 18.3232 33.0937 18.3507 33.076 19.0963C33.0755 19.1192 33.0751 19.1425 33.0749 19.166C33.073 19.402 32.862 19.6581 32.6908 19.8204C32.1843 20.3009 32.6993 21.025 33.2468 20.5918C33.3914 20.4773 33.5484 20.3305 33.721 20.1574Z" fill="#FFFBFA"/>
<path fill-rule="evenodd" clip-rule="evenodd" d="M40.022 20.779C39.7346 20.4184 39.1572 20.385 38.8508 20.7295C38.3105 21.3371 38.0321 21.9921 37.8872 22.7338C37.801 23.1751 38.1474 23.6257 38.5954 23.664C40.1135 23.7937 40.9714 21.9706 40.022 20.779ZM40.0099 21.9791C39.9622 22.1735 39.72 22.3201 39.5256 22.2723C39.3313 22.2246 39.1846 21.9824 39.2324 21.788C39.2802 21.5937 39.5223 21.447 39.7167 21.4948C39.9111 21.5426 40.0577 21.7847 40.0099 21.9791Z" stroke="#FFFBFA" stroke-width="0.3"/>
<path d="M33.721 20.1574C33.8452 20.0328 33.9305 19.8736 33.959 19.7C33.997 19.4676 34.0167 19.2563 34.0171 19.069C34.0185 18.3232 33.0937 18.3507 33.076 19.0963C33.0755 19.1192 33.0751 19.1425 33.0749 19.166C33.073 19.402 32.862 19.6581 32.6908 19.8204C32.1843 20.3009 32.6993 21.025 33.2468 20.5918C33.3914 20.4773 33.5484 20.3305 33.721 20.1574Z" stroke="#FFFBFA" stroke-width="0.3"/>
<path d="M14.7235 49.9373C15.094 48.5711 15.0142 47.8309 14.5508 46.7048M16.5995 49.5874C16.8765 48.5695 16.8897 47.873 16.4856 47.0372M15.6569 49.7427C15.9989 48.6976 15.9835 47.9156 15.5668 46.8647M18.3878 49.146C18.5551 48.4959 18.5899 48.0157 18.3405 47.4161M17.5237 49.3536C17.7799 48.5154 17.7729 47.9596 17.3991 47.2394M19.1935 48.3835C17.1106 48.1972 14.3653 48.4021 13.9546 48.4424" stroke="#FFFBFA" stroke-width="0.3" stroke-linecap="round"/>
<path fill-rule="evenodd" clip-rule="evenodd" d="M12.8578 46.7952C13.2602 46.5702 13.8073 46.7578 13.9606 47.1927C14.2307 47.9595 14.2405 48.6711 14.094 49.4125C14.0067 49.8536 13.5156 50.1396 13.0864 50.0055C11.6322 49.5511 11.528 47.5389 12.8578 46.7952ZM12.4147 47.9106C12.3854 48.1086 12.554 48.336 12.752 48.3653C12.95 48.3947 13.1774 48.226 13.2067 48.028C13.2361 47.83 13.0674 47.6027 12.8694 47.5733C12.6714 47.544 12.4441 47.7126 12.4147 47.9106Z" fill="#FFFBFA"/>
<path d="M18.9253 48.6044C18.8575 48.4421 18.8388 48.2624 18.8782 48.091C18.9309 47.8615 18.9926 47.6584 19.0632 47.4849C19.3441 46.794 20.1897 47.1695 19.9239 47.8663C19.9157 47.8877 19.9073 47.9094 19.8985 47.9313C19.811 48.1504 19.9094 48.4673 20.0064 48.6824C20.2935 49.3188 19.5427 49.7942 19.1999 49.186C19.1093 49.0253 19.0196 48.83 18.9253 48.6044Z" fill="#FFFBFA"/>
<path fill-rule="evenodd" clip-rule="evenodd" d="M12.8578 46.7952C13.2602 46.5702 13.8073 46.7578 13.9606 47.1927C14.2307 47.9595 14.2405 48.6711 14.094 49.4125C14.0067 49.8536 13.5156 50.1396 13.0864 50.0055C11.6322 49.5511 11.528 47.5389 12.8578 46.7952ZM12.4147 47.9106C12.3854 48.1086 12.554 48.336 12.752 48.3653C12.95 48.3947 13.1774 48.226 13.2067 48.028C13.2361 47.83 13.0674 47.6027 12.8694 47.5733C12.6714 47.544 12.4441 47.7126 12.4147 47.9106Z" stroke="#FFFBFA" stroke-width="0.3"/>
<path d="M18.9253 48.6044C18.8575 48.4421 18.8388 48.2624 18.8782 48.091C18.9309 47.8615 18.9926 47.6584 19.0632 47.4849C19.3441 46.794 20.1897 47.1695 19.9239 47.8663C19.9157 47.8877 19.9073 47.9094 19.8985 47.9313C19.811 48.1504 19.9094 48.4673 20.0064 48.6824C20.2935 49.3188 19.5427 49.7942 19.1999 49.186C19.1093 49.0253 19.0196 48.83 18.9253 48.6044Z" stroke="#FFFBFA" stroke-width="0.3"/>
<path d="M35.6495 37.7944C34.9948 36.5393 34.434 36.0496 33.3296 35.5368M36.7904 36.2645C36.3032 35.3288 35.8404 34.8081 34.9765 34.4683M36.2032 37.0181C35.7454 36.0183 35.2036 35.4542 34.1845 34.965M37.8046 34.7269C37.4865 34.1358 37.1862 33.7595 36.5962 33.4882M37.3107 35.4657C36.9303 34.6761 36.548 34.2726 35.7848 33.9971M37.8792 33.6202C36.2227 34.8965 34.3448 36.9095 34.0705 37.2177" stroke="#FFFBFA" stroke-width="0.3" stroke-linecap="round"/>
<path fill-rule="evenodd" clip-rule="evenodd" d="M32.1471 36.7518C32.29 36.3134 32.8192 36.08 33.2269 36.2956C33.9456 36.6756 34.4356 37.1917 34.8309 37.8358C35.0661 38.2191 34.8993 38.7624 34.493 38.955C33.1164 39.6078 31.6747 38.2003 32.1471 36.7518ZM32.5783 37.8717C32.6911 38.0371 32.9692 38.0897 33.1346 37.9769C33.3 37.8642 33.3526 37.586 33.2398 37.4207C33.127 37.2553 32.8489 37.2027 32.6835 37.3155C32.5182 37.4282 32.4655 37.7064 32.5783 37.8717Z" fill="#FFFBFA"/>
<path d="M37.832 33.9643C37.672 33.8911 37.5364 33.7718 37.449 33.6191C37.332 33.4148 37.2397 33.2237 37.1737 33.0483C36.9114 32.3502 37.7873 32.0523 38.0649 32.7446C38.0734 32.7659 38.0819 32.7875 38.0903 32.8095C38.1747 33.0299 38.4619 33.196 38.6791 33.2881C39.3218 33.5609 39.0927 34.4195 38.4282 34.2053C38.2527 34.1487 38.0543 34.0661 37.832 33.9643Z" fill="#FFFBFA"/>
<path fill-rule="evenodd" clip-rule="evenodd" d="M32.1471 36.7518C32.29 36.3134 32.8192 36.08 33.2269 36.2956C33.9456 36.6756 34.4356 37.1917 34.8309 37.8358C35.0661 38.2191 34.8993 38.7624 34.493 38.955C33.1164 39.6078 31.6747 38.2003 32.1471 36.7518ZM32.5783 37.8717C32.6911 38.0371 32.9692 38.0897 33.1346 37.9769C33.3 37.8642 33.3526 37.586 33.2398 37.4207C33.127 37.2553 32.8489 37.2027 32.6835 37.3155C32.5182 37.4282 32.4655 37.7064 32.5783 37.8717Z" stroke="#FFFBFA" stroke-width="0.3"/>
<path d="M37.832 33.9643C37.672 33.8911 37.5364 33.7718 37.449 33.6191C37.332 33.4148 37.2397 33.2237 37.1737 33.0483C36.9114 32.3502 37.7873 32.0523 38.0649 32.7446C38.0734 32.7659 38.0819 32.7875 38.0903 32.8095C38.1747 33.0299 38.4619 33.196 38.6791 33.2881C39.3218 33.5609 39.0927 34.4195 38.4282 34.2053C38.2527 34.1487 38.0543 34.0661 37.832 33.9643Z" stroke="#FFFBFA" stroke-width="0.3"/>
<path d="M28.5304 11.5957C27.9201 10.3184 27.8654 9.57598 28.1186 8.38488M26.622 11.5891C26.1664 10.6376 26.028 9.95488 26.2752 9.05998M27.5772 11.5722C27.0528 10.6057 26.9272 9.83367 27.148 8.72501M24.7835 11.4766C24.5019 10.8673 24.3814 10.4012 24.5188 9.76649M25.6708 11.5254C25.268 10.747 25.1749 10.199 25.413 9.4233M23.8537 10.8716C25.8691 10.3136 28.6065 10.0211 29.0177 9.98679" stroke="#FFFBFA" stroke-width="0.3" stroke-linecap="round"/>
<path fill-rule="evenodd" clip-rule="evenodd" d="M29.8002 8.16917C29.3639 8.02019 28.8594 8.30321 28.787 8.75857C28.6592 9.56152 28.7776 10.2633 29.0552 10.9662C29.2204 11.3844 29.7549 11.5773 30.153 11.3682C31.5017 10.6595 31.2421 8.66143 29.8002 8.16917ZM30.4367 9.18663C30.5012 9.37611 30.3762 9.6301 30.1868 9.69461C29.9973 9.75911 29.7433 9.63412 29.6788 9.44464C29.6143 9.25515 29.7393 9.00116 29.9288 8.93666C30.1182 8.87216 30.3722 8.99714 30.4367 9.18663Z" fill="#FFFBFA"/>
<path d="M24.1573 11.0406C24.1948 10.8688 24.1808 10.6887 24.1113 10.5271C24.0181 10.3109 23.9208 10.1223 23.8202 9.96424C23.4195 9.33516 22.6553 9.85667 23.0422 10.4943C23.0541 10.5139 23.0663 10.5337 23.0788 10.5537C23.2043 10.7534 23.1646 11.0829 23.1079 11.3119C22.94 11.9896 23.7641 12.3221 23.9919 11.6621C24.052 11.4878 24.1051 11.2795 24.1573 11.0406Z" fill="#FFFBFA"/>
<path fill-rule="evenodd" clip-rule="evenodd" d="M29.8002 8.16917C29.3639 8.02019 28.8594 8.30321 28.787 8.75857C28.6592 9.56152 28.7776 10.2633 29.0552 10.9662C29.2204 11.3844 29.7549 11.5773 30.153 11.3682C31.5017 10.6595 31.2421 8.66143 29.8002 8.16917ZM30.4367 9.18663C30.5012 9.37611 30.3762 9.6301 30.1868 9.69461C29.9973 9.75911 29.7433 9.63412 29.6788 9.44464C29.6143 9.25515 29.7393 9.00116 29.9288 8.93666C30.1182 8.87216 30.3722 8.99714 30.4367 9.18663Z" stroke="#FFFBFA" stroke-width="0.3"/>
<path d="M24.1573 11.0406C24.1948 10.8688 24.1808 10.6887 24.1113 10.5271C24.0181 10.3109 23.9208 10.1223 23.8202 9.96424C23.4195 9.33516 22.6553 9.85667 23.0422 10.4943C23.0541 10.5139 23.0663 10.5337 23.0788 10.5537C23.2043 10.7534 23.1646 11.0829 23.1079 11.3119C22.94 11.9896 23.7641 12.3221 23.9919 11.6621C24.052 11.4878 24.1051 11.2795 24.1573 11.0406Z" stroke="#FFFBFA" stroke-width="0.3"/>
<circle cx="61.7844" cy="76.9818" r="0.900735" transform="rotate(-12.8446 61.7844 76.9818)" fill="#FFFBFA"/>
<circle cx="48.5648" cy="89.2347" r="0.900735" transform="rotate(-12.8446 48.5648 89.2347)" fill="#FFFBFA"/>
<circle cx="35.7023" cy="79.6441" r="0.900735" transform="rotate(-12.8446 35.7023 79.6441)" fill="#FFFBFA"/>
<circle cx="32.6867" cy="68.219" r="0.900735" transform="rotate(-12.8446 32.6867 68.219)" fill="#FFFBFA"/>
<circle cx="59.4204" cy="45.9046" r="0.900735" transform="rotate(-12.8446 59.4204 45.9046)" fill="#FFFBFA"/>
<circle cx="14.3271" cy="38.12" r="0.900735" transform="rotate(-12.8446 14.3271 38.12)" fill="#FFFBFA"/>
<circle cx="70.6617" cy="84.4015" r="0.900735" transform="rotate(-12.8446 70.6617 84.4015)" fill="#FFFBFA"/>
<circle cx="46.385" cy="67.9697" r="0.900735" transform="rotate(-12.8446 46.385 67.9697)" fill="#FFFBFA"/>
<circle cx="49.8713" cy="54.4462" r="0.900735" transform="rotate(-12.8446 49.8713 54.4462)" fill="#FFFBFA"/>
<circle cx="23.1268" cy="86.6175" r="0.900735" transform="rotate(-12.8446 23.1268 86.6175)" fill="#FFFBFA"/>
<circle cx="20.8649" cy="62.2918" r="0.900735" transform="rotate(-12.8446 20.8649 62.2918)" fill="#FFFBFA"/>
<circle cx="9.40485" cy="15.6327" r="0.900735" transform="rotate(-12.8446 9.40485 15.6327)" fill="#FFFBFA"/>
<circle cx="29.3189" cy="48.0462" r="0.900735" transform="rotate(-12.8446 29.3189 48.0462)" fill="#FFFBFA"/>
<circle cx="44.9484" cy="43.6612" r="0.900735" transform="rotate(-12.8446 44.9484 43.6612)" fill="#FFFBFA"/>
<circle cx="25.3586" cy="30.6775" r="0.900735" transform="rotate(-12.8446 25.3586 30.6775)" fill="#FFFBFA"/>
<circle cx="26.8486" cy="17.4037" r="0.900735" transform="rotate(-12.8446 26.8486 17.4037)" fill="#FFFBFA"/>
<circle cx="47.3082" cy="30.6" r="0.900735" transform="rotate(-12.8446 47.3082 30.6)" fill="#FFFBFA"/>
<circle cx="52.6053" cy="18.7164" r="0.900735" transform="rotate(-12.8446 52.6053 18.7164)" fill="#FFFBFA"/>
<circle cx="39.8559" cy="6.02055" r="0.900735" transform="rotate(-12.8446 39.8559 6.02055)" fill="#FFFBFA"/>
<circle cx="26.5086" cy="101.449" r="0.900735" transform="rotate(-12.8446 26.5086 101.449)" fill="#FFFBFA"/>
<path fill-rule="evenodd" clip-rule="evenodd" d="M5.51223 12.5169L2.97522 13.0953L23.0882 101.305L72.072 90.1364L71.4935 87.5993L51.9591 1.92642L5.51223 12.5169ZM6.0907 15.0539L25.0467 98.1898L68.9565 88.1778L50.0005 5.0419L6.0907 15.0539Z" fill="#FFFBFA"/>
</g>
<rect x="1.80272" y="13.3627" width="52" height="91" transform="rotate(-12.8446 1.80272 13.3627)" stroke="#70574E" stroke-width="2"/>
<g clip-path="url(#clip1_85_2)">
<rect x="47.3856" y="5.44415" width="50" height="89" transform="rotate(13.0647 47.3856 5.44415)" fill="#E4DCDA"/>
<path d="M60.1269 82.3001C60.6526 80.9856 61.1614 80.4423 62.209 79.8213M58.8385 80.8922C59.2294 79.9124 59.6377 79.348 60.4632 78.9232M59.4982 81.5832C59.8535 80.5425 60.3361 79.927 61.301 79.338M57.6753 79.464C57.9325 78.844 58.1936 78.4395 58.7534 78.1105M58.2408 80.1496C58.5401 79.3259 58.88 78.886 59.6118 78.5354M57.4901 78.3703C59.2662 79.4742 61.3364 81.2889 61.6403 81.568" stroke="#FFFBFA" stroke-width="0.3" stroke-linecap="round"/>
<path fill-rule="evenodd" clip-rule="evenodd" d="M63.5072 80.9117C63.321 80.4899 62.771 80.3107 62.3871 80.566C61.7101 81.0162 61.2742 81.5788 60.9455 82.2593C60.7499 82.6642 60.9703 83.188 61.3938 83.339C62.829 83.8506 64.1223 82.3056 63.5072 80.9117ZM63.1903 82.0693C63.0947 82.2451 62.8232 82.3253 62.6474 82.2297C62.4715 82.1341 62.3913 81.8626 62.4869 81.6868C62.5826 81.5109 62.854 81.4307 63.0299 81.5263C63.2057 81.622 63.2859 81.8934 63.1903 82.0693Z" fill="#FFFBFA"/>
<path d="M57.5715 78.7081C57.7233 78.6192 57.8463 78.4869 57.9179 78.3262C58.0138 78.1112 58.0866 77.9118 58.1346 77.7307C58.3257 77.0098 57.4243 76.8012 57.2175 77.5178C57.2112 77.5399 57.2049 77.5623 57.1987 77.585C57.1369 77.8127 56.8677 78.0067 56.6609 78.1202C56.0488 78.456 56.3627 79.2873 57.0024 79.0076C57.1714 78.9337 57.3605 78.8316 57.5715 78.7081Z" fill="#FFFBFA"/>
<path fill-rule="evenodd" clip-rule="evenodd" d="M63.5072 80.9117C63.321 80.4899 62.771 80.3107 62.3871 80.566C61.7101 81.0162 61.2742 81.5788 60.9455 82.2593C60.7499 82.6642 60.9703 83.188 61.3938 83.339C62.829 83.8506 64.1223 82.3056 63.5072 80.9117ZM63.1903 82.0693C63.0947 82.2451 62.8232 82.3253 62.6474 82.2297C62.4715 82.1341 62.3913 81.8626 62.4869 81.6868C62.5826 81.5109 62.854 81.4307 63.0299 81.5263C63.2057 81.622 63.2859 81.8934 63.1903 82.0693Z" stroke="#FFFBFA" stroke-width="0.3"/>
<path d="M57.5715 78.7081C57.7233 78.6192 57.8463 78.4869 57.9179 78.3262C58.0138 78.1112 58.0866 77.9118 58.1346 77.7307C58.3257 77.0098 57.4243 76.8012 57.2175 77.5178C57.2112 77.5399 57.2049 77.5623 57.1987 77.585C57.1369 77.8127 56.8677 78.0067 56.6609 78.1202C56.0488 78.456 56.3627 79.2873 57.0024 79.0076C57.1714 78.9337 57.3605 78.8316 57.5715 78.7081Z" stroke="#FFFBFA" stroke-width="0.3"/>
<path d="M76.52 73.6442C76.1367 72.2815 75.6883 71.6872 74.7126 70.9587M77.9504 72.3809C77.6656 71.3652 77.3195 70.7607 76.5437 70.2508M77.2212 72.9981C76.9782 71.9256 76.5636 71.2624 75.6666 70.5744M79.2586 71.0842C79.0685 70.4404 78.8518 70.0105 78.33 69.6239M78.6236 71.7059C78.4132 70.8551 78.1219 70.3817 77.4315 69.9555M79.5587 70.0163C77.6755 70.9256 75.4246 72.5105 75.0928 72.7559" stroke="#FFFBFA" stroke-width="0.3" stroke-linecap="round"/>
<path fill-rule="evenodd" clip-rule="evenodd" d="M73.3059 71.9053C73.5357 71.5056 74.1016 71.3858 74.4563 71.6804C75.0818 72.1998 75.4554 72.8054 75.7102 73.517C75.8618 73.9403 75.5871 74.4378 75.1499 74.543C73.6686 74.8995 72.5464 73.2261 73.3059 71.9053ZM73.4982 73.0899C73.5746 73.2749 73.836 73.3835 74.021 73.3071C74.206 73.2306 74.3146 72.9692 74.2381 72.7842C74.1617 72.5992 73.9003 72.4906 73.7153 72.5671C73.5303 72.6435 73.4217 72.905 73.4982 73.0899Z" fill="#FFFBFA"/>
<path d="M79.4417 70.3435C79.3002 70.2391 79.192 70.0945 79.1378 69.9271C79.0652 69.7031 79.014 69.4972 78.9855 69.312C78.8719 68.5749 79.7903 68.4631 79.9199 69.1976C79.9239 69.2201 79.9278 69.2431 79.9315 69.2663C79.9689 69.4993 80.2159 69.7208 80.4096 69.8556C80.9826 70.2544 80.5823 71.0477 79.9759 70.7017C79.8157 70.6103 79.6385 70.4888 79.4417 70.3435Z" fill="#FFFBFA"/>
<path fill-rule="evenodd" clip-rule="evenodd" d="M73.3059 71.9053C73.5357 71.5056 74.1016 71.3858 74.4563 71.6804C75.0818 72.1998 75.4554 72.8054 75.7102 73.517C75.8618 73.9403 75.5871 74.4378 75.1499 74.543C73.6686 74.8995 72.5464 73.2261 73.3059 71.9053ZM73.4982 73.0899C73.5746 73.2749 73.836 73.3835 74.021 73.3071C74.206 73.2306 74.3146 72.9692 74.2381 72.7842C74.1617 72.5992 73.9003 72.4906 73.7153 72.5671C73.5303 72.6435 73.4217 72.905 73.4982 73.0899Z" stroke="#FFFBFA" stroke-width="0.3"/>
<path d="M79.4417 70.3435C79.3002 70.2391 79.192 70.0945 79.1378 69.9271C79.0652 69.7031 79.014 69.4972 78.9855 69.312C78.8719 68.5749 79.7903 68.4631 79.9199 69.1976C79.9239 69.2201 79.9278 69.2431 79.9315 69.2663C79.9689 69.4993 80.2159 69.7208 80.4096 69.8556C80.9826 70.2544 80.5823 71.0477 79.9759 70.7017C79.8157 70.6103 79.6385 70.4888 79.4417 70.3435Z" stroke="#FFFBFA" stroke-width="0.3"/>
<path d="M84.1554 49.2013C85.0766 48.1264 85.3223 47.4237 85.3872 46.2077M86 49.6906C86.6871 48.8902 86.9981 48.2669 86.992 47.3385M85.082 49.4262C85.8395 48.6291 86.1614 47.9162 86.2362 46.7883M87.8046 50.0597C88.2349 49.5444 88.4723 49.1256 88.5045 48.477M86.9351 49.8762C87.5263 49.2292 87.7586 48.7242 87.7302 47.9133M88.8596 49.7169C87.0584 48.6545 84.4911 47.6609 84.1029 47.521" stroke="#FFFBFA" stroke-width="0.3" stroke-linecap="round"/>
<path fill-rule="evenodd" clip-rule="evenodd" d="M83.8192 45.5625C84.2793 45.532 84.6929 45.9364 84.6445 46.3949C84.5593 47.2035 84.2627 47.8504 83.812 48.4571C83.5439 48.818 82.9775 48.8655 82.6475 48.5601C81.5292 47.5253 82.2989 45.6633 83.8192 45.5625ZM82.9402 46.3797C82.8287 46.5459 82.8834 46.8237 83.0496 46.9352C83.2159 47.0467 83.4936 46.992 83.6051 46.8258C83.7166 46.6595 83.6619 46.3818 83.4957 46.2703C83.3295 46.1588 83.0517 46.2135 82.9402 46.3797Z" fill="#FFFBFA"/>
<path d="M88.5224 49.8013C88.5308 49.6256 88.5911 49.4553 88.7003 49.3174C88.8464 49.1328 88.9893 48.9759 89.1276 48.8495C89.6779 48.3461 90.2804 49.0482 89.7412 49.5635C89.7246 49.5793 89.7077 49.5952 89.6904 49.6112C89.5173 49.7716 89.4701 50.1 89.4653 50.3359C89.4514 51.0339 88.5692 51.1409 88.5207 50.4445C88.5079 50.2605 88.5107 50.0456 88.5224 49.8013Z" fill="#FFFBFA"/>
<path fill-rule="evenodd" clip-rule="evenodd" d="M83.8192 45.5625C84.2793 45.532 84.6929 45.9364 84.6445 46.3949C84.5593 47.2035 84.2627 47.8504 83.812 48.4571C83.5439 48.818 82.9775 48.8655 82.6475 48.5601C81.5292 47.5253 82.2989 45.6633 83.8192 45.5625ZM82.9402 46.3797C82.8287 46.5459 82.8834 46.8237 83.0496 46.9352C83.2159 47.0467 83.4936 46.992 83.6051 46.8258C83.7166 46.6595 83.6619 46.3818 83.4957 46.2703C83.3295 46.1588 83.0517 46.2135 82.9402 46.3797Z" stroke="#FFFBFA" stroke-width="0.3"/>
<path d="M88.5224 49.8013C88.5308 49.6256 88.5911 49.4553 88.7003 49.3174C88.8464 49.1328 88.9893 48.9759 89.1276 48.8495C89.6779 48.3461 90.2804 49.0482 89.7412 49.5635C89.7246 49.5793 89.7077 49.5952 89.6904 49.6112C89.5173 49.7716 89.4701 50.1 89.4653 50.3359C89.4514 51.0339 88.5692 51.1409 88.5207 50.4445C88.5079 50.2605 88.5107 50.0456 88.5224 49.8013Z" stroke="#FFFBFA" stroke-width="0.3"/>
<path d="M88.862 21.4368C89.9957 20.5889 90.3888 19.9568 90.7176 18.7843M90.5553 22.317C91.4006 21.6859 91.8402 21.1455 92.0368 20.2381M89.7171 21.8586C90.6304 21.2461 91.1001 20.6207 91.4193 19.5362M92.2359 23.0711C92.7682 22.6621 93.0914 22.3053 93.2643 21.6794M91.4273 22.7023C92.1455 22.1999 92.4824 21.7578 92.6317 20.9603M93.3402 22.9669C91.8144 21.5369 89.5258 20.0069 89.1775 19.7856" stroke="#FFFBFA" stroke-width="0.3" stroke-linecap="round"/>
<path fill-rule="evenodd" clip-rule="evenodd" d="M89.3283 17.8123C89.7839 17.883 90.0993 18.3679 89.952 18.8048C89.6923 19.5753 89.2617 20.1418 88.6894 20.6355C88.349 20.9292 87.7859 20.8519 87.5305 20.4818C86.665 19.2279 87.8227 17.5788 89.3283 17.8123ZM88.2921 18.4179C88.147 18.5558 88.1398 18.8388 88.2776 18.9839C88.4155 19.129 88.6985 19.1362 88.8436 18.9984C88.9887 18.8605 88.996 18.5775 88.8581 18.4324C88.7202 18.2873 88.4372 18.2801 88.2921 18.4179Z" fill="#FFFBFA"/>
<path d="M92.9928 22.9756C93.0394 22.806 93.1354 22.653 93.272 22.5422C93.4549 22.3939 93.6286 22.272 93.7911 22.1788C94.4381 21.8077 94.8728 22.6244 94.2341 23.0095C94.2144 23.0214 94.1944 23.0332 94.1741 23.0451C93.9702 23.1637 93.8524 23.4739 93.7963 23.7031C93.6303 24.3813 92.7461 24.2931 92.8507 23.6029C92.8784 23.4205 92.9281 23.2114 92.9928 22.9756Z" fill="#FFFBFA"/>
<path fill-rule="evenodd" clip-rule="evenodd" d="M89.3283 17.8123C89.7839 17.883 90.0993 18.3679 89.952 18.8048C89.6923 19.5753 89.2617 20.1418 88.6894 20.6355C88.349 20.9292 87.7859 20.8519 87.5305 20.4818C86.665 19.2279 87.8227 17.5788 89.3283 17.8123ZM88.2921 18.4179C88.147 18.5558 88.1398 18.8388 88.2776 18.9839C88.4155 19.129 88.6985 19.1362 88.8436 18.9984C88.9887 18.8605 88.996 18.5775 88.8581 18.4324C88.7202 18.2873 88.4372 18.2801 88.2921 18.4179Z" stroke="#FFFBFA" stroke-width="0.3"/>
<path d="M92.9928 22.9756C93.0394 22.806 93.1354 22.653 93.272 22.5422C93.4549 22.3939 93.6286 22.272 93.7911 22.1788C94.4381 21.8077 94.8728 22.6244 94.2341 23.0095C94.2144 23.0214 94.1944 23.0332 94.1741 23.0451C93.9702 23.1637 93.8524 23.4739 93.7963 23.7031C93.6303 24.3813 92.7461 24.2931 92.8507 23.6029C92.8784 23.4205 92.9281 23.2114 92.9928 22.9756Z" stroke="#FFFBFA" stroke-width="0.3"/>
<path d="M52.6219 20.0184C52.1797 18.6736 52.2203 17.9303 52.6237 16.7813M50.73 19.768C50.3997 18.7662 50.3496 18.0714 50.7091 17.2154M51.6795 19.8734C51.2828 18.8478 51.2569 18.066 51.6175 16.9947M48.9209 19.4216C48.7195 18.7813 48.6594 18.3036 48.8768 17.6917M49.7947 19.5833C49.4946 18.7599 49.4723 18.2045 49.8075 17.4656M48.076 18.7028C50.1462 18.4068 52.8985 18.4664 53.3107 18.485" stroke="#FFFBFA" stroke-width="0.3" stroke-linecap="round"/>
<path fill-rule="evenodd" clip-rule="evenodd" d="M54.3192 16.7823C53.9055 16.5788 53.369 16.795 53.239 17.2374C53.0097 18.0174 53.0374 18.7286 53.223 19.4612C53.3334 19.8971 53.8389 20.1567 54.2604 20.0001C55.6886 19.4696 55.6864 17.4547 54.3192 16.7823ZM54.8205 17.8727C54.8603 18.0689 54.7039 18.3048 54.5077 18.3446C54.3115 18.3844 54.0756 18.228 54.0358 18.0318C53.9961 17.8356 54.1525 17.5997 54.3487 17.5599C54.5448 17.5201 54.7808 17.6766 54.8205 17.8727Z" fill="#FFFBFA"/>
<path d="M48.3557 18.9093C48.4148 18.7436 48.424 18.5632 48.3756 18.3941C48.3109 18.1677 48.2385 17.9682 48.1589 17.7986C47.8419 17.1235 47.0173 17.5431 47.3195 18.225C47.3288 18.2459 47.3384 18.2671 47.3483 18.2885C47.4472 18.5027 47.3657 18.8244 47.2802 19.0442C47.0272 19.6949 47.802 20.13 48.1122 19.5046C48.1942 19.3393 48.2734 19.1396 48.3557 18.9093Z" fill="#FFFBFA"/>
<path fill-rule="evenodd" clip-rule="evenodd" d="M54.3192 16.7823C53.9055 16.5788 53.369 16.795 53.239 17.2374C53.0097 18.0174 53.0374 18.7286 53.223 19.4612C53.3334 19.8971 53.8389 20.1567 54.2604 20.0001C55.6886 19.4696 55.6864 17.4547 54.3192 16.7823ZM54.8205 17.8727C54.8603 18.0689 54.7039 18.3048 54.5077 18.3446C54.3115 18.3844 54.0756 18.228 54.0358 18.0318C53.9961 17.8356 54.1525 17.5997 54.3487 17.5599C54.5448 17.5201 54.7808 17.6766 54.8205 17.8727Z" stroke="#FFFBFA" stroke-width="0.3"/>
<path d="M48.3557 18.9093C48.4148 18.7436 48.424 18.5632 48.3756 18.3941C48.3109 18.1677 48.2385 17.9682 48.1589 17.7986C47.8419 17.1235 47.0173 17.5431 47.3195 18.225C47.3288 18.2459 47.3384 18.2671 47.3483 18.2885C47.4472 18.5027 47.3657 18.8244 47.2802 19.0442C47.0272 19.6949 47.802 20.13 48.1122 19.5046C48.1942 19.3393 48.2734 19.1396 48.3557 18.9093Z" stroke="#FFFBFA" stroke-width="0.3"/>
<path d="M36.0775 65.6836C36.0999 64.2682 36.3816 63.5791 37.1388 62.6255M34.3718 64.8277C34.3877 63.773 34.5678 63.1001 35.1876 62.4089M35.2345 65.2381C35.1954 64.1391 35.4268 63.392 36.1183 62.4977M32.7758 63.9083C32.795 63.2372 32.8947 62.7663 33.3004 62.2592M33.5485 64.3471C33.5345 63.4708 33.6952 62.9387 34.2539 62.3502M32.2128 62.9525C34.2658 63.3504 36.8469 64.3077 37.2303 64.4601" stroke="#FFFBFA" stroke-width="0.3" stroke-linecap="round"/>
<path fill-rule="evenodd" clip-rule="evenodd" d="M38.7406 63.1813C38.4163 62.8535 37.8386 62.8823 37.5709 63.2577C37.0989 63.9197 36.8924 64.6007 36.8279 65.3537C36.7895 65.8017 37.1822 66.2126 37.6317 66.2026C39.1549 66.1688 39.8124 64.2642 38.7406 63.1813ZM38.8574 64.3757C38.8308 64.5741 38.6057 64.7459 38.4073 64.7192C38.209 64.6926 38.0372 64.4675 38.0639 64.2692C38.0905 64.0708 38.3155 63.899 38.5139 63.9257C38.7123 63.9523 38.884 64.1773 38.8574 64.3757Z" fill="#FFFBFA"/>
<path d="M32.4094 63.239C32.5195 63.1018 32.5872 62.9344 32.5969 62.7587C32.6098 62.5236 32.6067 62.3114 32.587 62.1251C32.5084 61.3834 31.5919 61.51 31.6543 62.2532C31.6562 62.276 31.6584 62.2992 31.6607 62.3226C31.6841 62.5574 31.5018 62.8347 31.349 63.0145C30.8969 63.5465 31.4866 64.2112 31.9845 63.7218C32.116 63.5925 32.2563 63.4296 32.4094 63.239Z" fill="#FFFBFA"/>
<path fill-rule="evenodd" clip-rule="evenodd" d="M38.7406 63.1813C38.4163 62.8535 37.8386 62.8823 37.5709 63.2577C37.0989 63.9197 36.8924 64.6007 36.8279 65.3537C36.7895 65.8017 37.1822 66.2126 37.6317 66.2026C39.1549 66.1688 39.8124 64.2642 38.7406 63.1813ZM38.8574 64.3757C38.8308 64.5741 38.6057 64.7459 38.4073 64.7192C38.209 64.6926 38.0372 64.4675 38.0639 64.2692C38.0905 64.0708 38.3155 63.899 38.5139 63.9257C38.7123 63.9523 38.884 64.1773 38.8574 64.3757Z" stroke="#FFFBFA" stroke-width="0.3"/>
<path d="M32.4094 63.239C32.5195 63.1018 32.5872 62.9344 32.5969 62.7587C32.6098 62.5236 32.6067 62.3114 32.587 62.1251C32.5084 61.3834 31.5919 61.51 31.6543 62.2532C31.6562 62.276 31.6584 62.2992 31.6607 62.3226C31.6841 62.5574 31.5018 62.8347 31.349 63.0145C30.8969 63.5465 31.4866 64.2112 31.9845 63.7218C32.116 63.5925 32.2563 63.4296 32.4094 63.239Z" stroke="#FFFBFA" stroke-width="0.3"/>
<path d="M66.6009 100.353C66.8675 98.9625 66.7323 98.2305 66.1854 97.1425M68.4453 99.8627C68.6448 98.8268 68.6056 98.1313 68.1397 97.3283M67.517 100.089C67.7794 99.0206 67.7052 98.242 67.2105 97.2255M70.1953 99.2879C70.3132 98.627 70.3117 98.1456 70.0179 97.5665M69.3493 99.5599C69.5416 98.7049 69.4928 98.1512 69.0659 97.4612M70.9413 98.4669C68.8503 98.438 66.1282 98.8489 65.7217 98.92" stroke="#FFFBFA" stroke-width="0.3" stroke-linecap="round"/>
<path fill-rule="evenodd" clip-rule="evenodd" d="M64.504 97.36C64.8883 97.1052 65.448 97.2511 65.6335 97.6733C65.9606 98.4176 66.024 99.1264 65.9337 99.8768C65.8799 100.323 65.4117 100.645 64.9736 100.544C63.4893 100.2 63.234 98.2016 64.504 97.36ZM64.1462 98.5055C64.1318 98.7052 64.3171 98.9192 64.5167 98.9336C64.7164 98.9479 64.9304 98.7626 64.9448 98.563C64.9591 98.3634 64.7738 98.1493 64.5742 98.135C64.3745 98.1206 64.1605 98.3059 64.1462 98.5055Z" fill="#FFFBFA"/>
<path d="M70.6905 98.7073C70.6106 98.5505 70.5785 98.3728 70.6048 98.1989C70.6401 97.9661 70.6864 97.7589 70.7437 97.5806C70.9718 96.8705 71.8433 97.1812 71.6307 97.8961C71.6242 97.9181 71.6173 97.9403 71.6103 97.9628C71.5395 98.1879 71.6614 98.4965 71.7744 98.7036C72.1085 99.3166 71.3957 99.8472 71.008 99.2665C70.9056 99.1131 70.8015 98.9251 70.6905 98.7073Z" fill="#FFFBFA"/>
<path fill-rule="evenodd" clip-rule="evenodd" d="M64.504 97.36C64.8883 97.1052 65.448 97.2511 65.6335 97.6733C65.9606 98.4176 66.024 99.1264 65.9337 99.8768C65.8799 100.323 65.4117 100.645 64.9736 100.544C63.4893 100.2 63.234 98.2016 64.504 97.36ZM64.1462 98.5055C64.1318 98.7052 64.3171 98.9192 64.5167 98.9336C64.7164 98.9479 64.9304 98.7626 64.9448 98.563C64.9591 98.3634 64.7738 98.1493 64.5742 98.135C64.3745 98.1206 64.1605 98.3059 64.1462 98.5055Z" stroke="#FFFBFA" stroke-width="0.3"/>
<path d="M70.6905 98.7073C70.6106 98.5505 70.5785 98.3728 70.6048 98.1989C70.6401 97.9661 70.6864 97.7589 70.7437 97.5806C70.9718 96.8705 71.8433 97.1812 71.6307 97.8961C71.6242 97.9181 71.6173 97.9403 71.6103 97.9628C71.5395 98.1879 71.6614 98.4965 71.7744 98.7036C72.1085 99.3166 71.3957 99.8472 71.008 99.2665C70.9056 99.1131 70.8015 98.9251 70.6905 98.7073Z" stroke="#FFFBFA" stroke-width="0.3"/>
<path d="M41.809 89.2857C41.0139 88.1145 40.8484 87.3887 40.9201 86.1731M39.9211 89.5655C39.328 88.6931 39.0887 88.0389 39.1988 87.1171M40.863 89.4056C40.1995 88.5286 39.9595 87.7842 40.0115 86.655M38.0866 89.7302C37.7168 89.1699 37.5276 88.7272 37.5683 88.0791M38.9712 89.6452C38.4561 88.9361 38.2819 88.4083 38.4009 87.6056M37.0766 89.2715C38.9854 88.4174 41.6479 87.7175 42.0493 87.622" stroke="#FFFBFA" stroke-width="0.3" stroke-linecap="round"/>
<path fill-rule="evenodd" clip-rule="evenodd" d="M42.5504 85.7074C42.0967 85.6256 41.6404 85.981 41.6371 86.4421C41.6312 87.2551 41.8535 87.9312 42.2335 88.5845C42.4595 88.9732 43.017 89.0838 43.3791 88.8173C44.6063 87.9143 44.0499 85.9778 42.5504 85.7074ZM43.3324 86.6178C43.4246 86.7955 43.3391 87.0654 43.1615 87.1576C42.9838 87.2498 42.7139 87.1643 42.6217 86.9866C42.5295 86.809 42.615 86.5391 42.7927 86.4469C42.9703 86.3547 43.2402 86.4402 43.3324 86.6178Z" fill="#FFFBFA"/>
<path d="M37.4022 89.3929C37.4135 89.2174 37.3726 89.0414 37.2796 88.8921C37.1551 88.6923 37.0306 88.5204 36.9074 88.3793C36.4169 87.8174 35.7395 88.4477 36.2177 89.0201C36.2324 89.0377 36.2474 89.0554 36.2628 89.0732C36.4169 89.2519 36.427 89.5836 36.4053 89.8185C36.341 90.5137 37.2056 90.7189 37.3318 90.0322C37.3652 89.8508 37.3864 89.6369 37.4022 89.3929Z" fill="#FFFBFA"/>
<path fill-rule="evenodd" clip-rule="evenodd" d="M42.5504 85.7074C42.0967 85.6256 41.6404 85.981 41.6371 86.4421C41.6312 87.2551 41.8535 87.9312 42.2335 88.5845C42.4595 88.9732 43.017 89.0838 43.3791 88.8173C44.6063 87.9143 44.0499 85.9778 42.5504 85.7074ZM43.3324 86.6178C43.4246 86.7955 43.3391 87.0654 43.1615 87.1576C42.9838 87.2498 42.7139 87.1643 42.6217 86.9866C42.5295 86.809 42.615 86.5391 42.7927 86.4469C42.9703 86.3547 43.2402 86.4402 43.3324 86.6178Z" stroke="#FFFBFA" stroke-width="0.3"/>
<path d="M37.4022 89.3929C37.4135 89.2174 37.3726 89.0414 37.2796 88.8921C37.1551 88.6923 37.0306 88.5204 36.9074 88.3793C36.4169 87.8174 35.7395 88.4477 36.2177 89.0201C36.2324 89.0377 36.2474 89.0554 36.2628 89.0732C36.4169 89.2519 36.427 89.5836 36.4053 89.8185C36.341 90.5137 37.2056 90.7189 37.3318 90.0322C37.3652 89.8508 37.3864 89.6369 37.4022 89.3929Z" stroke="#FFFBFA" stroke-width="0.3"/>
<path d="M59.3147 60.185C58.8859 58.8359 58.9339 58.093 59.3486 56.9481M57.4253 59.9158C57.105 58.9107 57.0619 58.2155 57.4298 57.3631M58.3738 60.0306C57.9873 59.0011 57.9691 58.2192 58.3404 57.1514M55.6198 59.5515C55.4247 58.9092 55.3694 58.4309 55.5929 57.8212M56.4919 59.7219C56.2001 58.8955 56.1832 58.3399 56.5258 57.6043M54.7821 58.8243C56.8551 58.5489 59.6067 58.6358 60.0187 58.6585" stroke="#FFFBFA" stroke-width="0.3" stroke-linecap="round"/>
<path fill-rule="evenodd" clip-rule="evenodd" d="M61.0439 56.9657C60.6322 56.7581 60.0936 56.969 59.9592 57.4101C59.7222 58.1878 59.7429 58.8992 59.9211 59.6336C60.0272 60.0706 60.5301 60.3352 60.9531 60.1829C62.3866 59.6665 62.4044 57.6517 61.0439 56.9657ZM61.5344 58.0611C61.5722 58.2577 61.4135 58.492 61.2169 58.5299C61.0203 58.5677 60.786 58.4089 60.7481 58.2124C60.7103 58.0158 60.8691 57.7814 61.0656 57.7436C61.2622 57.7058 61.4966 57.8645 61.5344 58.0611Z" fill="#FFFBFA"/>
<path d="M55.0595 59.0334C55.1203 58.8683 55.1313 58.688 55.0846 58.5184C55.0221 58.2914 54.9517 58.0912 54.8738 57.9208C54.5635 57.2426 53.7348 57.654 54.0302 58.3388C54.0393 58.3598 54.0487 58.3811 54.0584 58.4026C54.1552 58.6177 54.0705 58.9386 53.9828 59.1576C53.7233 59.8057 54.4937 60.2485 54.8102 59.6262C54.8938 59.4618 54.975 59.2628 55.0595 59.0334Z" fill="#FFFBFA"/>
<path fill-rule="evenodd" clip-rule="evenodd" d="M61.0439 56.9657C60.6322 56.7581 60.0936 56.969 59.9592 57.4101C59.7222 58.1878 59.7429 58.8992 59.9211 59.6336C60.0272 60.0706 60.5301 60.3352 60.9531 60.1829C62.3866 59.6665 62.4044 57.6517 61.0439 56.9657ZM61.5344 58.0611C61.5722 58.2577 61.4135 58.492 61.2169 58.5299C61.0203 58.5677 60.786 58.4089 60.7481 58.2124C60.7103 58.0158 60.8691 57.7814 61.0656 57.7436C61.2622 57.7058 61.4966 57.8645 61.5344 58.0611Z" stroke="#FFFBFA" stroke-width="0.3"/>
<path d="M55.0595 59.0334C55.1203 58.8683 55.1313 58.688 55.0846 58.5184C55.0221 58.2914 54.9517 58.0912 54.8738 57.9208C54.5635 57.2426 53.7348 57.654 54.0302 58.3388C54.0393 58.3598 54.0487 58.3811 54.0584 58.4026C54.1552 58.6177 54.0705 58.9386 53.9828 59.1576C53.7233 59.8057 54.4937 60.2485 54.8102 59.6262C54.8938 59.4618 54.975 59.2628 55.0595 59.0334Z" stroke="#FFFBFA" stroke-width="0.3"/>
<path d="M74.1895 28.3212C74.9599 27.1336 75.5645 26.6992 76.7125 26.293M73.1984 26.6903C73.7718 25.8049 74.2817 25.3303 75.1739 25.0736M73.7116 27.4961C74.2619 26.544 74.8547 26.0337 75.9154 25.6429M72.334 25.0638C72.7066 24.5054 73.0411 24.1591 73.6541 23.9448M72.7559 25.8459C73.2092 25.0959 73.6279 24.7302 74.4138 24.5281M72.3643 23.9549C73.8928 25.3821 75.572 27.5636 75.816 27.8964" stroke="#FFFBFA" stroke-width="0.3" stroke-linecap="round"/>
<path fill-rule="evenodd" clip-rule="evenodd" d="M77.7747 27.6146C77.6738 27.1647 77.169 26.8823 76.7429 27.0584C75.9914 27.3688 75.4548 27.8363 75.0004 28.4402C74.73 28.7995 74.8447 29.3561 75.231 29.5863C76.5398 30.3663 78.108 29.1013 77.7747 27.6146ZM77.2395 28.6888C77.1116 28.8428 76.8297 28.8689 76.6758 28.741C76.5218 28.6131 76.4957 28.3312 76.6236 28.1772C76.7515 28.0233 77.0334 27.9972 77.1874 28.1251C77.3413 28.253 77.3674 28.5348 77.2395 28.6888Z" fill="#FFFBFA"/>
<path d="M72.3787 24.3023C72.5449 24.2445 72.6912 24.1386 72.7926 23.9949C72.9284 23.8025 73.0384 23.621 73.1206 23.4527C73.4478 22.7824 72.6039 22.4031 72.2622 23.066C72.2517 23.0864 72.2412 23.1072 72.2307 23.1283C72.1259 23.3397 71.8242 23.4778 71.5993 23.5491C70.9337 23.7599 71.0806 24.6363 71.7623 24.4858C71.9424 24.4461 72.1478 24.3826 72.3787 24.3023Z" fill="#FFFBFA"/>
<path fill-rule="evenodd" clip-rule="evenodd" d="M77.7747 27.6146C77.6738 27.1647 77.169 26.8823 76.7429 27.0584C75.9914 27.3688 75.4548 27.8363 75.0004 28.4402C74.73 28.7995 74.8447 29.3561 75.231 29.5863C76.5398 30.3663 78.108 29.1013 77.7747 27.6146ZM77.2395 28.6888C77.1116 28.8428 76.8297 28.8689 76.6758 28.741C76.5218 28.6131 76.4957 28.3312 76.6236 28.1772C76.7515 28.0233 77.0334 27.9972 77.1874 28.1251C77.3413 28.253 77.3674 28.5348 77.2395 28.6888Z" stroke="#FFFBFA" stroke-width="0.3"/>
<path d="M72.3787 24.3023C72.5449 24.2445 72.6912 24.1386 72.7926 23.9949C72.9284 23.8025 73.0384 23.621 73.1206 23.4527C73.4478 22.7824 72.6039 22.4031 72.2622 23.066C72.2517 23.0864 72.2412 23.1072 72.2307 23.1283C72.1259 23.3397 71.8242 23.4778 71.5993 23.5491C70.9337 23.7599 71.0806 24.6363 71.7623 24.4858C71.9424 24.4461 72.1478 24.3826 72.3787 24.3023Z" stroke="#FFFBFA" stroke-width="0.3"/>
<path d="M42.2785 42.7881C43.2087 41.721 43.4604 41.0204 43.5355 39.805M44.1189 43.293C44.8127 42.4984 45.129 41.8778 45.1307 40.9494M43.2031 43.0209C43.9674 42.2302 44.2952 41.5201 44.3796 40.3928M45.9203 43.6774C46.3548 43.1657 46.5959 42.749 46.6335 42.1007M45.0523 43.4865C45.649 42.8446 45.8855 42.3416 45.864 41.5304M46.9781 43.3436C45.186 42.2659 42.6271 41.2506 42.2401 41.1074" stroke="#FFFBFA" stroke-width="0.3" stroke-linecap="round"/>
<path fill-rule="evenodd" clip-rule="evenodd" d="M41.9732 39.1466C42.4336 39.12 42.8437 39.5278 42.7915 39.9859C42.6994 40.7937 42.3974 41.4381 41.9416 42.0409C41.6704 42.3996 41.1036 42.4422 40.7762 42.1341C39.6667 41.0899 40.4522 39.2345 41.9732 39.1466ZM41.0874 39.9563C40.9745 40.1215 41.0268 40.3997 41.1921 40.5126C41.3574 40.6256 41.6355 40.5732 41.7485 40.4079C41.8614 40.2427 41.809 39.9645 41.6438 39.8515C41.4785 39.7386 41.2003 39.791 41.0874 39.9563Z" fill="#FFFBFA"/>
<path d="M46.6404 43.4251C46.6503 43.2495 46.712 43.0797 46.8223 42.9427C46.97 42.7593 47.1143 42.6036 47.2536 42.4784C47.8081 41.9796 48.4047 42.6869 47.8611 43.1975C47.8444 43.2132 47.8273 43.229 47.8099 43.2449C47.6355 43.4037 47.5855 43.7317 47.5788 43.9676C47.5589 44.6655 46.6759 44.765 46.6333 44.0682C46.622 43.8841 46.6266 43.6692 46.6404 43.4251Z" fill="#FFFBFA"/>
<path fill-rule="evenodd" clip-rule="evenodd" d="M41.9732 39.1466C42.4336 39.12 42.8437 39.5278 42.7915 39.9859C42.6994 40.7937 42.3974 41.4381 41.9416 42.0409C41.6704 42.3996 41.1036 42.4422 40.7762 42.1341C39.6667 41.0899 40.4522 39.2345 41.9732 39.1466ZM41.0874 39.9563C40.9745 40.1215 41.0268 40.3997 41.1921 40.5126C41.3574 40.6256 41.6355 40.5732 41.7485 40.4079C41.8614 40.2427 41.809 39.9645 41.6438 39.8515C41.4785 39.7386 41.2003 39.791 41.0874 39.9563Z" stroke="#FFFBFA" stroke-width="0.3"/>
<path d="M46.6404 43.4251C46.6503 43.2495 46.712 43.0797 46.8223 42.9427C46.97 42.7593 47.1143 42.6036 47.2536 42.4784C47.8081 41.9796 48.4047 42.6869 47.8611 43.1975C47.8444 43.2132 47.8273 43.229 47.8099 43.2449C47.6355 43.4037 47.5855 43.7317 47.5788 43.9676C47.5589 44.6655 46.6759 44.765 46.6333 44.0682C46.622 43.8841 46.6266 43.6692 46.6404 43.4251Z" stroke="#FFFBFA" stroke-width="0.3"/>
<path d="M66.4071 41.0092C66.3666 39.5942 66.0761 38.9088 65.3067 37.9649M68.1017 40.1316C68.0724 39.0771 67.8836 38.4065 67.255 37.7234M67.2443 40.553C67.2694 39.4536 67.0284 38.7094 66.3256 37.8241M69.6859 39.1918C69.658 38.5211 69.5523 38.0514 69.1402 37.5495M68.9188 39.6404C68.9216 38.764 68.7541 38.234 68.188 37.6527M70.2366 38.2288C68.1888 38.653 65.6202 39.6432 65.2387 39.8006" stroke="#FFFBFA" stroke-width="0.3" stroke-linecap="round"/>
<path fill-rule="evenodd" clip-rule="evenodd" d="M63.7122 38.5411C64.0323 38.2092 64.6104 38.2305 64.8828 38.6025C65.3632 39.2585 65.5785 39.9368 65.6526 40.6889C65.6967 41.1364 65.3093 41.5522 64.8597 41.5479C63.3362 41.5336 62.6544 39.6376 63.7122 38.5411ZM63.6107 39.7369C63.6399 39.9349 63.8671 40.1038 64.0651 40.0746C64.2632 40.0454 64.432 39.8182 64.4028 39.6202C64.3737 39.4222 64.1465 39.2533 63.9484 39.2825C63.7504 39.3117 63.5816 39.5389 63.6107 39.7369Z" fill="#FFFBFA"/>
<path d="M70.0437 38.5178C69.9318 38.3821 69.862 38.2155 69.85 38.04C69.8341 37.8051 69.8345 37.5928 69.8518 37.4063C69.9209 36.6637 70.839 36.7785 70.7861 37.5224C70.7845 37.5453 70.7826 37.5685 70.7806 37.592C70.7602 37.827 70.946 38.1019 71.1011 38.2797C71.56 38.8059 70.9788 39.4781 70.4747 38.9951C70.3416 38.8675 70.1992 38.7065 70.0437 38.5178Z" fill="#FFFBFA"/>
<path fill-rule="evenodd" clip-rule="evenodd" d="M63.7122 38.5411C64.0323 38.2092 64.6104 38.2305 64.8828 38.6025C65.3632 39.2585 65.5785 39.9368 65.6526 40.6889C65.6967 41.1364 65.3093 41.5522 64.8597 41.5479C63.3362 41.5336 62.6544 39.6376 63.7122 38.5411ZM63.6107 39.7369C63.6399 39.9349 63.8671 40.1038 64.0651 40.0746C64.2632 40.0454 64.432 39.8182 64.4028 39.6202C64.3737 39.4222 64.1465 39.2533 63.9484 39.2825C63.7504 39.3117 63.5816 39.5389 63.6107 39.7369Z" stroke="#FFFBFA" stroke-width="0.3"/>
<path d="M70.0437 38.5178C69.9318 38.3821 69.862 38.2155 69.85 38.04C69.8341 37.8051 69.8345 37.5928 69.8518 37.4063C69.9209 36.6637 70.839 36.7785 70.7861 37.5224C70.7845 37.5453 70.7826 37.5685 70.7806 37.592C70.7602 37.827 70.946 38.1019 71.1011 38.2797C71.56 38.8059 70.9788 39.4781 70.4747 38.9951C70.3416 38.8675 70.1992 38.7065 70.0437 38.5178Z" stroke="#FFFBFA" stroke-width="0.3"/>
<path d="M71.451 14.3331C71.4601 12.9175 71.7352 12.2258 72.4835 11.2651M69.7372 13.4933C69.7432 12.4384 69.917 11.7638 70.5303 11.0669M70.6038 13.8955C70.5544 12.797 70.7787 12.0477 71.4618 11.1469M68.1326 12.5888C68.1456 11.9177 68.2409 11.4458 68.6418 10.9349M68.9095 13.0204C68.8873 12.1443 69.043 11.6107 69.5961 11.0169M67.5607 11.6384C69.6174 12.017 72.2074 12.95 72.5922 13.0989" stroke="#FFFBFA" stroke-width="0.3" stroke-linecap="round"/>
<path fill-rule="evenodd" clip-rule="evenodd" d="M74.0903 11.8059C73.7629 11.4812 73.1855 11.5154 72.9214 11.8933C72.4556 12.5597 72.2555 13.2426 72.198 13.9962C72.1639 14.4446 72.5604 14.8517 73.0098 14.8375C74.5327 14.7894 75.1722 12.8787 74.0903 11.8059ZM74.2183 12.9992C74.1935 13.1978 73.9701 13.3717 73.7715 13.3469C73.5729 13.3221 73.399 13.0987 73.4238 12.9001C73.4486 12.7015 73.672 12.5276 73.8706 12.5524C74.0692 12.5772 74.2431 12.8006 74.2183 12.9992Z" fill="#FFFBFA"/>
<path d="M67.7599 11.9231C67.8687 11.7849 67.9349 11.6168 67.9429 11.4411C67.9536 11.2058 67.9485 10.9937 67.927 10.8076C67.8415 10.0667 66.9262 10.2018 66.9956 10.9444C66.9977 10.9672 67.0001 10.9904 67.0026 11.0138C67.0282 11.2483 66.8485 11.5273 66.6975 11.7085C66.2504 12.2447 66.8463 12.9039 67.3395 12.4098C67.4699 12.2793 67.6086 12.1152 67.7599 11.9231Z" fill="#FFFBFA"/>
<path fill-rule="evenodd" clip-rule="evenodd" d="M74.0903 11.8059C73.7629 11.4812 73.1855 11.5154 72.9214 11.8933C72.4556 12.5597 72.2555 13.2426 72.198 13.9962C72.1639 14.4446 72.5604 14.8517 73.0098 14.8375C74.5327 14.7894 75.1722 12.8787 74.0903 11.8059ZM74.2183 12.9992C74.1935 13.1978 73.9701 13.3717 73.7715 13.3469C73.5729 13.3221 73.399 13.0987 73.4238 12.9001C73.4486 12.7015 73.672 12.5276 73.8706 12.5524C74.0692 12.5772 74.2431 12.8006 74.2183 12.9992Z" stroke="#FFFBFA" stroke-width="0.3"/>
<path d="M67.7599 11.9231C67.8687 11.7849 67.9349 11.6168 67.9429 11.4411C67.9536 11.2058 67.9485 10.9937 67.927 10.8076C67.8415 10.0667 66.9262 10.2018 66.9956 10.9444C66.9977 10.9672 67.0001 10.9904 67.0026 11.0138C67.0282 11.2483 66.8485 11.5273 66.6975 11.7085C66.2504 12.2447 66.8463 12.9039 67.3395 12.4098C67.4699 12.2793 67.6086 12.1152 67.7599 11.9231Z" stroke="#FFFBFA" stroke-width="0.3"/>
<circle cx="72.7922" cy="87.6775" r="0.900735" transform="rotate(13.0647 72.7922 87.6775)" fill="#FFFBFA"/>
<circle cx="55.5475" cy="92.9224" r="0.900735" transform="rotate(13.0647 55.5475 92.9224)" fill="#FFFBFA"/>
<circle cx="48.1684" cy="78.6756" r="0.900735" transform="rotate(13.0647 48.1684 78.6756)" fill="#FFFBFA"/>
<circle cx="50.4481" cy="67.0812" r="0.900735" transform="rotate(13.0647 50.4481 67.0812)" fill="#FFFBFA"/>
<circle cx="84.2449" cy="58.691" r="0.900735" transform="rotate(13.0647 84.2449 58.691)" fill="#FFFBFA"/>
<circle cx="47.0854" cy="31.9854" r="0.900735" transform="rotate(13.0647 47.0854 31.9854)" fill="#FFFBFA"/>
<circle cx="77.5353" cy="98.2303" r="0.900735" transform="rotate(13.0647 77.5353 98.2303)" fill="#FFFBFA"/>
<circle cx="62.8784" cy="72.8424" r="0.900735" transform="rotate(13.0647 62.8784 72.8424)" fill="#FFFBFA"/>
<circle cx="71.9233" cy="62.2015" r="0.900735" transform="rotate(13.0647 71.9233 62.2015)" fill="#FFFBFA"/>
<circle cx="33.8098" cy="79.4533" r="0.900735" transform="rotate(13.0647 33.8098 79.4533)" fill="#FFFBFA"/>
<circle cx="42.4044" cy="56.5843" r="0.900735" transform="rotate(13.0647 42.4044 56.5843)" fill="#FFFBFA"/>
<circle cx="52.4839" cy="9.60758" r="0.900735" transform="rotate(13.0647 52.4839 9.60758)" fill="#FFFBFA"/>
<circle cx="56.2333" cy="47.4645" r="0.900735" transform="rotate(13.0647 56.2333 47.4645)" fill="#FFFBFA"/>
<circle cx="72.2079" cy="50.3496" r="0.900735" transform="rotate(13.0647 72.2079 50.3496)" fill="#FFFBFA"/>
<circle cx="60.2602" cy="30.1111" r="0.900735" transform="rotate(13.0647 60.2602 30.1111)" fill="#FFFBFA"/>
<circle cx="67.4004" cy="18.8225" r="0.900735" transform="rotate(13.0647 67.4004 18.8225)" fill="#FFFBFA"/>
<circle cx="80.0375" cy="39.6322" r="0.900735" transform="rotate(13.0647 80.0375 39.6322)" fill="#FFFBFA"/>
<circle cx="89.9946" cy="31.2576" r="0.900735" transform="rotate(13.0647 89.9946 31.2576)" fill="#FFFBFA"/>
<circle cx="84.0742" cy="14.2671" r="0.900735" transform="rotate(13.0647 84.0742 14.2671)" fill="#FFFBFA"/>
<circle cx="30.3711" cy="94.2719" r="0.900735" transform="rotate(13.0647 30.3711 94.2719)" fill="#FFFBFA"/>
<path fill-rule="evenodd" clip-rule="evenodd" d="M50.3439 5.10402L47.8091 4.51581L27.3573 92.6478L76.2979 104.005L76.8861 101.47L96.7496 15.8729L50.3439 5.10402ZM49.7556 7.63879L30.4803 90.7012L74.3513 100.882L93.6266 17.8194L49.7556 7.63879Z" fill="#FFFBFA"/>
</g>
<rect x="46.6376" y="4.24399" width="52" height="91" transform="rotate(13.0647 46.6376 4.24399)" stroke="#70574E" stroke-width="2"/>
<defs>
<clipPath id="clip0_85_2">
<rect x="3" y="14.1154" width="50" height="89" transform="rotate(-12.8446 3 14.1154)" fill="white"/>
</clipPath>
<clipPath id="clip1_85_2">
<rect x="47.3856" y="5.44415" width="50" height="89" transform="rotate(13.0647 47.3856 5.44415)" fill="white"/>
</clipPath>
</defs>
</svg>
