<svg width="55" height="94" viewBox="0 0 55 94" fill="none" xmlns="http://www.w3.org/2000/svg">
<g clip-path="url(#clip0_28_2)">
<rect x="2.9834" y="2.08197" width="50" height="89" fill="#E4DCDA"/>
<path d="M32.7683 74.0685C32.9832 72.6693 33.3561 72.025 34.2361 71.1833M31.195 72.9883C31.3543 71.9455 31.6244 71.3034 32.3326 70.7031M31.9938 73.5123C32.1047 72.4183 32.4356 71.7096 33.2424 70.9177M29.739 71.8601C29.8495 71.198 30.0123 70.7449 30.4833 70.2978M30.4448 72.4C30.5502 71.53 30.7819 71.0247 31.4155 70.5178M29.3114 70.8365C31.2911 71.5103 33.7178 72.8101 34.077 73.0133" stroke="#FFFBFA" stroke-width="0.3" stroke-linecap="round"/>
<path fill-rule="evenodd" clip-rule="evenodd" d="M35.7472 71.952C35.4705 71.5831 34.8943 71.5329 34.578 71.8684C34.0203 72.46 33.7229 73.1066 33.5565 73.8438C33.4575 74.2824 33.7906 74.7429 34.2373 74.7942V74.7942C35.7509 74.9681 36.6615 73.1707 35.7472 71.952V71.952ZM35.7002 73.1512C35.6468 73.3441 35.4005 73.4836 35.2076 73.4302C35.0147 73.3768 34.8752 73.1305 34.9286 72.9376C34.982 72.7447 35.2283 72.6052 35.4212 72.6586C35.6141 72.712 35.7537 72.9583 35.7002 73.1512Z" fill="#FFFBFA"/>
<path d="M29.4671 71.1472C29.5948 71.0263 29.6847 70.8696 29.7182 70.6969C29.763 70.4657 29.7888 70.2551 29.7947 70.0678C29.8178 69.3224 28.8926 69.323 28.8532 70.0678C28.852 70.0907 28.851 70.1139 28.8501 70.1374C28.8413 70.3732 28.623 70.6231 28.4471 70.7804V70.7804C27.9268 71.2458 28.4205 71.9847 28.9804 71.5676C29.1283 71.4574 29.2894 71.3152 29.4671 71.1472Z" fill="#FFFBFA"/>
<path fill-rule="evenodd" clip-rule="evenodd" d="M35.7472 71.952C35.4705 71.5831 34.8943 71.5329 34.578 71.8684C34.0203 72.46 33.7229 73.1066 33.5565 73.8438C33.4575 74.2824 33.7906 74.7429 34.2373 74.7942V74.7942C35.7509 74.9681 36.6615 73.1707 35.7472 71.952V71.952ZM35.7002 73.1512C35.6468 73.3441 35.4005 73.4836 35.2076 73.4302C35.0147 73.3768 34.8752 73.1305 34.9286 72.9376C34.982 72.7447 35.2283 72.6052 35.4212 72.6586C35.6141 72.712 35.7537 72.9583 35.7002 73.1512Z" stroke="#FFFBFA" stroke-width="0.3"/>
<path d="M29.4671 71.1472C29.5948 71.0263 29.6847 70.8696 29.7182 70.6969C29.763 70.4657 29.7888 70.2551 29.7947 70.0678C29.8178 69.3224 28.8926 69.323 28.8532 70.0678C28.852 70.0907 28.851 70.1139 28.8501 70.1374C28.8413 70.3732 28.623 70.6231 28.4471 70.7804V70.7804C27.9268 71.2458 28.4205 71.9847 28.9804 71.5676C29.1283 71.4574 29.2894 71.3152 29.4671 71.1472Z" stroke="#FFFBFA" stroke-width="0.3"/>
<path d="M46.7802 61.9309C46.0988 60.69 45.5277 60.2125 44.4125 59.7234M47.8881 60.3769C47.381 59.4519 46.9072 58.9412 46.0362 58.6199M47.3172 61.143C46.8381 60.1532 46.2843 59.6008 45.255 59.1334M48.8692 58.818C48.5385 58.2339 48.2303 57.8641 47.6346 57.6055M48.3912 59.5672C47.994 58.786 47.6032 58.3907 46.8343 58.1316M48.9202 57.7099C47.2913 59.0214 45.4569 61.0741 45.1892 61.3881" stroke="#FFFBFA" stroke-width="0.3" stroke-linecap="round"/>
<path fill-rule="evenodd" clip-rule="evenodd" d="M43.2563 60.9635C43.3898 60.5222 43.914 60.2776 44.3261 60.4844C45.0528 60.849 45.5537 61.3545 45.9627 61.99C46.2061 62.3681 46.0509 62.9148 45.6489 63.1161V63.1161C44.2865 63.7982 42.815 62.4218 43.2563 60.9635V60.9635ZM43.7114 62.074C43.8277 62.237 44.1069 62.2836 44.2698 62.1673C44.4327 62.0511 44.4794 61.7719 44.3631 61.6089C44.2468 61.446 43.9676 61.3994 43.8047 61.5156C43.6418 61.6319 43.5951 61.9111 43.7114 62.074Z" fill="#FFFBFA"/>
<path d="M48.8803 58.0552C48.7188 57.9854 48.5807 57.869 48.4901 57.7183C48.3687 57.5165 48.2723 57.3274 48.2027 57.1535C47.9254 56.4611 48.7948 56.1446 49.0871 56.8308C49.096 56.8519 49.105 56.8733 49.1139 56.8951C49.2029 57.1136 49.4937 57.2735 49.7128 57.361V57.361C50.3611 57.62 50.1505 58.4833 49.4816 58.2834C49.3049 58.2305 49.1048 58.1522 48.8803 58.0552Z" fill="#FFFBFA"/>
<path fill-rule="evenodd" clip-rule="evenodd" d="M43.2563 60.9635C43.3898 60.5222 43.914 60.2776 44.3261 60.4844C45.0528 60.849 45.5537 61.3545 45.9627 61.99C46.2061 62.3681 46.0509 62.9148 45.6489 63.1161V63.1161C44.2865 63.7982 42.815 62.4218 43.2563 60.9635V60.9635ZM43.7114 62.074C43.8277 62.237 44.1069 62.2836 44.2698 62.1673C44.4327 62.0511 44.4794 61.7719 44.3631 61.6089C44.2468 61.446 43.9676 61.3994 43.8047 61.5156C43.6418 61.6319 43.5951 61.9111 43.7114 62.074Z" stroke="#FFFBFA" stroke-width="0.3"/>
<path d="M48.8803 58.0552C48.7188 57.9854 48.5807 57.869 48.4901 57.7183C48.3687 57.5165 48.2723 57.3274 48.2027 57.1535C47.9254 56.4611 48.7948 56.1446 49.0871 56.8308C49.096 56.8519 49.105 56.8733 49.1139 56.8951C49.2029 57.1136 49.4937 57.2735 49.7128 57.361V57.361C50.3611 57.62 50.1505 58.4833 49.4816 58.2834C49.3049 58.2305 49.1048 58.1522 48.8803 58.0552Z" stroke="#FFFBFA" stroke-width="0.3"/>
<path d="M48.6927 36.3946C49.3471 35.1393 49.4276 34.3992 49.2159 33.2M50.6002 36.4543C51.0886 35.5193 51.2507 34.8418 51.0348 33.9388M49.6462 36.4043C50.204 35.4566 50.3563 34.6894 50.1742 33.5737M52.4416 36.4059C52.7442 35.8066 52.8808 35.345 52.7656 34.706M51.5531 36.4237C51.9827 35.6598 52.0948 35.1154 51.8838 34.3319M53.3918 35.8335C51.397 35.2058 48.6715 34.8183 48.2617 34.7697" stroke="#FFFBFA" stroke-width="0.3" stroke-linecap="round"/>
<path fill-rule="evenodd" clip-rule="evenodd" d="M47.5428 32.9261C47.9841 32.7924 48.4784 33.0928 48.5349 33.5504C48.6347 34.3573 48.492 35.0545 48.1901 35.7473C48.0105 36.1596 47.4696 36.3338 47.079 36.1109V36.1109C45.7557 35.3558 46.0847 33.368 47.5428 32.9261V32.9261ZM46.8713 33.9208C46.8002 34.108 46.9163 34.3661 47.1034 34.4372C47.2906 34.5082 47.5488 34.3922 47.6198 34.205C47.6909 34.0179 47.5748 33.7597 47.3876 33.6887C47.2005 33.6176 46.9423 33.7337 46.8713 33.9208Z" fill="#FFFBFA"/>
<path d="M53.0825 35.992C53.051 35.819 53.0712 35.6395 53.1463 35.4804C53.2469 35.2675 53.3507 35.0824 53.4568 34.928C53.8791 34.3132 54.6247 34.861 54.2159 35.4848C54.2034 35.504 54.1904 35.5233 54.1772 35.5428C54.0449 35.7381 54.0731 36.0687 54.1218 36.2996V36.2996C54.266 36.9827 53.4309 37.2864 53.2262 36.6189C53.1721 36.4426 53.1263 36.2326 53.0825 35.992Z" fill="#FFFBFA"/>
<path fill-rule="evenodd" clip-rule="evenodd" d="M47.5428 32.9261C47.9841 32.7924 48.4784 33.0928 48.5349 33.5504C48.6347 34.3573 48.492 35.0545 48.1901 35.7473C48.0105 36.1596 47.4696 36.3338 47.079 36.1109V36.1109C45.7557 35.3558 46.0847 33.368 47.5428 32.9261V32.9261ZM46.8713 33.9208C46.8002 34.108 46.9163 34.3661 47.1034 34.4372C47.2906 34.5082 47.5488 34.3922 47.6198 34.205C47.6909 34.0179 47.5748 33.7597 47.3876 33.6887C47.2005 33.6176 46.9423 33.7337 46.8713 33.9208Z" stroke="#FFFBFA" stroke-width="0.3"/>
<path d="M53.0825 35.992C53.051 35.819 53.0712 35.6395 53.1463 35.4804C53.2469 35.2675 53.3507 35.0824 53.4568 34.928C53.8791 34.3132 54.6247 34.861 54.2159 35.4848C54.2034 35.504 54.1904 35.5233 54.1772 35.5428C54.0449 35.7381 54.0731 36.0687 54.1218 36.2996V36.2996C54.266 36.9827 53.4309 37.2864 53.2262 36.6189C53.1721 36.4426 53.1263 36.2326 53.0825 35.992Z" stroke="#FFFBFA" stroke-width="0.3"/>
<path d="M47.0013 8.28487C47.914 7.20269 48.154 6.49804 48.2092 5.28157M48.8498 8.75955C49.5305 7.95366 49.8365 7.32789 49.823 6.39959M47.9297 8.50247C48.6808 7.69936 48.997 6.98393 49.0628 5.85541M50.6573 9.11422C51.0834 8.59552 51.3175 8.17488 51.3445 7.52605M49.7863 8.93768C50.3723 8.28603 50.6006 7.7792 50.5657 6.96852M51.7095 8.76311C49.8999 7.71505 47.3247 6.74192 46.9354 6.6051" stroke="#FFFBFA" stroke-width="0.3" stroke-linecap="round"/>
<path fill-rule="evenodd" clip-rule="evenodd" d="M46.6362 4.64882C47.096 4.61465 47.5128 5.0157 47.4681 5.47462C47.3894 6.28383 47.0979 6.93307 46.6521 7.54331C46.3868 7.90638 45.8209 7.95833 45.4884 7.65559V7.65559C44.3619 6.62979 45.1168 4.7617 46.6362 4.64882V4.64882ZM45.7638 5.47296C45.6536 5.64007 45.7105 5.91736 45.8776 6.02755C46.0447 6.13773 46.322 6.08081 46.4322 5.91371C46.5424 5.7466 46.4854 5.46931 46.3183 5.35912C46.1512 5.24894 45.8739 5.30585 45.7638 5.47296Z" fill="#FFFBFA"/>
<path d="M51.373 8.85008C51.38 8.67432 51.439 8.50355 51.547 8.36475C51.6916 8.17896 51.8333 8.02096 51.9706 7.89342C52.5169 7.38566 53.125 8.08298 52.5898 8.60251C52.5734 8.61849 52.5566 8.63454 52.5394 8.6507C52.3676 8.81239 52.323 9.14119 52.3202 9.3771V9.3771C52.3118 10.0752 51.4305 10.1893 51.3764 9.4932C51.3622 9.30931 51.3633 9.09439 51.373 8.85008Z" fill="#FFFBFA"/>
<path fill-rule="evenodd" clip-rule="evenodd" d="M46.6362 4.64882C47.096 4.61465 47.5128 5.0157 47.4681 5.47462C47.3894 6.28383 47.0979 6.93307 46.6521 7.54331C46.3868 7.90638 45.8209 7.95833 45.4884 7.65559V7.65559C44.3619 6.62979 45.1168 4.7617 46.6362 4.64882V4.64882ZM45.7638 5.47296C45.6536 5.64007 45.7105 5.91736 45.8776 6.02755C46.0447 6.13773 46.322 6.08081 46.4322 5.91371C46.5424 5.7466 46.4854 5.46931 46.3183 5.35912C46.1512 5.24894 45.8739 5.30585 45.7638 5.47296Z" stroke="#FFFBFA" stroke-width="0.3"/>
<path d="M51.373 8.85008C51.38 8.67432 51.439 8.50355 51.547 8.36475C51.6916 8.17896 51.8333 8.02096 51.9706 7.89342C52.5169 7.38566 53.125 8.08298 52.5898 8.60251C52.5734 8.61849 52.5566 8.63454 52.5394 8.6507C52.3676 8.81239 52.323 9.14119 52.3202 9.3771V9.3771C52.3118 10.0752 51.4305 10.1893 51.3764 9.4932C51.3622 9.30931 51.3633 9.09439 51.373 8.85008Z" stroke="#FFFBFA" stroke-width="0.3"/>
<path d="M11.3785 15.0953C10.6438 13.8853 10.5153 13.1521 10.6485 11.9416M9.47896 15.2791C8.93075 14.3778 8.72494 13.7123 8.88158 12.7973M10.4277 15.1671C9.80946 14.2577 9.60748 13.5021 9.7166 12.3769M7.63839 15.3506C7.29743 14.7724 7.13099 14.3207 7.20441 13.6754M8.52616 15.3106C8.04771 14.5763 7.90039 14.0404 8.05992 13.2448M6.65293 14.8414C8.6026 14.0851 11.2971 13.521 11.7029 13.4459" stroke="#FFFBFA" stroke-width="0.3" stroke-linecap="round"/>
<path fill-rule="evenodd" clip-rule="evenodd" d="M12.3004 11.5592C11.8514 11.4545 11.3777 11.7865 11.351 12.2468C11.304 13.0585 11.4918 13.7449 11.8381 14.4166C12.0442 14.8163 12.5953 14.9549 12.9705 14.7071V14.7071C14.2419 13.8674 13.7842 11.9052 12.3004 11.5592V11.5592ZM13.0353 12.5081C13.1183 12.6902 13.0193 12.9554 12.8372 13.0385C12.6551 13.1216 12.3899 13.0226 12.3068 12.8405C12.2238 12.6584 12.3228 12.3932 12.5049 12.3101C12.687 12.227 12.9522 12.326 13.0353 12.5081Z" fill="#FFFBFA"/>
<path d="M6.97207 14.9793C6.99225 14.8045 6.9604 14.6267 6.87506 14.4729C6.76082 14.267 6.64519 14.089 6.5293 13.9419C6.06789 13.3559 5.35948 13.951 5.80802 14.5469C5.82181 14.5652 5.83594 14.5837 5.85041 14.6023C5.99521 14.7885 5.98855 15.1203 5.95495 15.3538V15.3538C5.85552 16.0449 6.70864 16.2935 6.86945 15.6142C6.91194 15.4347 6.94401 15.2222 6.97207 14.9793Z" fill="#FFFBFA"/>
<path fill-rule="evenodd" clip-rule="evenodd" d="M12.3004 11.5592C11.8514 11.4545 11.3777 11.7865 11.351 12.2468C11.304 13.0585 11.4918 13.7449 11.8381 14.4166C12.0442 14.8163 12.5953 14.9549 12.9705 14.7071V14.7071C14.2419 13.8674 13.7842 11.9052 12.3004 11.5592V11.5592ZM13.0353 12.5081C13.1183 12.6902 13.0193 12.9554 12.8372 13.0385C12.6551 13.1216 12.3899 13.0226 12.3068 12.8405C12.2238 12.6584 12.3228 12.3932 12.5049 12.3101C12.687 12.227 12.9522 12.326 13.0353 12.5081Z" stroke="#FFFBFA" stroke-width="0.3"/>
<path d="M6.97207 14.9793C6.99225 14.8045 6.9604 14.6267 6.87506 14.4729C6.76082 14.267 6.64519 14.089 6.5293 13.9419C6.06789 13.3559 5.35948 13.951 5.80802 14.5469C5.82181 14.5652 5.83594 14.5837 5.85041 14.6023C5.99521 14.7885 5.98855 15.1203 5.95495 15.3538V15.3538C5.85552 16.0449 6.70864 16.2935 6.86945 15.6142C6.91194 15.4347 6.94401 15.2222 6.97207 14.9793Z" stroke="#FFFBFA" stroke-width="0.3"/>
<path d="M5.58516 63.3184C5.28701 61.9345 5.40563 61.1996 5.92769 60.0995M3.73009 62.8702C3.50711 61.8392 3.53048 61.143 3.97803 60.3296M4.66326 63.075C4.37674 62.0133 4.43323 61.2331 4.90466 60.2057M1.96752 62.3353C1.83462 61.6773 1.82522 61.196 2.10581 60.6104M2.81948 62.5881C2.60774 61.7377 2.64399 61.183 3.05516 60.4835M1.20305 61.5315C3.29287 61.4551 6.02357 61.8041 6.43156 61.866" stroke="#FFFBFA" stroke-width="0.3" stroke-linecap="round"/>
<path fill-rule="evenodd" clip-rule="evenodd" d="M7.61366 60.2788C7.22362 60.0329 6.66737 60.1914 6.49149 60.6177C6.18137 61.3692 6.1341 62.0793 6.24148 62.8274C6.30537 63.2725 6.78076 63.5839 7.21641 63.4726V63.4726C8.69255 63.0953 8.90244 61.0914 7.61366 60.2788V60.2788ZM7.99739 61.4159C8.01628 61.6152 7.83591 61.8334 7.63664 61.8523C7.43737 61.8712 7.2192 61.6908 7.20031 61.4915C7.18142 61.2922 7.36179 61.0741 7.56106 61.0552C7.76033 61.0363 7.97849 61.2167 7.99739 61.4159Z" fill="#FFFBFA"/>
<path d="M1.45934 61.7662C1.53561 61.6077 1.56371 61.4293 1.53342 61.256C1.49287 61.024 1.44187 60.818 1.38054 60.641C1.13637 59.9363 0.272172 60.2667 0.500945 60.9766C0.507978 60.9984 0.515294 61.0205 0.522871 61.0428C0.598721 61.2662 0.483834 61.5775 0.375645 61.7872V61.7872C0.055483 62.4076 0.780204 62.9218 1.15455 62.3325C1.25345 62.1768 1.35332 61.9865 1.45934 61.7662Z" fill="#FFFBFA"/>
<path fill-rule="evenodd" clip-rule="evenodd" d="M7.61366 60.2788C7.22362 60.0329 6.66737 60.1914 6.49149 60.6177C6.18137 61.3692 6.1341 62.0793 6.24148 62.8274C6.30537 63.2725 6.78076 63.5839 7.21641 63.4726V63.4726C8.69255 63.0953 8.90244 61.0914 7.61366 60.2788V60.2788ZM7.99739 61.4159C8.01628 61.6152 7.83591 61.8334 7.63664 61.8523C7.43737 61.8712 7.2192 61.6908 7.20031 61.4915C7.18142 61.2922 7.36179 61.0741 7.56106 61.0552C7.76033 61.0363 7.97849 61.2167 7.99739 61.4159Z" stroke="#FFFBFA" stroke-width="0.3"/>
<path d="M1.45934 61.7662C1.53561 61.6077 1.56371 61.4293 1.53342 61.256C1.49287 61.024 1.44187 60.818 1.38054 60.641C1.13637 59.9363 0.272172 60.2667 0.500945 60.9766C0.507978 60.9984 0.515294 61.0205 0.522871 61.0428C0.598721 61.2662 0.483834 61.5775 0.375645 61.7872V61.7872C0.055483 62.4076 0.780204 62.9218 1.15455 62.3325C1.25345 62.1768 1.35332 61.9865 1.45934 61.7662Z" stroke="#FFFBFA" stroke-width="0.3"/>
<path d="M43.1555 90.1903C43.1009 88.7758 42.8037 88.0932 42.025 87.157M44.8413 89.2959C44.8015 88.2418 44.6062 87.5731 43.9708 86.8962M43.9881 89.7258C44.0023 88.6262 43.754 87.8845 43.0424 87.0061M46.4161 88.3404C46.3816 87.67 46.2713 87.2014 45.8541 86.7037M45.6535 88.7967C45.6476 87.9203 45.4749 87.392 44.903 86.8163M46.9572 87.3721C44.9138 87.8166 42.3551 88.8322 41.9752 88.9933" stroke="#FFFBFA" stroke-width="0.3" stroke-linecap="round"/>
<path fill-rule="evenodd" clip-rule="evenodd" d="M40.4363 87.7489C40.7531 87.4139 41.3313 87.4295 41.6074 87.7988C42.0943 88.4499 42.3163 89.1261 42.3979 89.8774C42.4464 90.3244 42.0632 90.7441 41.6135 90.7443V90.7443C40.0899 90.7451 39.3894 88.8559 40.4363 87.7489V87.7489ZM40.3467 88.9457C40.3778 89.1435 40.6067 89.3101 40.8044 89.2789C41.0021 89.2478 41.1687 89.0189 41.1376 88.8212C41.1065 88.6235 40.8776 88.4569 40.6799 88.488C40.4821 88.5192 40.3155 88.748 40.3467 88.9457Z" fill="#FFFBFA"/>
<path d="M46.7672 87.6629C46.654 87.5283 46.5825 87.3624 46.5688 87.187C46.5506 86.9523 46.5489 86.74 46.5644 86.5533C46.6261 85.8101 47.5452 85.9158 47.4997 86.6602C47.4983 86.6831 47.4967 86.7063 47.4949 86.7298C47.4769 86.965 47.6654 87.2381 47.8222 87.4144V87.4144C48.2863 87.9359 47.7118 88.6139 47.203 88.1359C47.0685 88.0096 46.9246 87.85 46.7672 87.6629Z" fill="#FFFBFA"/>
<path fill-rule="evenodd" clip-rule="evenodd" d="M40.4363 87.7489C40.7531 87.4139 41.3313 87.4295 41.6074 87.7988C42.0943 88.4499 42.3163 89.1261 42.3979 89.8774C42.4464 90.3244 42.0632 90.7441 41.6135 90.7443V90.7443C40.0899 90.7451 39.3894 88.8559 40.4363 87.7489V87.7489ZM40.3467 88.9457C40.3778 89.1435 40.6067 89.3101 40.8044 89.2789C41.0021 89.2478 41.1687 89.0189 41.1376 88.8212C41.1065 88.6235 40.8776 88.4569 40.6799 88.488C40.4821 88.5192 40.3155 88.748 40.3467 88.9457Z" stroke="#FFFBFA" stroke-width="0.3"/>
<path d="M46.7672 87.6629C46.654 87.5283 46.5825 87.3624 46.5688 87.187C46.5506 86.9523 46.5489 86.74 46.5644 86.5533C46.6261 85.8101 47.5452 85.9158 47.4997 86.6602C47.4983 86.6831 47.4967 86.7063 47.4949 86.7298C47.4769 86.965 47.6654 87.2381 47.8222 87.4144V87.4144C48.2863 87.9359 47.7118 88.6139 47.203 88.1359C47.0685 88.0096 46.9246 87.85 46.7672 87.6629Z" stroke="#FFFBFA" stroke-width="0.3"/>
<path d="M16.5036 85.0139C15.4643 84.0527 15.1391 83.3831 14.9341 82.1827M14.7279 85.7132C13.9529 84.9975 13.5719 84.4143 13.4708 83.4914M15.6092 85.3444C14.7646 84.6402 14.3625 83.9693 14.1579 82.8575M12.978 86.2883C12.4911 85.8261 12.2068 85.4376 12.0999 84.7971M13.8205 86.0055C13.1585 85.4312 12.8694 84.9565 12.8039 84.1477M11.8904 86.0697C13.5568 84.8063 15.9922 83.5227 16.3616 83.3389" stroke="#FFFBFA" stroke-width="0.3" stroke-linecap="round"/>
<path fill-rule="evenodd" clip-rule="evenodd" d="M16.417 81.3606C15.9564 81.3835 15.5923 81.8329 15.6933 82.2828C15.8714 83.0761 16.2408 83.6844 16.7586 84.2349C17.0666 84.5625 17.6347 84.5441 17.9272 84.2027V84.2027C18.9185 83.0456 17.9387 81.285 16.417 81.3606V81.3606ZM17.3845 82.0707C17.5145 82.223 17.4922 82.5052 17.34 82.6351C17.1878 82.7651 16.9056 82.7429 16.7756 82.5906C16.6456 82.4384 16.6679 82.1562 16.8201 82.0262C16.9723 81.8963 17.2545 81.9185 17.3845 82.0707Z" fill="#FFFBFA"/>
<path d="M12.2351 86.1145C12.2064 85.941 12.1269 85.7788 12.0025 85.6544C11.836 85.4879 11.6759 85.3486 11.524 85.2389C10.9192 84.8025 10.4018 85.5696 10.997 86.0191C11.0153 86.0329 11.0339 86.0468 11.053 86.0607C11.2434 86.1999 11.3283 86.5207 11.3602 86.7544V86.7544C11.4547 87.4462 12.3434 87.4506 12.3111 86.7531C12.3025 86.5689 12.2749 86.3558 12.2351 86.1145Z" fill="#FFFBFA"/>
<path fill-rule="evenodd" clip-rule="evenodd" d="M16.417 81.3606C15.9564 81.3835 15.5923 81.8329 15.6933 82.2828C15.8714 83.0761 16.2408 83.6844 16.7586 84.2349C17.0666 84.5625 17.6347 84.5441 17.9272 84.2027V84.2027C18.9185 83.0456 17.9387 81.285 16.417 81.3606V81.3606ZM17.3845 82.0707C17.5145 82.223 17.4922 82.5052 17.34 82.6351C17.1878 82.7651 16.9056 82.7429 16.7756 82.5906C16.6456 82.4384 16.6679 82.1562 16.8201 82.0262C16.9723 81.8963 17.2545 81.9185 17.3845 82.0707Z" stroke="#FFFBFA" stroke-width="0.3"/>
<path d="M12.2351 86.1145C12.2064 85.941 12.1269 85.7788 12.0025 85.6544C11.836 85.4879 11.6759 85.3486 11.524 85.2389C10.9192 84.8025 10.4018 85.5696 10.997 86.0191C11.0153 86.0329 11.0339 86.0468 11.053 86.0607C11.2434 86.1999 11.3283 86.5207 11.3602 86.7544V86.7544C11.4547 87.4462 12.3434 87.4506 12.3111 86.7531C12.3025 86.5689 12.2749 86.3558 12.2351 86.1145Z" stroke="#FFFBFA" stroke-width="0.3"/>
<path d="M26.9778 52.7094C26.2552 51.4921 26.134 50.7576 26.2792 49.5486M25.0765 52.8743C24.5373 51.9676 24.3381 51.3001 24.5038 50.3866M26.0264 52.7717C25.4172 51.8562 25.2227 51.0986 25.343 49.9746M23.2353 52.9275C22.9001 52.3459 22.7382 51.8925 22.818 51.2481M24.1235 52.8963C23.6523 52.1573 23.5104 51.6199 23.6778 50.8259M22.255 52.4085C24.2121 51.6716 26.9121 51.1343 27.3185 51.0632" stroke="#FFFBFA" stroke-width="0.3" stroke-linecap="round"/>
<path fill-rule="evenodd" clip-rule="evenodd" d="M27.9346 49.1825C27.4866 49.0734 27.0097 49.4006 26.9784 49.8606C26.9233 50.6718 27.1043 51.36 27.4439 52.0352C27.646 52.4368 28.1957 52.581 28.5734 52.3369V52.3369C29.853 51.5099 29.4149 49.5432 27.9346 49.1825V49.1825ZM28.66 50.1387C28.7412 50.3216 28.6396 50.5858 28.4567 50.6671C28.2737 50.7483 28.0096 50.6467 27.9283 50.4637C27.847 50.2808 27.9487 50.0166 28.1316 49.9354C28.3145 49.8541 28.5787 49.9558 28.66 50.1387Z" fill="#FFFBFA"/>
<path d="M22.5725 52.5494C22.5944 52.3749 22.5643 52.1968 22.4805 52.0421C22.3684 51.8351 22.2545 51.656 22.1401 51.5076C21.6845 50.9171 20.9702 51.5052 21.4128 52.1055C21.4264 52.1239 21.4404 52.1425 21.4547 52.1613C21.5976 52.349 21.5876 52.6807 21.5517 52.9138V52.9138C21.4454 53.6039 22.296 53.861 22.4636 53.1832C22.5079 53.0042 22.542 52.792 22.5725 52.5494Z" fill="#FFFBFA"/>
<path fill-rule="evenodd" clip-rule="evenodd" d="M27.9346 49.1825C27.4866 49.0734 27.0097 49.4006 26.9784 49.8606C26.9233 50.6718 27.1043 51.36 27.4439 52.0352C27.646 52.4368 28.1957 52.581 28.5734 52.3369V52.3369C29.853 51.5099 29.4149 49.5432 27.9346 49.1825V49.1825ZM28.66 50.1387C28.7412 50.3216 28.6396 50.5858 28.4567 50.6671C28.2737 50.7483 28.0096 50.6467 27.9283 50.4637C27.847 50.2808 27.9487 50.0166 28.1316 49.9354C28.3145 49.8541 28.5787 49.9558 28.66 50.1387Z" stroke="#FFFBFA" stroke-width="0.3"/>
<path d="M22.5725 52.5494C22.5944 52.3749 22.5643 52.1968 22.4805 52.0421C22.3684 51.8351 22.2545 51.656 22.1401 51.5076C21.6845 50.9171 20.9702 51.5052 21.4128 52.1055C21.4264 52.1239 21.4404 52.1425 21.4547 52.1613C21.5976 52.349 21.5876 52.6807 21.5517 52.9138V52.9138C21.4454 53.6039 22.296 53.861 22.4636 53.1832C22.5079 53.0042 22.542 52.792 22.5725 52.5494Z" stroke="#FFFBFA" stroke-width="0.3"/>
<path d="M34.2649 18.3078C34.747 16.9768 35.2377 16.4169 36.2641 15.7618M32.9308 16.9432C33.2892 15.951 33.6787 15.3734 34.4898 14.9217M33.6129 17.6121C33.9338 16.5603 34.3958 15.9291 35.3408 15.3087M31.7211 15.5541C31.9578 14.926 32.2054 14.5131 32.7541 14.1658M32.3089 16.2207C32.581 15.3876 32.9062 14.9367 33.626 14.5622M31.5 14.4671C33.3116 15.5118 35.4404 17.2573 35.7533 17.5263" stroke="#FFFBFA" stroke-width="0.3" stroke-linecap="round"/>
<path fill-rule="evenodd" clip-rule="evenodd" d="M37.5976 16.8091C37.3976 16.3936 36.842 16.2327 36.4667 16.5005C35.8049 16.9728 35.3879 17.5494 35.0817 18.2404C34.8996 18.6515 35.1371 19.1678 35.5654 19.3047V19.3047C37.0166 19.7687 38.2583 18.1819 37.5976 16.8091V16.8091ZM37.3191 17.9765C37.2293 18.1554 36.9606 18.2445 36.7817 18.1547C36.6028 18.0649 36.5137 17.7963 36.6035 17.6174C36.6932 17.4385 36.9619 17.3493 37.1408 17.4391C37.3197 17.5289 37.4088 17.7976 37.3191 17.9765Z" fill="#FFFBFA"/>
<path d="M31.5925 14.8023C31.7413 14.7085 31.8598 14.5722 31.9262 14.4093C32.0149 14.1912 32.0811 13.9895 32.1231 13.8069C32.2903 13.0801 31.3825 12.9013 31.1995 13.6244C31.1939 13.6466 31.1884 13.6692 31.1829 13.6921C31.1286 13.9217 30.866 14.1245 30.663 14.2448V14.2448C30.0623 14.6006 30.4035 15.4211 31.0336 15.1204C31.2 15.041 31.3857 14.9327 31.5925 14.8023Z" fill="#FFFBFA"/>
<path fill-rule="evenodd" clip-rule="evenodd" d="M37.5976 16.8091C37.3976 16.3936 36.842 16.2327 36.4667 16.5005C35.8049 16.9728 35.3879 17.5494 35.0817 18.2404C34.8996 18.6515 35.1371 19.1678 35.5654 19.3047V19.3047C37.0166 19.7687 38.2583 18.1819 37.5976 16.8091V16.8091ZM37.3191 17.9765C37.2293 18.1554 36.9606 18.2445 36.7817 18.1547C36.6028 18.0649 36.5137 17.7963 36.6035 17.6174C36.6932 17.4385 36.9619 17.3493 37.1408 17.4391C37.3197 17.5289 37.4088 17.7976 37.3191 17.9765Z" stroke="#FFFBFA" stroke-width="0.3"/>
<path d="M31.5925 14.8023C31.7413 14.7085 31.8598 14.5722 31.9262 14.4093C32.0149 14.1912 32.0811 13.9895 32.1231 13.8069C32.2903 13.0801 31.3825 12.9013 31.1995 13.6244C31.1939 13.6466 31.1884 13.6692 31.1829 13.6921C31.1286 13.9217 30.866 14.1245 30.663 14.2448V14.2448C30.0623 14.6006 30.4035 15.4211 31.0336 15.1204C31.2 15.041 31.3857 14.9327 31.5925 14.8023Z" stroke="#FFFBFA" stroke-width="0.3"/>
<path d="M6.45014 39.6138C7.11514 38.3641 7.20189 37.6247 7.00036 36.4238M8.35706 39.6897C8.85334 38.7588 9.02113 38.0827 8.81291 37.178M7.40346 39.6316C7.96924 38.6886 8.1281 37.9228 7.95542 36.8056M10.1987 39.6568C10.5064 39.0602 10.647 38.5998 10.5371 37.9598M9.31011 39.6672C9.74621 38.907 9.86293 38.3635 9.65859 37.5782M11.1538 39.0926C9.16438 38.4479 6.44226 38.0374 6.0329 37.9853" stroke="#FFFBFA" stroke-width="0.3" stroke-linecap="round"/>
<path fill-rule="evenodd" clip-rule="evenodd" d="M5.3296 36.1355C5.77199 36.0056 6.26373 36.3101 6.31643 36.7682C6.40934 37.5759 6.26075 38.2719 5.95301 38.9621C5.76991 39.3728 5.2275 39.5425 4.83887 39.3163V39.3163C3.52203 38.55 3.86779 36.565 5.3296 36.1355V36.1355ZM4.64969 37.1245C4.57706 37.311 4.69095 37.5702 4.87747 37.6428C5.06399 37.7155 5.32314 37.6016 5.39577 37.4151C5.46841 37.2285 5.35452 36.9694 5.168 36.8967C4.98148 36.8241 4.72233 36.938 4.64969 37.1245Z" fill="#FFFBFA"/>
<path d="M10.8431 39.2483C10.8131 39.075 10.8348 38.8956 10.9113 38.7372C11.0137 38.5252 11.119 38.341 11.2264 38.1874C11.6539 37.5763 12.3949 38.1303 11.9808 38.7507C11.9681 38.7697 11.955 38.789 11.9416 38.8084C11.8076 39.0025 11.833 39.3334 11.8798 39.5646V39.5646C12.0182 40.2489 11.1806 40.5455 10.9815 39.8763C10.9289 39.6995 10.8849 39.4892 10.8431 39.2483Z" fill="#FFFBFA"/>
<path fill-rule="evenodd" clip-rule="evenodd" d="M5.3296 36.1355C5.77199 36.0056 6.26373 36.3101 6.31643 36.7682C6.40934 37.5759 6.26075 38.2719 5.95301 38.9621C5.76991 39.3728 5.2275 39.5425 4.83887 39.3163V39.3163C3.52203 38.55 3.86779 36.565 5.3296 36.1355V36.1355ZM4.64969 37.1245C4.57706 37.311 4.69095 37.5702 4.87747 37.6428C5.06399 37.7155 5.32314 37.6016 5.39577 37.4151C5.46841 37.2285 5.35452 36.9694 5.168 36.8967C4.98148 36.8241 4.72233 36.938 4.64969 37.1245Z" stroke="#FFFBFA" stroke-width="0.3"/>
<path d="M10.8431 39.2483C10.8131 39.075 10.8348 38.8956 10.9113 38.7372C11.0137 38.5252 11.119 38.341 11.2264 38.1874C11.6539 37.5763 12.3949 38.1303 11.9808 38.7507C11.9681 38.7697 11.955 38.789 11.9416 38.8084C11.8076 39.0025 11.833 39.3334 11.8798 39.5646V39.5646C12.0182 40.2489 11.1806 40.5455 10.9815 39.8763C10.9289 39.6995 10.8849 39.4892 10.8431 39.2483Z" stroke="#FFFBFA" stroke-width="0.3"/>
<path d="M29.5519 32.4267C29.1926 31.0574 28.7547 30.4554 27.7919 29.7098M31.0043 31.1887C30.7374 30.1681 30.4019 29.5576 29.6352 29.0342M30.2644 31.7929C30.0402 30.7163 29.6374 30.0459 28.7525 29.3423M32.335 29.9151C32.1563 29.268 31.9472 28.8344 31.4322 28.4387M31.6892 30.5255C31.4938 29.6712 31.2109 29.1927 30.528 28.7545M32.6538 28.8526C30.755 29.7287 28.4766 31.2739 28.1406 31.5134" stroke="#FFFBFA" stroke-width="0.3" stroke-linecap="round"/>
<path fill-rule="evenodd" clip-rule="evenodd" d="M26.369 30.6315C26.6058 30.2359 27.1737 30.126 27.5232 30.4268C28.1394 30.9571 28.5024 31.5692 28.7446 32.2851C28.8888 32.711 28.6054 33.2037 28.1664 33.3012V33.3012C26.6791 33.6316 25.5864 31.9388 26.369 30.6315V30.6315ZM26.5404 31.8193C26.6136 32.0056 26.8731 32.1188 27.0594 32.0456C27.2457 31.9724 27.3589 31.7129 27.2857 31.5266C27.2125 31.3403 26.953 31.2272 26.7667 31.3004C26.5804 31.3735 26.4673 31.633 26.5404 31.8193Z" fill="#FFFBFA"/>
<path d="M32.5313 29.1776C32.3916 29.0707 32.2859 28.9242 32.2347 28.7559C32.166 28.5307 32.1184 28.3239 32.0932 28.1382C31.9926 27.3992 32.9128 27.3035 33.0295 28.0402C33.0331 28.0628 33.0365 28.0858 33.0398 28.1092C33.0731 28.3427 33.3163 28.5685 33.5075 28.7067V28.7067C34.0735 29.1155 33.6593 29.9017 33.0591 29.5451C32.9005 29.4509 32.7254 29.3263 32.5313 29.1776Z" fill="#FFFBFA"/>
<path fill-rule="evenodd" clip-rule="evenodd" d="M26.369 30.6315C26.6058 30.2359 27.1737 30.126 27.5232 30.4268C28.1394 30.9571 28.5024 31.5692 28.7446 32.2851C28.8888 32.711 28.6054 33.2037 28.1664 33.3012V33.3012C26.6791 33.6316 25.5864 31.9388 26.369 30.6315V30.6315ZM26.5404 31.8193C26.6136 32.0056 26.8731 32.1188 27.0594 32.0456C27.2457 31.9724 27.3589 31.7129 27.2857 31.5266C27.2125 31.3403 26.953 31.2272 26.7667 31.3004C26.5804 31.3735 26.4673 31.633 26.5404 31.8193Z" stroke="#FFFBFA" stroke-width="0.3"/>
<path d="M32.5313 29.1776C32.3916 29.0707 32.2859 28.9242 32.2347 28.7559C32.166 28.5307 32.1184 28.3239 32.0932 28.1382C31.9926 27.3992 32.9128 27.3035 33.0295 28.0402C33.0331 28.0628 33.0365 28.0858 33.0398 28.1092C33.0731 28.3427 33.3163 28.5685 33.5075 28.7067V28.7067C34.0735 29.1155 33.6593 29.9017 33.0591 29.5451C32.9005 29.4509 32.7254 29.3263 32.5313 29.1776Z" stroke="#FFFBFA" stroke-width="0.3"/>
<path d="M28.4351 5.30093C28.124 3.91991 28.2357 3.18391 28.7474 2.07892M26.576 4.87021C26.3433 3.84128 26.3601 3.14488 26.8 2.32732M27.511 5.06617C27.2145 4.00721 27.2637 3.22659 27.7254 2.19475M24.8084 4.35188C24.6694 3.69516 24.6554 3.21394 24.9305 2.62569M25.6627 4.59664C25.443 3.74823 25.4741 3.19324 25.8786 2.48987M24.0365 3.5553C26.1255 3.45927 28.8593 3.7826 29.2679 3.84061" stroke="#FFFBFA" stroke-width="0.3" stroke-linecap="round"/>
<path fill-rule="evenodd" clip-rule="evenodd" d="M30.4349 2.24245C30.0426 2.00019 29.4878 2.16399 29.3159 2.59185C29.0129 3.3463 28.9723 4.0568 29.0867 4.80385C29.1548 5.24832 29.6331 5.55526 30.0676 5.43983V5.43983C31.5402 5.04872 31.7312 3.04293 30.4349 2.24245V2.24245ZM30.8293 3.37595C30.85 3.57503 30.6717 3.79488 30.4726 3.81565C30.2736 3.83641 30.0537 3.65809 30.0329 3.45901C30.0122 3.25992 30.1905 3.04008 30.3896 3.01931C30.5887 2.99855 30.8085 3.17687 30.8293 3.37595Z" fill="#FFFBFA"/>
<path d="M24.2948 3.7876C24.3696 3.62839 24.396 3.44969 24.3641 3.27671C24.3214 3.04516 24.2684 2.83963 24.2054 2.6632C23.9547 1.9608 23.0936 2.29936 23.329 3.00705C23.3363 3.02881 23.3438 3.05081 23.3516 3.07306C23.4295 3.29574 23.3176 3.6081 23.2114 3.81876V3.81876C22.897 4.44217 23.6266 4.94957 23.9953 4.35676C24.0928 4.20015 24.1909 4.00892 24.2948 3.7876Z" fill="#FFFBFA"/>
<path fill-rule="evenodd" clip-rule="evenodd" d="M30.4349 2.24245C30.0426 2.00019 29.4878 2.16399 29.3159 2.59185C29.0129 3.3463 28.9723 4.0568 29.0867 4.80385C29.1548 5.24832 29.6331 5.55526 30.0676 5.43983V5.43983C31.5402 5.04872 31.7312 3.04293 30.4349 2.24245V2.24245ZM30.8293 3.37595C30.85 3.57503 30.6717 3.79488 30.4726 3.81565C30.2736 3.83641 30.0537 3.65809 30.0329 3.45901C30.0122 3.25992 30.1905 3.04008 30.3896 3.01931C30.5887 2.99855 30.8085 3.17687 30.8293 3.37595Z" stroke="#FFFBFA" stroke-width="0.3"/>
<path d="M24.2948 3.7876C24.3696 3.62839 24.396 3.44969 24.3641 3.27671C24.3214 3.04516 24.2684 2.83963 24.2054 2.6632C23.9547 1.9608 23.0936 2.29936 23.329 3.00705C23.3363 3.02881 23.3438 3.05081 23.3516 3.07306C23.4295 3.29574 23.3176 3.6081 23.2114 3.81876V3.81876C22.897 4.44217 23.6266 4.94957 23.9953 4.35676C24.0928 4.20015 24.1909 4.00892 24.2948 3.7876Z" stroke="#FFFBFA" stroke-width="0.3"/>
<circle cx="46.3211" cy="76.4435" r="0.900735" fill="#FFFBFA"/>
<circle cx="30.7085" cy="85.4509" r="0.900735" fill="#FFFBFA"/>
<circle cx="20.3" cy="73.2409" r="0.900735" fill="#FFFBFA"/>
<circle cx="19.8996" cy="61.4313" r="0.900735" fill="#FFFBFA"/>
<circle cx="50.925" cy="45.6184" r="0.900735" fill="#FFFBFA"/>
<circle cx="8.69065" cy="28.0041" r="0.900735" fill="#FFFBFA"/>
<circle cx="53.3269" cy="85.651" r="0.900735" fill="#FFFBFA"/>
<circle cx="33.3105" cy="64.2335" r="0.900735" fill="#FFFBFA"/>
<circle cx="39.7159" cy="51.8235" r="0.900735" fill="#FFFBFA"/>
<circle cx="6.48875" cy="77.2442" r="0.900735" fill="#FFFBFA"/>
<circle cx="9.69126" cy="53.0245" r="0.900735" fill="#FFFBFA"/>
<circle cx="8.89073" cy="4.98521" r="0.900735" fill="#FFFBFA"/>
<circle cx="21.1007" cy="41.0146" r="0.900735" fill="#FFFBFA"/>
<circle cx="37.3139" cy="40.214" r="0.900735" fill="#FFFBFA"/>
<circle cx="21.1007" cy="23.2001" r="0.900735" fill="#FFFBFA"/>
<circle cx="25.5043" cy="10.5897" r="0.900735" fill="#FFFBFA"/>
<circle cx="42.5182" cy="28.0041" r="0.900735" fill="#FFFBFA"/>
<circle cx="50.3246" cy="17.5955" r="0.900735" fill="#FFFBFA"/>
<circle cx="40.7167" cy="2.3831" r="0.900735" fill="#FFFBFA"/>
<path fill-rule="evenodd" clip-rule="evenodd" d="M5.78816 1.08197H3.18604V91.5558H53.4271V88.9537V1.08197H5.78816ZM5.78816 3.68409V88.9537H50.8249V3.68409H5.78816Z" fill="#FFFBFA"/>
</g>
<rect x="1.9834" y="1.08197" width="52" height="91" stroke="#70574E" stroke-width="2"/>
<defs>
<clipPath id="clip0_28_2">
<rect x="2.9834" y="2.08197" width="50" height="89" fill="white"/>
</clipPath>
</defs>
</svg>
