<svg width="99" height="92" viewBox="0 0 99 92" fill="none" xmlns="http://www.w3.org/2000/svg">
<path d="M14.4864 26.2344C11.6421 6.302 29.6763 -6.98626 49.6056 6.30193C66.6937 -6.03725 83.7755 3.45446 83.7755 26.2344C94.1443 26.2344 109.188 45.8808 86.1807 69.3838C85.8544 69.7172 85.5718 70.1166 85.3721 70.5382C78.8278 84.3619 72.0375 91.7269 49.6056 91.7269C27.4373 91.7269 18.7529 82.7357 14.8013 70.8789C14.5874 70.2369 14.2137 69.6357 13.7327 69.1599C-11.7775 43.924 4.14903 26.2344 14.4864 26.2344Z" fill="#FFFBFA"/>
<path d="M49.6208 36.6752C43.9256 36.6752 41.087 41.9888 39.2262 47.9471C38.72 49.568 37.8553 51.0553 36.679 52.28C31.1467 58.0402 28.5003 62.7946 30.1739 68.1353C31.5419 72.5006 38.5133 73.7645 46.5435 71.9271C48.561 71.4654 50.6654 71.5085 52.6777 71.9925C59.3276 73.592 65.5353 72.6366 68.3908 69.1263C68.8943 68.5075 69.1898 67.7474 69.3343 66.9628C70.3654 61.3642 67.4723 57.538 62.4236 52.2059C61.3207 51.0411 60.5296 49.6213 60.0557 48.0889C58.1953 42.0734 55.3611 36.6752 49.6208 36.6752Z" fill="#70574E"/>
<path d="M45.039 18.1975C47.9332 24.2197 46.2334 31.0462 41.2422 33.445C36.251 35.8438 29.8586 32.9065 26.9643 26.8843C24.07 20.8622 25.7699 14.0356 30.7611 11.6368C35.7522 9.23805 42.1447 12.1754 45.039 18.1975Z" fill="#70574E"/>
<path d="M27.3089 39.944C31.9645 45.0048 32.4747 52.1098 28.4486 55.8136C24.4225 59.5173 17.3846 58.4172 12.7291 53.3564C8.07354 48.2956 7.56329 41.1905 11.5894 37.4868C15.6155 33.7831 22.6534 34.8832 27.3089 39.944Z" fill="#70574E"/>
<path d="M72.4075 25.646C70.2459 32.1139 64.1464 35.9043 58.7839 34.1121C53.4215 32.3199 50.8266 25.6238 52.9882 19.156C55.1499 12.6881 61.2493 8.89777 66.6118 10.69C71.9743 12.4821 74.5691 19.1782 72.4075 25.646Z" fill="#70574E"/>
<path d="M85.7387 53.6076C80.9623 58.3788 73.9117 59.0646 69.9908 55.1394C66.0699 51.2142 66.7634 44.1644 71.5398 39.3932C76.3162 34.622 83.3668 33.9362 87.2877 37.8614C91.2086 41.7866 90.5151 48.8364 85.7387 53.6076Z" fill="#70574E"/>
</svg>
