<svg width="116" height="108" viewBox="0 0 116 108" fill="none" xmlns="http://www.w3.org/2000/svg">
<path d="M99 55.0978C99 62.1069 111.445 68.5743 107.71 86.5842C107.082 89.6103 105.676 92.4773 103.525 94.696C95.5886 102.88 88.6886 98.9201 83.0052 97.4364C80.0799 96.6728 76.8969 96.622 73.9633 97.3526C68.4102 98.7355 67.0914 104.076 55.6425 106.398C52.5958 107.016 49.3518 106.967 46.5772 105.565C39.7625 102.122 36.831 95.0537 24.444 90.6386C19.6733 88.9381 14.7572 87.0816 11.3813 83.3061C6.53329 77.8842 8.05802 75.2096 4.70081 63.4024C3.14316 57.9242 1.92344 51.6194 5.50051 47.1875C11.5105 39.7413 21.7923 43.226 25 31.5978C27.7662 16.8451 30.5323 2.09226 50.0924 1.05779C53.6063 0.871947 57.0571 1.88936 60.3838 3.03642C77.9336 9.08772 88.6664 4.3892 101.5 18.5978C114 36.5978 99 42.4089 99 55.0978Z" fill="#70574E"/>
<path d="M22.7649 25.098L2.97708 30.16C2.43881 30.2977 2.11598 30.8478 2.25826 31.3849L21.4785 103.941C21.6201 104.476 22.1688 104.794 22.7032 104.651L43.5 99.098M92 24.598L112.336 30.1478C112.867 30.2928 113.181 30.8399 113.038 31.3718L93.5556 103.945C93.4125 104.478 92.8647 104.795 92.3315 104.652L44.5264 91.8724C43.9699 91.7236 43.6538 91.1366 43.836 90.5901L44.5 88.598M74 68.098V70.598M41 11.598V14.098M13 37.098L13.5 39.098M87.5 91.598L87 93.598M33 79.598H82C82.5523 79.598 83 79.1503 83 78.598V3.59802C83 3.04574 82.5523 2.59802 82 2.59802H33C32.4477 2.59802 32 3.04574 32 3.59802V78.598C32 79.1503 32.4477 79.598 33 79.598Z" stroke="#FFFBFA" stroke-width="4" stroke-linecap="round"/>
</svg>
